<svg width="48" height="48" viewBox="0 0 48 48" fill="none" xmlns="http://www.w3.org/2000/svg">
<path d="M6.64288 30.75C6.20493 30.75 5.77682 30.882 5.41268 31.1292C5.04855 31.3764 4.76474 31.7278 4.59714 32.139C4.42955 32.5501 4.3857 33.0025 4.47114 33.439C4.55658 33.8754 4.76747 34.2763 5.07714 34.591C5.38681 34.9057 5.78136 35.12 6.21089 35.2068C6.64042 35.2936 7.08564 35.249 7.49025 35.0787C7.89485 34.9084 8.24068 34.62 8.48399 34.25C8.72729 33.88 8.85716 33.445 8.85716 33C8.8565 32.4035 8.623 31.8316 8.20788 31.4097C7.79277 30.9879 7.22994 30.7507 6.64288 30.75ZM6.64288 33.75C6.49689 33.75 6.35419 33.706 6.23281 33.6236C6.11143 33.5412 6.01683 33.4241 5.96096 33.287C5.9051 33.15 5.89048 32.9992 5.91896 32.8537C5.94744 32.7082 6.01774 32.5746 6.12096 32.4697C6.22419 32.3648 6.3557 32.2933 6.49888 32.2644C6.64206 32.2355 6.79046 32.2503 6.92533 32.3071C7.0602 32.3639 7.17548 32.46 7.25658 32.5833C7.33768 32.7067 7.38097 32.8517 7.38097 33C7.38075 33.1988 7.30292 33.3895 7.16454 33.5301C7.02617 33.6707 6.83856 33.7498 6.64288 33.75Z" fill="#7A7A7A"/>
<path d="M34.6905 30.75C34.2525 30.75 33.8244 30.882 33.4603 31.1292C33.0962 31.3764 32.8123 31.7278 32.6448 32.139C32.4772 32.5501 32.4333 33.0025 32.5187 33.439C32.6042 33.8754 32.8151 34.2763 33.1247 34.591C33.4344 34.9057 33.829 35.12 34.2585 35.2068C34.688 35.2936 35.1332 35.249 35.5379 35.0787C35.9425 34.9084 36.2883 34.62 36.5316 34.25C36.7749 33.88 36.9048 33.445 36.9048 33C36.9041 32.4035 36.6706 31.8316 36.2555 31.4097C35.8404 30.9879 35.2775 30.7507 34.6905 30.75ZM34.6905 33.75C34.5445 33.75 34.4018 33.706 34.2804 33.6236C34.159 33.5412 34.0644 33.4241 34.0086 33.287C33.9527 33.15 33.9381 32.9992 33.9666 32.8537C33.995 32.7082 34.0653 32.5746 34.1686 32.4697C34.2718 32.3648 34.4033 32.2933 34.5465 32.2644C34.6897 32.2355 34.8381 32.2503 34.9729 32.3071C35.1078 32.3639 35.2231 32.46 35.3042 32.5833C35.3853 32.7067 35.4286 32.8517 35.4286 33C35.4284 33.1988 35.3505 33.3895 35.2122 33.5301C35.0738 33.6707 34.8862 33.7498 34.6905 33.75Z" fill="#7A7A7A"/>
<path d="M39.8571 33C39.8571 32.3031 39.7205 31.6131 39.4554 30.9703C39.1902 30.3275 38.8017 29.7448 38.3126 29.2562C37.8235 28.7676 37.2435 28.3828 36.6065 28.1244C35.9695 27.8659 35.2882 27.7389 34.6024 27.7508C31.8021 27.7983 29.5238 30.1863 29.5238 33.0741V35.5936C27.5019 35.0344 24.553 34.5 20.6666 34.5C16.7803 34.5 13.8314 35.0344 11.8095 35.5936V33C11.8095 32.2934 11.6691 31.5941 11.3968 30.9439C11.1245 30.2938 10.7258 29.7062 10.2246 29.2163C9.72345 28.7265 9.13013 28.3445 8.4802 28.0932C7.83028 27.8419 7.13712 27.7265 6.44226 27.754C5.14375 27.8096 3.91314 28.3586 2.99414 29.2925C2.07513 30.2263 1.53477 31.4768 1.48005 32.7962C1.43078 34.0928 1.85558 35.3621 2.67257 36.3594C3.48956 37.3567 4.64092 38.0115 5.90474 38.1974V41.25C5.90562 42.0454 6.21696 42.8079 6.77045 43.3704C7.32394 43.9328 8.07437 44.2491 8.85712 44.25V46.5C8.85712 46.6989 8.93489 46.8897 9.07331 47.0304C9.21173 47.171 9.39946 47.25 9.59522 47.25H11.8095C11.9466 47.25 12.0809 47.2112 12.1975 47.138C12.3141 47.0648 12.4083 46.96 12.4696 46.8355L13.7418 44.25H27.5915L28.8637 46.8355C28.925 46.96 29.0192 47.0648 29.1358 47.138C29.2524 47.2112 29.3867 47.25 29.5238 47.25H31.7381C31.9338 47.25 32.1216 47.171 32.26 47.0304C32.3984 46.8897 32.4762 46.6989 32.4762 46.5V44.25C33.2589 44.2491 34.0094 43.9328 34.5628 43.3704C35.1163 42.8079 35.4277 42.0454 35.4285 41.25V38.1966C36.6576 38.0146 37.7812 37.3896 38.5943 36.4355C39.4073 35.4815 39.8556 34.2621 39.8571 33ZM11.3534 45.75H10.3333V44.25H12.0915L11.3534 45.75ZM31 45.75H29.9799L29.2418 44.25H31V45.75ZM34.6905 36.75C34.4947 36.75 34.307 36.829 34.1685 36.9697C34.0301 37.1103 33.9524 37.3011 33.9524 37.5V41.25C33.9519 41.6477 33.7962 42.029 33.5195 42.3102C33.2427 42.5914 32.8675 42.7495 32.4762 42.75H8.85712C8.46576 42.7495 8.09055 42.5914 7.81381 42.3102C7.53707 42.029 7.3814 41.6477 7.38093 41.25V37.5C7.38093 37.3011 7.30317 37.1103 7.16475 36.9697C7.02633 36.829 6.83859 36.75 6.64284 36.75C6.14603 36.75 5.65433 36.6481 5.19722 36.4504C4.74011 36.2526 4.327 35.9631 3.98265 35.5993C3.63829 35.2354 3.36979 34.8046 3.19322 34.3327C3.01666 33.8609 2.93568 33.3576 2.95513 32.8532C2.99424 31.9112 3.38006 31.0184 4.03619 30.3517C4.69231 29.685 5.57091 29.2929 6.49799 29.2532C6.99441 29.2334 7.48967 29.3156 7.95406 29.495C8.41846 29.6744 8.84243 29.9472 9.20057 30.297C9.55871 30.6469 9.84364 31.0666 10.0383 31.5311C10.2329 31.9956 10.3333 32.4952 10.3333 33V36.0563C9.1698 36.4688 8.55838 36.8102 8.49527 36.8463L9.21741 38.1546C9.25551 38.133 13.119 36 20.6666 36C28.2143 36 32.0778 38.133 32.1143 38.1537L32.838 36.8463C32.7749 36.8102 32.1635 36.4684 31 36.0563V33.0741C31 30.9998 32.6271 29.2845 34.6271 29.2506C35.1143 29.242 35.5985 29.3316 36.0515 29.5141C36.5045 29.6967 36.9175 29.9686 37.2665 30.3142C37.6156 30.6598 37.8938 31.0723 38.0851 31.5277C38.2765 31.9832 38.3771 32.4726 38.3813 32.9678C38.3855 33.463 38.2931 33.9541 38.1095 34.4129C37.9259 34.8716 37.6547 35.2888 37.3115 35.6405C36.9684 35.9921 36.5601 36.2712 36.1102 36.4616C35.6603 36.6521 35.1778 36.7501 34.6905 36.75Z" fill="#7A7A7A"/>
<path d="M7.38098 22.5C7.38144 22.1023 7.53712 21.7211 7.81385 21.4399C8.09059 21.1587 8.4658 21.0005 8.85717 21H32.4762C32.8676 21.0005 33.2428 21.1587 33.5195 21.4399C33.7963 21.7211 33.9519 22.1023 33.9524 22.5V26.25H35.4286V22.5C35.4277 21.7046 35.1164 20.9421 34.5629 20.3797C34.0094 19.8173 33.259 19.5009 32.4762 19.5H8.85717C8.07442 19.5009 7.32398 19.8173 6.77049 20.3797C6.217 20.9421 5.90566 21.7046 5.90479 22.5V26.25H7.38098V22.5Z" fill="#7A7A7A"/>
<path d="M16.238 24H17.7142V25.5H16.238V24Z" fill="#7A7A7A"/>
<path d="M19.9286 27.75H21.4048V29.25H19.9286V27.75Z" fill="#7A7A7A"/>
<path d="M12.5476 27.75H14.0238V29.25H12.5476V27.75Z" fill="#7A7A7A"/>
<path d="M16.238 31.5H17.7142V33H16.238V31.5Z" fill="#7A7A7A"/>
<path d="M23.619 24H25.0952V25.5H23.619V24Z" fill="#7A7A7A"/>
<path d="M27.3094 27.75H28.7856V29.25H27.3094V27.75Z" fill="#7A7A7A"/>
<path d="M23.619 31.5H25.0952V33H23.619V31.5Z" fill="#7A7A7A"/>
<path d="M42.8095 0.75H22.1428C21.3601 0.750893 20.6096 1.06725 20.0561 1.62967C19.5026 2.19208 19.1913 2.95462 19.1904 3.75V4.5H20.6666V3.75C20.6671 3.35232 20.8228 2.97106 21.0995 2.68986C21.3762 2.40866 21.7514 2.25047 22.1428 2.25H31.738V18H33.2142V2.25H42.8095C43.2008 2.25047 43.5761 2.40866 43.8528 2.68986C44.1295 2.97106 44.2852 3.35232 44.2857 3.75V41.25C44.2852 41.6477 44.1295 42.0289 43.8528 42.3101C43.5761 42.5913 43.2008 42.7495 42.8095 42.75H36.1666V44.25H37.9248L39.197 46.8354C39.2583 46.96 39.3525 47.0648 39.4691 47.138C39.5857 47.2112 39.72 47.25 39.8571 47.25H42.0714C42.2671 47.25 42.4549 47.171 42.5933 47.0303C42.7317 46.8897 42.8095 46.6989 42.8095 46.5V44.25C43.5922 44.2491 44.3427 43.9327 44.8962 43.3703C45.4496 42.8079 45.761 42.0454 45.7619 41.25V3.75C45.761 2.95462 45.4496 2.19208 44.8962 1.62967C44.3427 1.06725 43.5922 0.750893 42.8095 0.75ZM41.3333 45.75H40.3132L39.5751 44.25H41.3333V45.75Z" fill="#7A7A7A"/>
<path d="M6.64285 16.5H13.2857V18H14.7619V16.5H21.4048C21.5069 16.5 21.6078 16.4785 21.7013 16.4368C21.7948 16.3951 21.8788 16.3341 21.9479 16.2578C22.017 16.1815 22.0698 16.0914 22.1029 15.9932C22.136 15.8951 22.1488 15.791 22.1403 15.6877L21.4022 6.68766C21.3868 6.50019 21.3026 6.32545 21.1664 6.19808C21.0302 6.07071 20.8518 6.00001 20.6667 6H14.7619V4.5H13.2857V6H7.38095C7.19582 6.00001 7.01745 6.07071 6.88122 6.19808C6.74498 6.32545 6.66082 6.50019 6.64543 6.68766L5.90734 15.6877C5.89885 15.791 5.91157 15.8951 5.94468 15.9932C5.97779 16.0914 6.03057 16.1815 6.0997 16.2578C6.16883 16.3341 6.25279 16.3951 6.34628 16.4368C6.43977 16.4785 6.54075 16.5 6.64285 16.5ZM8.06009 7.5H19.9875L20.6026 15H7.44498L8.06009 7.5Z" fill="#7A7A7A"/>
</svg>
