<svg width="48" height="48" viewBox="0 0 48 48" fill="none" xmlns="http://www.w3.org/2000/svg">
<path d="M24.26 17.0162H6.2615C5.87319 17.0162 5.55847 17.331 5.55847 17.7192C5.55847 18.1075 5.87319 18.4222 6.2615 18.4222H24.2601C24.6484 18.4222 24.9631 18.1074 24.9631 17.7192C24.9631 17.331 24.6484 17.0162 24.26 17.0162Z" fill="#7A7A7A"/>
<path d="M24.26 21.9564H6.2615C5.87319 21.9564 5.55847 22.2712 5.55847 22.6595C5.55847 23.0477 5.87319 23.3625 6.2615 23.3625H24.2601C24.6484 23.3625 24.9631 23.0477 24.9631 22.6595C24.9631 22.2712 24.6484 21.9564 24.26 21.9564Z" fill="#7A7A7A"/>
<path d="M24.26 26.8966H6.2615C5.87319 26.8966 5.55847 27.2114 5.55847 27.5996C5.55847 27.9879 5.87319 28.3027 6.2615 28.3027H24.2601C24.6484 28.3027 24.9631 27.9879 24.9631 27.5996C24.9631 27.2114 24.6484 26.8966 24.26 26.8966Z" fill="#7A7A7A"/>
<path d="M24.9631 32.5399C24.9631 32.1516 24.6484 31.8369 24.2601 31.8369H6.2615C5.87319 31.8369 5.55847 32.1517 5.55847 32.5399C5.55847 32.9282 5.87319 33.243 6.2615 33.243H24.2601C24.6484 33.243 24.9631 32.9283 24.9631 32.5399Z" fill="#7A7A7A"/>
<path d="M6.2615 39.077C5.87319 39.077 5.55847 39.3918 5.55847 39.78C5.55847 40.1682 5.87319 40.483 6.2615 40.483H15.2838C15.6721 40.483 15.9868 40.1682 15.9868 39.78C15.9868 39.3918 15.6721 39.077 15.2838 39.077H6.2615Z" fill="#7A7A7A"/>
<path d="M32.362 8.70497V6.42366C32.362 5.5546 31.655 4.84753 30.7858 4.84753H16.3514C15.4824 4.84753 14.7754 5.5546 14.7754 6.42366V8.70497C14.7754 9.57403 15.4824 10.281 16.3514 10.281H17.5704C17.9587 10.281 18.2734 9.96619 18.2734 9.57797C18.2734 9.18966 17.9587 8.87494 17.5704 8.87494H16.3514C16.2578 8.87494 16.1815 8.79872 16.1815 8.70507V6.42366C16.1815 6.33 16.2578 6.25369 16.3514 6.25369H30.7858C30.8796 6.25369 30.9558 6.32991 30.9558 6.42366V8.70497C30.9558 8.79863 30.8796 8.87485 30.7858 8.87485H20.8572C20.4689 8.87485 20.1542 9.18966 20.1542 9.57788C20.1542 9.96619 20.4689 10.2809 20.8572 10.2809H30.7859C31.655 10.2811 32.362 9.57403 32.362 8.70497Z" fill="#7A7A7A"/>
<path d="M37.6189 42.8715C37.2306 42.8715 36.9159 43.1863 36.9159 43.5745V44.5213C36.9159 45.664 35.9862 46.5938 34.8432 46.5938H3.74056C2.59784 46.5938 1.66803 45.6641 1.66803 44.5213V10.7276C1.66803 10.5755 1.68584 10.4262 1.71762 10.281H8.11915C9.45565 10.281 10.543 9.19369 10.543 7.85719V1.45575C10.6882 1.42397 10.8373 1.40616 10.9895 1.40616H34.8432C35.986 1.40616 36.9158 2.33588 36.9158 3.47869V12.8389C36.9158 13.2272 37.2305 13.5419 37.6188 13.5419C38.0071 13.5419 38.3218 13.2271 38.3218 12.8389V3.47859C38.3219 1.56056 36.7614 0 34.8432 0H10.9896C10.0604 0 9.18678 0.361875 8.52978 1.01888L1.28074 8.26791C0.623744 8.92491 0.261963 9.79847 0.261963 10.7277V44.5214C0.261963 46.4395 1.82243 48 3.74056 48H34.8432C36.7614 48 38.3219 46.4394 38.3219 44.5214V43.5746C38.3219 43.1863 38.0072 42.8715 37.6189 42.8715ZM9.1369 2.40037V7.85719C9.1369 8.41838 8.68034 8.87494 8.11915 8.87494H2.66234L9.1369 2.40037Z" fill="#7A7A7A"/>
<path d="M47.2483 25.1249C47.7418 24.4005 47.8695 23.507 47.5987 22.6734C47.3278 21.8397 46.6992 21.1919 45.8742 20.896C45.3269 20.6997 44.9618 20.1972 44.9443 19.616C44.9178 18.7399 44.4958 17.9419 43.7866 17.4266C43.0776 16.9115 42.1881 16.7569 41.347 17.0023C40.7884 17.1653 40.1981 16.9733 39.8422 16.5134C39.3058 15.8201 38.4955 15.4225 37.6189 15.4225C36.7424 15.4225 35.932 15.8201 35.3955 16.5134C35.0396 16.9734 34.4489 17.1651 33.8908 17.0023C33.0496 16.7567 32.1602 16.9115 31.451 17.4266C30.7419 17.9419 30.3201 18.7398 30.2935 19.6159C30.2759 20.1971 29.9109 20.6995 29.3635 20.896C28.5385 21.1918 27.9099 21.8397 27.6391 22.6733C27.3683 23.5069 27.496 24.4005 27.9895 25.1248C28.3168 25.6055 28.3168 26.2265 27.9895 26.707C27.496 27.4315 27.3683 28.325 27.6391 29.1586C27.9099 29.9922 28.5385 30.64 29.3635 30.936C29.9109 31.1324 30.276 31.6348 30.2935 32.2161C30.3179 33.022 30.6872 33.7792 31.3069 34.2934C31.7157 34.6328 32.2069 34.8451 32.7209 34.9161V41.3171C32.7209 41.8572 33.0139 42.3565 33.4854 42.6198C33.9563 42.883 34.5352 42.8712 34.9954 42.5878L37.574 41.0005C37.616 40.9745 37.641 40.9862 37.6642 41.0005L40.2426 42.5878C40.7026 42.871 41.2813 42.8831 41.7527 42.6197C42.2243 42.3563 42.5171 41.857 42.5171 41.317V34.9159C43.031 34.845 43.5221 34.6327 43.931 34.2934C44.5508 33.7792 44.9202 33.022 44.9446 32.216C44.9621 31.6347 45.3272 31.1322 45.8745 30.9359C46.6996 30.64 47.3282 29.9921 47.599 29.1585C47.8698 28.3249 47.7421 27.4314 47.2486 26.707C46.9209 26.2266 46.9209 25.6056 47.2483 25.1249ZM40.9796 41.3904L38.4011 39.8031C37.9217 39.508 37.3165 39.5076 36.8367 39.8031L34.2582 41.3904C34.1995 41.4261 34.127 41.3849 34.127 41.317V34.7826C34.6104 34.7266 35.0896 34.9233 35.3955 35.3186C35.9321 36.0118 36.7424 36.4094 37.619 36.4094C38.4955 36.4094 39.3058 36.0118 39.8422 35.3186C40.1482 34.9232 40.6275 34.7266 41.1108 34.7826V41.317C41.1108 41.3854 41.0374 41.4262 40.9796 41.3904ZM46.0863 27.499C46.3331 27.861 46.3968 28.3075 46.2614 28.7242C46.1261 29.1408 45.8119 29.4646 45.3995 29.6125C44.3043 30.0054 43.574 31.0106 43.5388 32.1736C43.5264 32.5825 43.3467 32.951 43.0329 33.2114C42.6801 33.5042 42.2023 33.6146 41.7409 33.48C40.6241 33.1541 39.4421 33.5381 38.73 34.4582C38.462 34.8046 38.0569 35.0034 37.6188 35.0034C37.1808 35.0034 36.7757 34.8047 36.5075 34.4582C35.9638 33.7555 35.1462 33.3655 34.2928 33.3655C34.0287 33.3655 33.7609 33.4029 33.4969 33.4799C33.031 33.6157 32.5546 33.5019 32.2046 33.2113C31.8909 32.9509 31.7112 32.5824 31.6989 32.1736C31.6636 31.0106 30.9333 30.0054 29.838 29.6125C29.4257 29.4645 29.1117 29.1408 28.9762 28.7242C28.8408 28.3075 28.9046 27.8609 29.1513 27.4989C29.8063 26.5373 29.8063 25.2948 29.1513 24.3332C28.9046 23.9711 28.8408 23.5245 28.9762 23.1078C29.1116 22.6912 29.4257 22.3674 29.838 22.2195C30.9333 21.8266 31.6636 20.8213 31.6989 19.6584C31.7121 19.2205 31.9228 18.8216 32.2773 18.5642C32.6316 18.3067 33.076 18.2294 33.4968 18.352C34.6134 18.678 35.7956 18.2939 36.5075 17.3739C36.7756 17.0274 37.1806 16.8286 37.6188 16.8286C38.0569 16.8286 38.4619 17.0273 38.73 17.3738C39.4421 18.2939 40.6237 18.6779 41.7408 18.352C42.1614 18.2292 42.6057 18.3066 42.9602 18.5641C43.3147 18.8215 43.5256 19.2205 43.5387 19.6583C43.574 20.8212 44.3043 21.8266 45.3995 22.2194C45.8119 22.3673 46.126 22.6911 46.2614 23.1077C46.3968 23.5243 46.3331 23.971 46.0863 24.333C45.4311 25.2947 45.4311 26.5374 46.0863 27.499Z" fill="#7A7A7A"/>
<path d="M37.6189 20.0234C34.3697 20.0234 31.7263 22.6668 31.7263 25.9159C31.7263 29.1651 34.3697 31.8085 37.6189 31.8085C40.868 31.8085 43.5113 29.1651 43.5113 25.9159C43.5113 22.6668 40.868 20.0234 37.6189 20.0234ZM37.6189 30.4024C35.145 30.4024 33.1324 28.3898 33.1324 25.916C33.1324 23.4423 35.145 21.4295 37.6189 21.4295C40.0928 21.4295 42.1053 23.4422 42.1053 25.916C42.1053 28.3899 40.0927 30.4024 37.6189 30.4024Z" fill="#7A7A7A"/>
</svg>
