<svg width="48" height="48" viewBox="0 0 48 48" fill="none" xmlns="http://www.w3.org/2000/svg">
<path d="M17.0109 16.9375H30.9891C31.805 16.9375 32.4688 16.2738 32.4688 15.4579V13.1282C32.4688 12.9637 32.4112 12.8045 32.3059 12.6781L28.586 8.21428V1.45312C28.586 0.651844 27.9341 0 27.1328 0H20.8672C20.066 0 19.4141 0.651844 19.4141 1.45312V8.21419L15.6942 12.678C15.5889 12.8044 15.5313 12.9637 15.5313 13.1281V15.4578C15.5312 16.2737 16.195 16.9375 17.0109 16.9375ZM30.9891 15.5313H17.0109C16.9704 15.5313 16.9374 15.4983 16.9374 15.4579V13.8313H31.0625V15.4579C31.0625 15.4983 31.0296 15.5313 30.9891 15.5313ZM20.4465 9.17194H27.5536L30.2645 12.4251H17.7355L20.4465 9.17194ZM20.8203 1.45312C20.8203 1.42725 20.8413 1.40625 20.8672 1.40625H27.1327C27.1586 1.40625 27.1796 1.42725 27.1796 1.45312V7.76569H20.8203V1.45312Z" fill="#7A7A7A"/>
<path d="M29.4625 35.7219H18.5375C17.7362 35.7219 17.0844 36.3737 17.0844 37.175V43.4407C17.0844 44.242 17.7362 44.8938 18.5375 44.8938H29.4624C30.2637 44.8938 30.9156 44.242 30.9156 43.4407V37.175C30.9157 36.3737 30.2637 35.7219 29.4625 35.7219ZM29.5094 43.4407C29.5094 43.4666 29.4884 43.4876 29.4625 43.4876H18.5375C18.5116 43.4876 18.4906 43.4666 18.4906 43.4407V37.175C18.4906 37.1491 18.5116 37.1281 18.5375 37.1281H29.4624C29.4883 37.1281 29.5093 37.1491 29.5093 37.175V43.4407H29.5094Z" fill="#7A7A7A"/>
<path d="M17.7875 30.9156H18.564C18.9523 30.9156 19.2671 30.6008 19.2671 30.2125C19.2671 29.8242 18.9523 29.5094 18.564 29.5094H17.7875C17.3992 29.5094 17.0844 29.8242 17.0844 30.2125C17.0844 30.6008 17.3992 30.9156 17.7875 30.9156Z" fill="#7A7A7A"/>
<path d="M23.6117 30.9156H24.3882C24.7765 30.9156 25.0913 30.6008 25.0913 30.2125C25.0913 29.8242 24.7765 29.5094 24.3882 29.5094H23.6117C23.2234 29.5094 22.9086 29.8242 22.9086 30.2125C22.9086 30.6008 23.2234 30.9156 23.6117 30.9156Z" fill="#7A7A7A"/>
<path d="M29.4359 30.9156H30.2124C30.6008 30.9156 30.9156 30.6008 30.9156 30.2125C30.9156 29.8242 30.6008 29.5094 30.2124 29.5094H29.4359C29.0476 29.5094 28.7328 29.8242 28.7328 30.2125C28.7328 30.6008 29.0476 30.9156 29.4359 30.9156Z" fill="#7A7A7A"/>
<path d="M27.1062 38.8281H20.8937C20.5054 38.8281 20.1906 39.1429 20.1906 39.5312C20.1906 39.9196 20.5054 40.2344 20.8937 40.2344H27.1062C27.4945 40.2344 27.8093 39.9196 27.8093 39.5312C27.8093 39.1428 27.4945 38.8281 27.1062 38.8281Z" fill="#7A7A7A"/>
<path d="M8.46871 29.5094H6.91565C6.52734 29.5094 6.21252 29.8242 6.21252 30.2125C6.21252 30.6008 6.52734 30.9156 6.91565 30.9156H8.46881C8.85712 30.9156 9.17193 30.6008 9.17193 30.2125C9.17184 29.8242 8.85712 29.5094 8.46871 29.5094Z" fill="#7A7A7A"/>
<path d="M3.10623 38.7546V41.8609C3.10623 42.2492 3.42104 42.564 3.80936 42.564C4.19767 42.564 4.51248 42.2492 4.51248 41.8609V38.7546C4.51248 38.3663 4.19767 38.0515 3.80936 38.0515C3.42104 38.0515 3.10623 38.3663 3.10623 38.7546Z" fill="#7A7A7A"/>
<path d="M46.5469 26.4031H9.17184V21.6437C9.17184 20.8424 8.52 20.1906 7.71872 20.1906H6.1125C5.31122 20.1906 4.65938 20.8424 4.65938 21.6437V26.4031H1.45312C0.651844 26.4031 0 27.0549 0 27.8562V33.3187V46.5469C0 47.3481 0.651844 48 1.45312 48H6.31247C6.70078 48 7.01559 47.6852 7.01559 47.2969C7.01559 46.9086 6.70078 46.5937 6.31247 46.5937H1.45312C1.42725 46.5937 1.40625 46.5727 1.40625 46.5469V34.0219H13.9781V46.5937H9.09375C8.70544 46.5937 8.39062 46.9086 8.39062 47.2969C8.39062 47.6852 8.70544 48 9.09375 48H46.5469C47.3482 48 48 47.3481 48 46.5469V33.3187V27.8562C48 27.0549 47.3482 26.4031 46.5469 26.4031ZM46.5938 27.8562V32.6156H34.0219V27.8093H46.5469C46.5728 27.8093 46.5938 27.8303 46.5938 27.8562ZM32.6156 32.6156H15.3844V27.8093H32.6156V32.6156ZM6.06562 21.6438C6.06562 21.6179 6.08662 21.5969 6.1125 21.5969H7.71872C7.74459 21.5969 7.76559 21.6179 7.76559 21.6438V26.4032H6.06562V21.6438ZM1.40625 32.6156V27.8562C1.40625 27.8303 1.42725 27.8093 1.45312 27.8093H13.9781V32.6156H1.40625ZM15.3844 34.0219H32.6156V46.5937H15.3844V34.0219ZM46.5938 46.5469C46.5938 46.5727 46.5728 46.5937 46.5469 46.5937H34.0219V34.0219H46.5938V46.5469Z" fill="#7A7A7A"/>
<path d="M39.5312 30.9156H41.0843C41.4727 30.9156 41.7875 30.6008 41.7875 30.2125C41.7875 29.8242 41.4727 29.5094 41.0843 29.5094H39.5312C39.1429 29.5094 38.8281 29.8242 38.8281 30.2125C38.8281 30.6008 39.1429 30.9156 39.5312 30.9156Z" fill="#7A7A7A"/>
<path d="M36.425 42.5641C36.8133 42.5641 37.1281 42.2493 37.1281 41.861V38.7548C37.1281 38.3664 36.8133 38.0516 36.425 38.0516C36.0366 38.0516 35.7218 38.3664 35.7218 38.7548V41.861C35.7218 42.2493 36.0366 42.5641 36.425 42.5641Z" fill="#7A7A7A"/>
<path d="M1.45312 12.2782H12.3781C13.1794 12.2782 13.8312 11.6263 13.8312 10.825V1.45312C13.8312 0.651844 13.1794 0 12.3781 0H1.45312C0.651844 0 0 0.651844 0 1.45312V10.825C0 11.6263 0.651844 12.2782 1.45312 12.2782ZM1.40625 1.45312C1.40625 1.42725 1.42725 1.40625 1.45312 1.40625H12.3781C12.404 1.40625 12.425 1.42725 12.425 1.45312V10.825C12.425 10.8509 12.404 10.8719 12.3781 10.8719H1.45312C1.42725 10.8719 1.40625 10.8509 1.40625 10.825V1.45312Z" fill="#7A7A7A"/>
<path d="M6.13904 9.17194H7.69219C8.08051 9.17194 8.39532 8.85712 8.39532 8.46881C8.39532 8.0805 8.08051 7.76569 7.69219 7.76569H6.13904C5.75073 7.76569 5.43591 8.0805 5.43591 8.46881C5.43591 8.85712 5.75073 9.17194 6.13904 9.17194Z" fill="#7A7A7A"/>
<path d="M46.5469 0H35.6219C34.8206 0 34.1688 0.651844 34.1688 1.45312V3.17972C34.1688 3.56803 34.4836 3.88284 34.8719 3.88284C35.2602 3.88284 35.575 3.56803 35.575 3.17972V1.45312C35.575 1.42725 35.596 1.40625 35.6219 1.40625H46.5469C46.5728 1.40625 46.5938 1.42725 46.5938 1.45312V10.825C46.5938 10.8509 46.5728 10.8719 46.5469 10.8719H35.6219C35.596 10.8719 35.575 10.8509 35.575 10.825V5.99222C35.575 5.60391 35.2602 5.28909 34.8719 5.28909C34.4836 5.28909 34.1688 5.60391 34.1688 5.99222V10.825C34.1688 11.6263 34.8206 12.2782 35.6219 12.2782H46.5469C47.3482 12.2782 48 11.6263 48 10.825V1.45312C48 0.651844 47.3482 0 46.5469 0V0Z" fill="#7A7A7A"/>
<path d="M41.861 9.17194C42.2493 9.17194 42.5641 8.85712 42.5641 8.46881C42.5641 8.0805 42.2493 7.76569 41.861 7.76569H40.3078C39.9195 7.76569 39.6047 8.0805 39.6047 8.46881C39.6047 8.85712 39.9195 9.17194 40.3078 9.17194H41.861Z" fill="#7A7A7A"/>
<path d="M47.2969 17.0844H34.8719C34.4836 17.0844 34.1688 17.3992 34.1688 17.7875C34.1688 18.1758 34.4836 18.4906 34.8719 18.4906H37.275V20.3034C36.3743 20.5996 35.7219 21.4482 35.7219 22.4468C35.7219 23.6908 36.734 24.703 37.9781 24.703C39.2222 24.703 40.2343 23.6909 40.2343 22.4468C40.2343 21.4481 39.5819 20.5995 38.6813 20.3034V18.4906H43.4875V20.3034C42.5868 20.5996 41.9344 21.4482 41.9344 22.4468C41.9344 23.6908 42.9465 24.703 44.1907 24.703C45.4347 24.703 46.4469 23.6909 46.4469 22.4468C46.4469 21.4481 45.7944 20.5995 44.8938 20.3034V18.4906H47.2969C47.6852 18.4906 48 18.1758 48 17.7875C48 17.3992 47.6852 17.0844 47.2969 17.0844ZM37.9781 23.2969C37.5094 23.2969 37.1281 22.9156 37.1281 22.4469C37.1281 21.9782 37.5094 21.5969 37.9781 21.5969C38.4468 21.5969 38.8281 21.9782 38.8281 22.4469C38.8281 22.9156 38.4468 23.2969 37.9781 23.2969ZM44.1907 23.2969C43.722 23.2969 43.3406 22.9156 43.3406 22.4469C43.3406 21.9782 43.7219 21.5969 44.1907 21.5969C44.6593 21.5969 45.0406 21.9782 45.0406 22.4469C45.0406 22.9156 44.6593 23.2969 44.1907 23.2969Z" fill="#7A7A7A"/>
</svg>
