<svg width="48" height="48" viewBox="0 0 48 48" fill="none" xmlns="http://www.w3.org/2000/svg">
<path d="M39.5808 12.5952C39.4272 11.6304 38.5824 10.9104 37.608 10.9104C37.6032 10.9104 37.5936 10.9104 37.5888 10.9104C31.5312 10.9728 25.6896 13.1328 21.048 17.0016C20.904 15.3024 20.4192 13.6464 19.6176 12.1296C18.5232 10.0608 16.8768 8.33279 14.8656 7.13279C14.0544 6.64799 13.0416 6.78239 12.408 7.45919C9.39358 10.6704 7.77118 14.8656 7.84318 19.272C7.91038 23.5152 9.54238 27.5088 12.4512 30.576C12.1776 31.6224 11.9712 32.688 11.832 33.7728C11.7744 34.2192 12.0864 34.6272 12.5376 34.6896C12.5712 34.6944 12.6096 34.6944 12.6432 34.6944C13.0464 34.6944 13.3968 34.3968 13.4496 33.984C13.5984 32.856 13.8192 31.752 14.1168 30.6816C14.1504 30.6096 14.1696 30.5376 14.1792 30.4608C17.1216 20.1456 26.6352 12.6576 37.6176 12.5424C37.6176 12.5424 37.6176 12.5424 37.6224 12.5424C37.7952 12.5424 37.9584 12.6816 37.9872 12.8496C38.592 16.6656 38.6112 20.5344 38.0448 24.3552C38.0352 24.384 38.0256 24.4128 38.0208 24.4416C36.8928 29.2848 33.744 33.4224 29.3712 35.7888C25.5168 37.8816 21.0288 38.4288 16.8192 37.368C18.24 36.432 19.6032 35.4048 20.904 34.2864C24.336 31.3344 27.2208 27.8448 29.4768 23.9232C29.7024 23.5344 29.568 23.0352 29.1744 22.8096C28.7856 22.584 28.2864 22.7184 28.0608 23.112C24.768 28.8 20.0592 33.552 14.4624 36.9024C14.4384 36.912 14.4192 36.9264 14.3952 36.9408C12.6 38.0112 10.7184 38.9328 8.75998 39.7008C8.34238 39.864 8.13118 40.3392 8.29918 40.7568C8.42398 41.0784 8.73118 41.2752 9.05758 41.2752C9.15838 41.2752 9.25918 41.256 9.35518 41.2176C11.2944 40.4592 13.1568 39.5568 14.9424 38.5152C16.9296 39.1872 18.9936 39.5232 21.0528 39.5232C24.192 39.5232 27.3168 38.7504 30.1296 37.2192C34.8624 34.656 38.2896 30.192 39.552 24.9648C39.5808 24.8976 39.6048 24.8256 39.6144 24.7488C40.2336 20.7168 40.2192 16.6272 39.5808 12.5952ZM16.0368 22.56C16.0272 21.6864 15.9888 20.8752 15.9216 20.0976C15.7728 18.4368 15.4896 16.6896 15.0576 14.7456C14.9616 14.304 14.5248 14.0304 14.0832 14.1264C13.6416 14.2224 13.368 14.6592 13.464 15.1008C13.8816 16.9728 14.1552 18.6528 14.2944 20.2416C14.4288 21.7632 14.4432 23.4384 14.3328 25.4976C13.8144 26.544 13.3632 27.624 12.9888 28.7376C8.07358 22.872 8.24158 14.2656 13.5888 8.57279C13.6944 8.45759 13.8768 8.44319 14.0256 8.52959C17.5248 10.6128 19.584 14.3856 19.4544 18.4368C18.168 19.6992 17.0256 21.0816 16.0368 22.56Z" fill="#7A7A7A"/>
</svg>
