<svg width="160" height="24" viewBox="0 0 160 24" fill="none" xmlns="http://www.w3.org/2000/svg">
<rect width="160" height="24" fill="#F9F9F9"/>
<path d="M11.1928 1.10402C11.5923 0.557659 12.4077 0.557658 12.8072 1.10401L16.1833 5.72133C16.3067 5.89013 16.48 6.01599 16.6787 6.08121L22.1132 7.86523C22.7563 8.07633 23.0083 8.85191 22.6121 9.40068L19.2641 14.0384C19.1417 14.2079 19.0755 14.4116 19.0749 14.6207L19.0576 20.3406C19.0555 21.0174 18.3958 21.4967 17.7514 21.2895L12.3061 19.5384C12.1071 19.4744 11.8929 19.4744 11.6939 19.5384L6.24857 21.2895C5.60424 21.4967 4.94449 21.0174 4.94244 20.3406L4.92511 14.6207C4.92448 14.4116 4.85831 14.2079 4.73591 14.0384L1.38785 9.40068C0.991686 8.85191 1.24369 8.07633 1.88675 7.86523L7.32134 6.08121C7.52002 6.01599 7.69326 5.89013 7.81668 5.72133L11.1928 1.10402Z" fill="#DBDBDB"/>
<path d="M45.1928 1.10402C45.5923 0.557659 46.4077 0.557658 46.8072 1.10401L50.1833 5.72133C50.3067 5.89013 50.48 6.01599 50.6787 6.08121L56.1132 7.86523C56.7563 8.07633 57.0083 8.85191 56.6121 9.40068L53.2641 14.0384C53.1417 14.2079 53.0755 14.4116 53.0749 14.6207L53.0576 20.3406C53.0555 21.0174 52.3958 21.4967 51.7514 21.2895L46.3061 19.5384C46.1071 19.4744 45.8929 19.4744 45.6939 19.5384L40.2486 21.2895C39.6042 21.4967 38.9445 21.0174 38.9424 20.3406L38.9251 14.6207C38.9245 14.4116 38.8583 14.2079 38.7359 14.0384L35.3879 9.40068C34.9917 8.85191 35.2437 8.07633 35.8868 7.86523L41.3213 6.08121C41.52 6.01599 41.6933 5.89013 41.8167 5.72133L45.1928 1.10402Z" fill="#DBDBDB"/>
<path d="M79.1928 1.10402C79.5923 0.557659 80.4077 0.557658 80.8072 1.10401L84.1833 5.72133C84.3067 5.89013 84.48 6.01599 84.6787 6.08121L90.1132 7.86523C90.7563 8.07633 91.0083 8.85191 90.6121 9.40068L87.2641 14.0384C87.1417 14.2079 87.0755 14.4116 87.0749 14.6207L87.0576 20.3406C87.0555 21.0174 86.3958 21.4967 85.7514 21.2895L80.3061 19.5384C80.1071 19.4744 79.8929 19.4744 79.6939 19.5384L74.2486 21.2895C73.6042 21.4967 72.9445 21.0174 72.9424 20.3406L72.9251 14.6207C72.9245 14.4116 72.8583 14.2079 72.7359 14.0384L69.3879 9.40068C68.9917 8.85191 69.2437 8.07633 69.8868 7.86523L75.3213 6.08121C75.52 6.01599 75.6933 5.89013 75.8167 5.72133L79.1928 1.10402Z" fill="#DBDBDB"/>
<path d="M113.193 1.10402C113.592 0.557659 114.408 0.557658 114.807 1.10401L118.183 5.72133C118.307 5.89013 118.48 6.01599 118.679 6.08121L124.113 7.86523C124.756 8.07633 125.008 8.85191 124.612 9.40068L121.264 14.0384C121.142 14.2079 121.076 14.4116 121.075 14.6207L121.058 20.3406C121.056 21.0174 120.396 21.4967 119.751 21.2895L114.306 19.5384C114.107 19.4744 113.893 19.4744 113.694 19.5384L108.249 21.2895C107.604 21.4967 106.944 21.0174 106.942 20.3406L106.925 14.6207C106.924 14.4116 106.858 14.2079 106.736 14.0384L103.388 9.40068C102.992 8.85191 103.244 8.07633 103.887 7.86523L109.321 6.08121C109.52 6.01599 109.693 5.89013 109.817 5.72133L113.193 1.10402Z" fill="#DBDBDB"/>
<path d="M147.193 1.10402C147.592 0.557659 148.408 0.557658 148.807 1.10401L152.183 5.72133C152.307 5.89013 152.48 6.01599 152.679 6.08121L158.113 7.86523C158.756 8.07633 159.008 8.85191 158.612 9.40068L155.264 14.0384C155.142 14.2079 155.076 14.4116 155.075 14.6207L155.058 20.3406C155.056 21.0174 154.396 21.4967 153.751 21.2895L148.306 19.5384C148.107 19.4744 147.893 19.4744 147.694 19.5384L142.249 21.2895C141.604 21.4967 140.944 21.0174 140.942 20.3406L140.925 14.6207C140.924 14.4116 140.858 14.2079 140.736 14.0384L137.388 9.40068C136.992 8.85191 137.244 8.07633 137.887 7.86523L143.321 6.08121C143.52 6.01599 143.693 5.89013 143.817 5.72133L147.193 1.10402Z" fill="#DBDBDB"/>
<path fill-rule="evenodd" clip-rule="evenodd" d="M140.942 20.3406C140.944 21.0174 141.604 21.4967 142.249 21.2895L146 20.0832V2.73531L143.817 5.72133C143.693 5.89013 143.52 6.01599 143.321 6.08121L137.887 7.86523C137.244 8.07633 136.992 8.85191 137.388 9.40068L140.736 14.0384C140.858 14.2079 140.924 14.4116 140.925 14.6207L140.942 20.3406Z" fill="#DBDBDB"/>
</svg>
