<svg width="134" height="63" viewBox="0 0 134 63" fill="none" xmlns="http://www.w3.org/2000/svg">
<mask id="path-1-inside-1_5_1565" fill="white">
<path fill-rule="evenodd" clip-rule="evenodd" d="M2 0C0.895431 0 0 0.89543 0 2V22C0 23.1046 0.895429 24 2 24H132C133.105 24 134 23.1046 134 22V2C134 0.895431 133.105 0 132 0H2ZM2 39C0.895431 39 0 39.8954 0 41V61C0 62.1046 0.895429 63 2 63H132C133.105 63 134 62.1046 134 61V41C134 39.8954 133.105 39 132 39H2Z"/>
</mask>
<path d="M1 2C1 1.44772 1.44771 1 2 1V-1C0.343146 -1 -1 0.343145 -1 2H1ZM1 22V2H-1V22H1ZM2 23C1.44772 23 1 22.5523 1 22H-1C-1 23.6569 0.343143 25 2 25V23ZM132 23H2V25H132V23ZM133 22C133 22.5523 132.552 23 132 23V25C133.657 25 135 23.6569 135 22H133ZM133 2V22H135V2H133ZM132 1C132.552 1 133 1.44772 133 2H135C135 0.343145 133.657 -1 132 -1V1ZM2 1H132V-1H2V1ZM1 41C1 40.4477 1.44772 40 2 40V38C0.343145 38 -1 39.3431 -1 41H1ZM1 61V41H-1V61H1ZM2 62C1.44772 62 1 61.5523 1 61H-1C-1 62.6569 0.343143 64 2 64V62ZM132 62H2V64H132V62ZM133 61C133 61.5523 132.552 62 132 62V64C133.657 64 135 62.6569 135 61H133ZM133 41V61H135V41H133ZM132 40C132.552 40 133 40.4477 133 41H135C135 39.3431 133.657 38 132 38V40ZM2 40H132V38H2V40Z" fill="#DBDBDB" mask="url(#path-1-inside-1_5_1565)"/>
<circle cx="84.5" cy="7.5" r="1.5" fill="#D9D9D9"/>
<circle cx="84.5" cy="15.5" r="2.5" fill="#D9D9D9"/>
<circle cx="95.5" cy="7.5" r="2.5" fill="#D9D9D9"/>
<circle cx="95.5" cy="15.5" r="3.5" fill="#D9D9D9"/>
<circle cx="40.5" cy="45.5" r="1.5" transform="rotate(90 40.5 45.5)" fill="#D9D9D9"/>
<rect x="51" y="47" width="9" height="9" rx="2" transform="rotate(90 51 47)" fill="#D9D9D9"/>
<rect x="39" y="47" width="9" height="9" rx="2" transform="rotate(90 39 47)" fill="#D9D9D9"/>
</svg>
