<svg width="64" height="64" viewBox="0 0 64 64" fill="none" xmlns="http://www.w3.org/2000/svg">
<path d="M11.0137 1.99902C6.04497 1.99902 2.01367 6.03033 2.01367 10.999V14.999C2.01367 19.9677 6.0442 23.999 11.0098 23.999H13.2188L14.9746 31.0224L13.1797 39.999H10.791L11.7188 27.0713C11.7713 26.4691 11.2816 25.9583 10.6777 25.9853C10.165 26.008 9.75229 26.4144 9.72266 26.9267L8.05664 50.167C6.86975 50.5696 5.99609 51.6875 5.99609 53.001V59.0029C5.99609 60.6476 7.35725 61.999 9.00195 61.999H31C31.5553 62.0011 32.006 61.5504 32.0039 60.9951V57.0029C32.0039 53.1422 28.8588 49.997 24.9981 49.997H10.0742L10.6484 41.9989H14C14.4769 41.9988 14.8873 41.6619 14.9805 41.1943L16.9805 31.1943C17.0096 31.0495 17.0062 30.9002 16.9707 30.7568L14.9705 22.7568C14.8595 22.3113 14.4592 21.9988 14 21.999H11.0098C7.1185 21.999 4.01371 18.8943 4.01371 14.999V10.999C4.01371 7.10375 7.11841 3.99894 11.0137 3.99894H35.0137C36.693 3.99894 38.0137 5.3197 38.0137 6.99899V18.9989C38.0137 20.6783 36.693 21.999 35.0137 21.999H21C20.3494 21.9988 19.8718 22.61 20.0293 23.2412L21.9668 30.9912L18.0332 45.7412C17.9781 45.9495 17.9918 46.1701 18.0723 46.3701L18.4708 47.3701C18.9654 48.6087 20.8228 47.8664 20.3282 46.6279L20.0528 45.9365L23.7696 31.999H26.9981C27.4593 32.0008 27.8619 31.6868 27.9727 31.2393L29.7832 23.999H35.0137C37.0545 23.999 38.8125 22.7616 39.5879 21.0009H43.002C44.6467 21.0009 46 19.6398 46 17.9951V8.99706H48.9961C49.5674 8.99706 50 9.42972 50 10.001V15.9951C50 16.5664 49.5674 16.999 48.9961 16.999C47.6625 16.999 47.6625 19.0009 48.9961 19.0009C50.6408 19.0009 52.002 17.6398 52.002 15.9951H56.9981C57.1622 15.998 57.3246 15.9611 57.4707 15.8859L61.4727 13.7511C62.205 13.3626 62.1738 12.3029 61.42 11.9581L57.4258 10.091C57.2916 10.0297 57.1456 9.9991 56.9981 10.001H52.002C52.002 8.35629 50.6409 6.99714 48.9961 6.99714H45.8126C45.3953 5.83977 44.2941 4.99711 43.002 4.99711H39.5879C38.8125 3.23642 37.0545 1.99902 35.0137 1.99902H11.0137ZM40.0137 6.99702H43.002C43.5733 6.99702 43.9981 7.42969 43.9981 8.00096V17.9951C43.9981 18.5664 43.5733 19.0009 43.002 19.0009H40.0137V18.9989V6.99899V6.99702ZM11.0176 8.00096C9.37288 8.00096 8.01172 9.35239 8.01172 10.9971V14.999C8.01172 16.6437 9.37288 17.9951 11.0176 17.9951H15.0039C16.308 17.9649 16.308 16.024 15.0039 15.9951H11.0176C10.4463 15.9951 10.0137 15.5703 10.0137 14.999V10.9971C10.0137 10.4258 10.4463 10.001 11.0176 10.001H18.9961C19.5674 10.001 20 10.4258 20 10.9971V14.999C20 15.5703 19.5674 15.9951 18.9961 15.9951C17.692 16.0253 17.692 17.9662 18.9961 17.9951C20.6408 17.9951 22.002 16.6437 22.002 14.999V10.9971C22.002 9.35239 20.6408 8.00096 18.9961 8.00096H11.0176ZM24.9981 10.001H33C34.3633 10.0312 34.3633 7.97073 33 8.00096H24.9502C23.6 8.09243 23.6929 10.0341 24.9981 10.001H24.9981ZM24.9981 14.0029H33C34.3632 14.0331 34.3632 11.9726 33 12.0029H24.9502C23.6 12.0943 23.6929 14.036 24.9981 14.0029H24.9981ZM52.002 12.0029H56.7773L58.7637 12.9248L56.7481 14.0029H52.002V12.0029ZM24.9981 15.9951C23.694 16.0253 23.694 17.9662 24.9981 17.9951H33C34.3041 17.9649 34.3041 16.024 33 15.9951H24.9981ZM22.2813 23.999H27.7207L26.2168 29.999H23.7812L22.2813 23.999ZM22.998 57.0029C23.5693 57.0029 24.002 57.4277 24.002 57.999V59.999H9.00195C8.43066 59.999 7.99805 59.5742 7.99805 59.0029V53.001C7.99805 52.4296 8.43066 51.997 9.00195 51.997H24.9981C27.7854 51.997 30.0039 54.2156 30.0039 57.0029V59.999H26.002V57.999C26.002 56.3542 24.6428 55.001 22.998 55.001H10.9502C9.56381 55.0702 9.66732 57.0719 11.002 57.0029H22.998Z" fill="black"/>
</svg>
