<svg width="48" height="48" viewBox="0 0 48 48" fill="none" xmlns="http://www.w3.org/2000/svg">
<path d="M17.0109 16.9375H30.9891C31.805 16.9375 32.4688 16.2738 32.4688 15.4579V13.1282C32.4688 12.9637 32.4112 12.8045 32.3059 12.6781L28.586 8.21428V1.45312C28.586 0.651844 27.9341 0 27.1328 0H20.8672C20.066 0 19.4141 0.651844 19.4141 1.45312V8.21419L15.6942 12.678C15.5889 12.8044 15.5313 12.9637 15.5313 13.1281V15.4578C15.5312 16.2737 16.195 16.9375 17.0109 16.9375ZM30.9891 15.5313H17.0109C16.9704 15.5313 16.9374 15.4983 16.9374 15.4579V13.8313H31.0625V15.4579C31.0625 15.4983 31.0296 15.5313 30.9891 15.5313ZM20.4465 9.17194H27.5536L30.2645 12.4251H17.7355L20.4465 9.17194ZM20.8203 1.45312C20.8203 1.42725 20.8413 1.40625 20.8672 1.40625H27.1327C27.1586 1.40625 27.1796 1.42725 27.1796 1.45312V7.76569H20.8203V1.45312Z" fill="#141414"/>
<path d="M29.4625 35.7217H18.5375C17.7362 35.7217 17.0844 36.3735 17.0844 37.1748V43.4405C17.0844 44.2418 17.7362 44.8936 18.5375 44.8936H29.4624C30.2637 44.8936 30.9156 44.2418 30.9156 43.4405V37.1748C30.9157 36.3735 30.2637 35.7217 29.4625 35.7217ZM29.5094 43.4405C29.5094 43.4664 29.4884 43.4874 29.4625 43.4874H18.5375C18.5116 43.4874 18.4906 43.4664 18.4906 43.4405V37.1748C18.4906 37.1489 18.5116 37.1279 18.5375 37.1279H29.4624C29.4883 37.1279 29.5093 37.1489 29.5093 37.1748V43.4405H29.5094Z" fill="#141414"/>
<path d="M17.7875 30.9155H18.564C18.9523 30.9155 19.2671 30.6007 19.2671 30.2124C19.2671 29.8241 18.9523 29.5093 18.564 29.5093H17.7875C17.3992 29.5093 17.0844 29.8241 17.0844 30.2124C17.0844 30.6007 17.3992 30.9155 17.7875 30.9155Z" fill="#141414"/>
<path d="M23.6117 30.9155H24.3882C24.7765 30.9155 25.0913 30.6007 25.0913 30.2124C25.0913 29.8241 24.7765 29.5093 24.3882 29.5093H23.6117C23.2234 29.5093 22.9086 29.8241 22.9086 30.2124C22.9086 30.6007 23.2234 30.9155 23.6117 30.9155Z" fill="#141414"/>
<path d="M29.4359 30.9155H30.2124C30.6008 30.9155 30.9156 30.6007 30.9156 30.2124C30.9156 29.8241 30.6008 29.5093 30.2124 29.5093H29.4359C29.0476 29.5093 28.7328 29.8241 28.7328 30.2124C28.7328 30.6007 29.0476 30.9155 29.4359 30.9155Z" fill="#141414"/>
<path d="M27.1062 38.8281H20.8937C20.5054 38.8281 20.1906 39.1429 20.1906 39.5312C20.1906 39.9196 20.5054 40.2344 20.8937 40.2344H27.1062C27.4945 40.2344 27.8093 39.9196 27.8093 39.5312C27.8093 39.1428 27.4945 38.8281 27.1062 38.8281Z" fill="#141414"/>
<path d="M8.46871 29.5093H6.91565C6.52734 29.5093 6.21252 29.8241 6.21252 30.2124C6.21252 30.6007 6.52734 30.9155 6.91565 30.9155H8.46881C8.85712 30.9155 9.17193 30.6007 9.17193 30.2124C9.17184 29.8241 8.85712 29.5093 8.46871 29.5093Z" fill="#141414"/>
<path d="M3.10622 38.7549V41.8611C3.10622 42.2494 3.42103 42.5642 3.80934 42.5642C4.19765 42.5642 4.51247 42.2494 4.51247 41.8611V38.7549C4.51247 38.3666 4.19765 38.0518 3.80934 38.0518C3.42103 38.0518 3.10622 38.3666 3.10622 38.7549Z" fill="#141414"/>
<path d="M46.5469 26.403H9.17184V21.6436C9.17184 20.8423 8.52 20.1904 7.71872 20.1904H6.1125C5.31122 20.1904 4.65938 20.8423 4.65938 21.6436V26.403H1.45312C0.651844 26.403 0 27.0548 0 27.8561V33.3186V46.5467C0 47.348 0.651844 47.9999 1.45312 47.9999H6.31247C6.70078 47.9999 7.01559 47.6851 7.01559 47.2967C7.01559 46.9084 6.70078 46.5936 6.31247 46.5936H1.45312C1.42725 46.5936 1.40625 46.5726 1.40625 46.5467V34.0217H13.9781V46.5936H9.09375C8.70544 46.5936 8.39062 46.9084 8.39062 47.2967C8.39062 47.6851 8.70544 47.9999 9.09375 47.9999H46.5469C47.3482 47.9999 48 47.348 48 46.5467V33.3186V27.8561C48 27.0548 47.3482 26.403 46.5469 26.403ZM46.5938 27.8561V32.6155H34.0219V27.8092H46.5469C46.5728 27.8092 46.5938 27.8302 46.5938 27.8561ZM32.6156 32.6155H15.3844V27.8092H32.6156V32.6155ZM6.06562 21.6436C6.06562 21.6178 6.08662 21.5968 6.1125 21.5968H7.71872C7.74459 21.5968 7.76559 21.6178 7.76559 21.6436V26.4031H6.06562V21.6436ZM1.40625 32.6155V27.8561C1.40625 27.8302 1.42725 27.8092 1.45312 27.8092H13.9781V32.6155H1.40625ZM15.3844 34.0217H32.6156V46.5936H15.3844V34.0217ZM46.5938 46.5467C46.5938 46.5726 46.5728 46.5936 46.5469 46.5936H34.0219V34.0217H46.5938V46.5467Z" fill="#141414"/>
<path d="M39.5312 30.9155H41.0843C41.4727 30.9155 41.7875 30.6007 41.7875 30.2124C41.7875 29.8241 41.4727 29.5093 41.0843 29.5093H39.5312C39.1429 29.5093 38.8281 29.8241 38.8281 30.2124C38.8281 30.6007 39.1429 30.9155 39.5312 30.9155Z" fill="#141414"/>
<path d="M36.425 42.5642C36.8133 42.5642 37.1281 42.2494 37.1281 41.8611V38.7549C37.1281 38.3666 36.8133 38.0518 36.425 38.0518C36.0367 38.0518 35.7218 38.3666 35.7218 38.7549V41.8611C35.7218 42.2494 36.0367 42.5642 36.425 42.5642Z" fill="#141414"/>
<path d="M1.45312 12.2782H12.3781C13.1794 12.2782 13.8312 11.6263 13.8312 10.825V1.45312C13.8312 0.651844 13.1794 0 12.3781 0H1.45312C0.651844 0 0 0.651844 0 1.45312V10.825C0 11.6263 0.651844 12.2782 1.45312 12.2782ZM1.40625 1.45312C1.40625 1.42725 1.42725 1.40625 1.45312 1.40625H12.3781C12.404 1.40625 12.425 1.42725 12.425 1.45312V10.825C12.425 10.8509 12.404 10.8719 12.3781 10.8719H1.45312C1.42725 10.8719 1.40625 10.8509 1.40625 10.825V1.45312Z" fill="#141414"/>
<path d="M6.13904 9.17188H7.69219C8.08051 9.17188 8.39532 8.85706 8.39532 8.46875C8.39532 8.08044 8.08051 7.76562 7.69219 7.76562H6.13904C5.75073 7.76562 5.43591 8.08044 5.43591 8.46875C5.43591 8.85706 5.75073 9.17188 6.13904 9.17188Z" fill="#141414"/>
<path d="M46.5469 0H35.6219C34.8206 0 34.1688 0.651844 34.1688 1.45312V3.17972C34.1688 3.56803 34.4836 3.88284 34.8719 3.88284C35.2602 3.88284 35.575 3.56803 35.575 3.17972V1.45312C35.575 1.42725 35.596 1.40625 35.6219 1.40625H46.5469C46.5727 1.40625 46.5937 1.42725 46.5937 1.45312V10.825C46.5937 10.8509 46.5727 10.8719 46.5469 10.8719H35.6219C35.596 10.8719 35.575 10.8509 35.575 10.825V5.99222C35.575 5.60391 35.2602 5.28909 34.8719 5.28909C34.4836 5.28909 34.1688 5.60391 34.1688 5.99222V10.825C34.1688 11.6263 34.8206 12.2782 35.6219 12.2782H46.5469C47.3482 12.2782 48 11.6263 48 10.825V1.45312C48 0.651844 47.3482 0 46.5469 0V0Z" fill="#141414"/>
<path d="M41.861 9.17188C42.2493 9.17188 42.5641 8.85706 42.5641 8.46875C42.5641 8.08044 42.2493 7.76562 41.861 7.76562H40.3078C39.9195 7.76562 39.6047 8.08044 39.6047 8.46875C39.6047 8.85706 39.9195 9.17188 40.3078 9.17188H41.861Z" fill="#141414"/>
<path d="M47.2969 17.0845H34.8719C34.4836 17.0845 34.1688 17.3993 34.1688 17.7876C34.1688 18.1759 34.4836 18.4907 34.8719 18.4907H37.275V20.3035C36.3742 20.5997 35.7218 21.4483 35.7218 22.4469C35.7218 23.6909 36.734 24.7032 37.9781 24.7032C39.2222 24.7032 40.2343 23.691 40.2343 22.4469C40.2343 21.4483 39.5819 20.5996 38.6812 20.3035V18.4907H43.4875V20.3035C42.5868 20.5997 41.9344 21.4483 41.9344 22.4469C41.9344 23.6909 42.9465 24.7032 44.1907 24.7032C45.4347 24.7032 46.4468 23.691 46.4468 22.4469C46.4468 21.4483 45.7944 20.5996 44.8938 20.3035V18.4907H47.2969C47.6852 18.4907 48 18.1759 48 17.7876C48 17.3993 47.6852 17.0845 47.2969 17.0845ZM37.9781 23.297C37.5094 23.297 37.1281 22.9157 37.1281 22.447C37.1281 21.9783 37.5094 21.597 37.9781 21.597C38.4468 21.597 38.8281 21.9783 38.8281 22.447C38.8281 22.9157 38.4468 23.297 37.9781 23.297ZM44.1907 23.297C43.722 23.297 43.3406 22.9157 43.3406 22.447C43.3406 21.9783 43.7219 21.597 44.1907 21.597C44.6593 21.597 45.0406 21.9783 45.0406 22.447C45.0406 22.9157 44.6593 23.297 44.1907 23.297Z" fill="#141414"/>
</svg>
