<svg width="64" height="64" viewBox="0 0 64 64" fill="none" xmlns="http://www.w3.org/2000/svg">
<g clip-path="url(#clip0_855_128)">
<path d="M54.948 49.7173C53.8634 49.7181 52.803 49.3972 51.9009 48.7952C50.9987 48.1933 50.2954 47.3373 49.8798 46.3355C49.4642 45.3338 49.3551 44.2313 49.5662 43.1675C49.7773 42.1037 50.2991 41.1264 51.0657 40.3592C51.8323 39.592 52.8092 39.0695 53.8729 38.8576C54.9365 38.6457 56.0391 38.7541 57.0412 39.1689C58.0432 39.5838 58.8997 40.2865 59.5024 41.1882C60.105 42.0899 60.4266 43.1501 60.4266 44.2346C60.4259 45.6878 59.8486 47.0813 58.8214 48.1093C57.7943 49.1372 56.4012 49.7155 54.948 49.7173ZM54.948 40.752C54.259 40.7512 53.5853 40.9547 53.012 41.3369C52.4388 41.7191 51.9918 42.2628 51.7276 42.8991C51.4634 43.5354 51.3938 44.2358 51.5277 44.9116C51.6617 45.5874 51.993 46.2084 52.4799 46.6958C52.9668 47.1833 53.5874 47.5154 54.2631 47.6501C54.9387 47.7848 55.6392 47.716 56.2758 47.4526C56.9124 47.1891 57.4566 46.7427 57.8394 46.1699C58.2223 45.5971 58.4266 44.9236 58.4266 44.2346C58.4263 43.3118 58.0598 42.4267 57.4076 41.7738C56.7554 41.1209 55.8708 40.7534 54.948 40.752Z" fill="#141414"/>
<path d="M26.056 49.7173C24.9714 49.7183 23.9109 49.3977 23.0085 48.7959C22.1062 48.1941 21.4027 47.3382 20.9869 46.3364C20.5711 45.3347 20.4617 44.2322 20.6727 43.1683C20.8836 42.1044 21.4054 41.127 22.1719 40.3597C22.9385 39.5924 23.9154 39.0697 24.9791 38.8577C26.0428 38.6457 27.1454 38.754 28.1476 39.1688C29.1497 39.5836 30.0063 40.2863 30.609 41.1881C31.2116 42.0898 31.5333 43.15 31.5333 44.2346C31.5323 45.6875 30.955 47.0806 29.9282 48.1084C28.9014 49.1362 27.5088 49.7148 26.056 49.7173ZM26.056 40.752C25.367 40.7509 24.6931 40.9543 24.1197 41.3363C23.5463 41.7183 23.099 42.2619 22.8346 42.8982C22.5702 43.5344 22.5005 44.2349 22.6343 44.9108C22.768 45.5867 23.0993 46.2078 23.5862 46.6953C24.073 47.1829 24.6935 47.5152 25.3693 47.65C26.045 47.7848 26.7455 47.7161 27.3822 47.4527C28.0189 47.1893 28.5631 46.7429 28.946 46.17C29.3289 45.5972 29.5333 44.9237 29.5333 44.2346C29.5326 43.3121 29.1662 42.4275 28.5144 41.7747C27.8626 41.1218 26.9785 40.7541 26.056 40.752Z" fill="#141414"/>
<path d="M62.1614 45.2346H59.4267C59.1615 45.2346 58.9071 45.1292 58.7196 44.9417C58.532 44.7542 58.4267 44.4998 58.4267 44.2346C58.4267 43.9694 58.532 43.715 58.7196 43.5275C58.9071 43.34 59.1615 43.2346 59.4267 43.2346H61.8787V37.9319C61.878 37.215 61.6945 36.5101 61.3454 35.8839L55.932 26.1786C55.8858 26.0958 55.8183 26.0268 55.7365 25.9787C55.6547 25.9307 55.5615 25.9053 55.4667 25.9053H48.0894V43.2386H50.4707C50.7359 43.2386 50.9903 43.344 51.1778 43.5315C51.3653 43.719 51.4707 43.9734 51.4707 44.2386C51.4707 44.5038 51.3653 44.7582 51.1778 44.9457C50.9903 45.1332 50.7359 45.2386 50.4707 45.2386H47.0894C46.8241 45.2386 46.5698 45.1332 46.3822 44.9457C46.1947 44.7582 46.0894 44.5038 46.0894 44.2386V24.9053C46.0894 24.6401 46.1947 24.3857 46.3822 24.1982C46.5698 24.0106 46.8241 23.9053 47.0894 23.9053H55.4667C55.9178 23.9051 56.3609 24.0253 56.75 24.2536C57.1391 24.4819 57.4601 24.81 57.68 25.2039L63.092 34.9106C63.6065 35.8345 63.8768 36.8744 63.8774 37.9319V43.5186C63.8767 43.9735 63.6956 44.4096 63.374 44.7312C63.0523 45.0529 62.6162 45.2339 62.1614 45.2346Z" fill="#141414"/>
<path d="M21.5774 45.2346H11.9894C11.7242 45.2346 11.4698 45.1293 11.2823 44.9417C11.0947 44.7542 10.9894 44.4998 10.9894 44.2346V36.5439C10.9894 36.2787 11.0947 36.0244 11.2823 35.8368C11.4698 35.6493 11.7242 35.5439 11.9894 35.5439C12.2546 35.5439 12.509 35.6493 12.6965 35.8368C12.884 36.0244 12.9894 36.2787 12.9894 36.5439V43.2346H21.5774C21.8426 43.2346 22.097 43.34 22.2845 43.5275C22.472 43.715 22.5774 43.9694 22.5774 44.2346C22.5774 44.4998 22.472 44.7542 22.2845 44.9417C22.097 45.1293 21.8426 45.2346 21.5774 45.2346Z" fill="#141414"/>
<path d="M11.9894 32.9959C11.7242 32.9959 11.4698 32.8906 11.2823 32.703C11.0947 32.5155 10.9894 32.2611 10.9894 31.9959V25.2813C10.9894 25.016 11.0947 24.7617 11.2823 24.5741C11.4698 24.3866 11.7242 24.2812 11.9894 24.2812C12.2546 24.2812 12.509 24.3866 12.6965 24.5741C12.884 24.7617 12.9894 25.016 12.9894 25.2813V31.9999C12.9883 32.2644 12.8825 32.5178 12.6951 32.7044C12.5077 32.8911 12.2539 32.9959 11.9894 32.9959Z" fill="#141414"/>
<path d="M47.0894 45.2346H30.5334C30.2682 45.2346 30.0138 45.1292 29.8263 44.9417C29.6387 44.7541 29.5334 44.4998 29.5334 44.2346C29.5334 43.9694 29.6387 43.715 29.8263 43.5275C30.0138 43.3399 30.2682 43.2346 30.5334 43.2346H46.0894V17.0732H12.9894V21.1919C12.9894 21.4571 12.884 21.7115 12.6965 21.899C12.509 22.0866 12.2546 22.1919 11.9894 22.1919C11.7242 22.1919 11.4698 22.0866 11.2823 21.899C11.0947 21.7115 10.9894 21.4571 10.9894 21.1919V16.8892C10.9901 16.4076 11.1818 15.9459 11.5225 15.6054C11.8632 15.265 12.3251 15.0736 12.8067 15.0732H46.2734C46.7548 15.0739 47.2163 15.2655 47.5567 15.6059C47.8971 15.9463 48.0887 16.4078 48.0894 16.8892V44.2346C48.0894 44.4998 47.984 44.7541 47.7965 44.9417C47.609 45.1292 47.3546 45.2346 47.0894 45.2346Z" fill="#141414"/>
<path d="M15.9426 37.5439H3.25061C2.98539 37.5439 2.73104 37.4386 2.5435 37.2511C2.35597 37.0635 2.25061 36.8092 2.25061 36.5439C2.25061 36.2787 2.35597 36.0244 2.5435 35.8368C2.73104 35.6493 2.98539 35.5439 3.25061 35.5439H15.9426C16.2078 35.5439 16.4622 35.6493 16.6497 35.8368C16.8373 36.0244 16.9426 36.2787 16.9426 36.5439C16.9426 36.8092 16.8373 37.0635 16.6497 37.2511C16.4622 37.4386 16.2078 37.5439 15.9426 37.5439Z" fill="#141414"/>
<path d="M26.056 32.9961H8.34534C8.08012 32.9961 7.82577 32.8907 7.63823 32.7032C7.45069 32.5157 7.34534 32.2613 7.34534 31.9961C7.34534 31.7309 7.45069 31.4765 7.63823 31.289C7.82577 31.1014 8.08012 30.9961 8.34534 30.9961H26.056C26.3212 30.9961 26.5756 31.1014 26.7631 31.289C26.9506 31.4765 27.056 31.7309 27.056 31.9961C27.056 32.2613 26.9506 32.5157 26.7631 32.7032C26.5756 32.8907 26.3212 32.9961 26.056 32.9961Z" fill="black"/>
<path d="M7.79466 27.7158H0.878662C0.613446 27.7158 0.359092 27.6105 0.171555 27.4229C-0.0159811 27.2354 -0.121338 26.981 -0.121338 26.7158C-0.121338 26.4506 -0.0159811 26.1962 0.171555 26.0087C0.359092 25.8212 0.613446 25.7158 0.878662 25.7158H7.79466C8.05988 25.7158 8.31423 25.8212 8.50177 26.0087C8.68931 26.1962 8.79466 26.4506 8.79466 26.7158C8.79466 26.981 8.68931 27.2354 8.50177 27.4229C8.31423 27.6105 8.05988 27.7158 7.79466 27.7158Z" fill="black"/>
<path d="M18.884 22.1919H6.67603C6.41081 22.1919 6.15645 22.0865 5.96892 21.899C5.78138 21.7115 5.67603 21.4571 5.67603 21.1919C5.67603 20.9267 5.78138 20.6723 5.96892 20.4848C6.15645 20.2973 6.41081 20.1919 6.67603 20.1919H18.884C19.1492 20.1919 19.4036 20.2973 19.5911 20.4848C19.7787 20.6723 19.884 20.9267 19.884 21.1919C19.884 21.4571 19.7787 21.7115 19.5911 21.899C19.4036 22.0865 19.1492 22.1919 18.884 22.1919Z" fill="black"/>
</g>
<defs>
<clipPath id="clip0_855_128">
<rect width="64" height="64" fill="white"/>
</clipPath>
</defs>
</svg>
