<svg width="64" height="64" viewBox="0 0 64 64" fill="none" xmlns="http://www.w3.org/2000/svg">
<g clip-path="url(#clip0_855_535)">
<path d="M62.2184 33.3246H61.0299V31.8973C61.0299 30.6374 60.0049 29.6123 58.7449 29.6123H35.7485C34.4886 29.6123 33.4635 30.6374 33.4635 31.8973V33.3246H17.2922C16.7756 33.3246 16.3567 33.7434 16.3567 34.2601C16.3567 34.7767 16.7756 35.1956 17.2922 35.1956H62.0612V37.2288H1.93866V35.1956H13.5502C14.0668 35.1956 14.4857 34.7767 14.4857 34.2601C14.4857 33.7434 14.0668 33.3246 13.5502 33.3246H1.78162C0.83662 33.3246 0.067749 34.0934 0.067749 35.0384V61.4904C0.067749 62.8743 1.19361 64.0002 2.57756 64.0002H61.4226C62.8065 64.0002 63.9324 62.8743 63.9324 61.4904V35.0384C63.9323 34.0934 63.1634 33.3246 62.2184 33.3246ZM35.3345 31.8973C35.3345 31.6691 35.5202 31.4833 35.7485 31.4833H58.7449C58.9732 31.4833 59.1589 31.6691 59.1589 31.8973V33.3246H35.3345V31.8973ZM32.2452 39.0998V62.1291H18.3228V39.0998H32.2452ZM1.93866 61.4904V39.0998H16.4517V62.1291H2.57756C2.2253 62.1291 1.93866 61.8426 1.93866 61.4904ZM61.4225 62.1291H34.1162V39.0998H62.0612V61.4904C62.0614 61.8426 61.7747 62.1291 61.4225 62.1291Z" fill="#141414"/>
<path d="M1.78162 20.8272H27.1678C28.1128 20.8272 28.8817 20.0583 28.8817 19.1133V2.047C28.8817 1.10188 28.1128 0.333008 27.1678 0.333008H1.78162C0.83662 0.333008 0.067749 1.10188 0.067749 2.047V19.1132C0.067749 20.0583 0.83662 20.8272 1.78162 20.8272ZM27.0105 18.9562H15.4101V2.20417H27.0105V18.9562ZM1.93866 2.20417H13.5391V18.9562H1.93866V2.20417Z" fill="#141414"/>
<path d="M33.8051 20.827H47.5413C48.0579 20.827 48.4768 20.4081 48.4768 19.8915C48.4768 19.3748 48.0579 18.956 47.5413 18.956H33.9623V16.5486H59.1589V18.956H51.2833C50.7667 18.956 50.3478 19.3748 50.3478 19.8915C50.3478 20.4081 50.7667 20.827 51.2833 20.827H59.3161C60.2611 20.827 61.0299 20.0581 61.0299 19.1131V16.3915C61.0299 15.4786 60.3118 14.7322 59.4111 14.6824L54.7788 5.82353L54.575 0.896849C54.5543 0.395662 54.1419 0 53.6403 0H39.6533C39.4025 0 39.1621 0.100786 38.9864 0.279533C38.8105 0.458404 38.7137 0.700266 38.718 0.951109L38.7997 5.84886L34.1831 14.6774H33.8051C32.8601 14.6774 32.0912 15.4463 32.0912 16.3914V19.113C32.0912 20.0581 32.8601 20.827 33.8051 20.827ZM52.7427 1.87103L52.8777 5.13587H40.6591L40.6046 1.87103H52.7427ZM40.3056 7.0069H53.2862L57.2972 14.6775H36.2945L40.3056 7.0069Z" fill="#141414"/>
<path d="M29.351 45.6023C29.8677 45.6023 30.2866 45.1834 30.2866 44.6668V42.4814C30.2866 41.9648 29.8677 41.5459 29.351 41.5459C28.8344 41.5459 28.4155 41.9648 28.4155 42.4814V44.6668C28.4155 45.1834 28.8344 45.6023 29.351 45.6023Z" fill="#141414"/>
<path d="M59.1917 41.5464C58.675 41.5464 58.2562 41.9652 58.2562 42.4819V44.6673C58.2562 45.1839 58.675 45.6028 59.1917 45.6028C59.7083 45.6028 60.1272 45.1839 60.1272 44.6673V42.4819C60.1272 41.9652 59.7083 41.5464 59.1917 41.5464Z" fill="#141414"/>
<path d="M13.6974 41.5464C13.1807 41.5464 12.7618 41.9652 12.7618 42.4819V44.6673C12.7618 45.1839 13.1807 45.6028 13.6974 45.6028C14.214 45.6028 14.6329 45.1839 14.6329 44.6673V42.4819C14.6329 41.9652 14.214 41.5464 13.6974 41.5464Z" fill="#141414"/>
<path d="M10.7882 12.4922C10.2715 12.4922 9.85266 12.911 9.85266 13.4277V15.6129C9.85266 16.1296 10.2715 16.5485 10.7882 16.5485C11.3048 16.5485 11.7237 16.1296 11.7237 15.6129V13.4277C11.7237 12.911 11.3048 12.4922 10.7882 12.4922Z" fill="#141414"/>
<path d="M18.0584 16.5485C18.575 16.5485 18.9939 16.1296 18.9939 15.6129V13.4277C18.9939 12.911 18.575 12.4922 18.0584 12.4922C17.5417 12.4922 17.1229 12.911 17.1229 13.4277V15.6129C17.1229 16.1296 17.5417 16.5485 18.0584 16.5485Z" fill="black"/>
</g>
<defs>
<clipPath id="clip0_855_535">
<rect width="64" height="64" fill="white"/>
</clipPath>
</defs>
</svg>
