<svg width="64" height="64" viewBox="0 0 64 64" fill="none" xmlns="http://www.w3.org/2000/svg">
<g clip-path="url(#clip0_855_565)">
<path d="M46.9208 46.6392H45.044V58.0253C45.044 59.5973 45.6586 61.0277 46.6588 62.0917H9.69696V63.9686H50.9873C54.2644 63.9686 56.9306 61.3024 56.9306 58.0253V49.5795H46.9208V46.6392ZM55.0538 51.4564V58.0253C55.0538 60.2676 53.2295 62.0917 50.9873 62.0917C48.7451 62.0917 46.9208 60.2676 46.9208 58.0253V51.4564H55.0538Z" fill="#141414"/>
<path d="M1.98732 58.9637H34.7214V57.0868H1.87683V26.4766H0V58.0252C0 61.3023 2.66623 63.9686 5.9433 63.9686H7.82014V62.0917H5.9433C4.02406 62.0917 2.41223 60.7548 1.98732 58.9637Z" fill="#141414"/>
<path d="M1.87683 1.90808H18.5985V0.03125H0V24.5999H1.87683V1.90808Z" fill="#141414"/>
<path d="M45.044 16.4848H46.9208V0.03125H20.4753V1.90808H45.044V16.4848Z" fill="#141414"/>
<path d="M27.8397 10.041H34.0958V11.9178H27.8397V10.041Z" fill="#141414"/>
<path d="M6.56891 10.041H12.825V11.9178H6.56891V10.041Z" fill="#141414"/>
<path d="M35.9727 10.041H40.3519V11.9178H35.9727V10.041Z" fill="#141414"/>
<path d="M14.7018 10.041H25.9628V11.9178H14.7018V10.041Z" fill="black"/>
<path d="M6.56891 16.2974H10.9482V18.1742H6.56891V16.2974Z" fill="black"/>
<path d="M20.9579 16.2974H32.2189V18.1742H20.9579V16.2974Z" fill="black"/>
<path d="M34.0958 16.2974H40.3519V18.1742H34.0958V16.2974Z" fill="black"/>
<path d="M12.825 16.2974H19.0811V18.1742H12.825V16.2974Z" fill="black"/>
<path d="M6.56891 22.5532H14.0762V24.4301H6.56891V22.5532Z" fill="black"/>
<path d="M15.9531 22.5532H20.3323V24.4301H15.9531V22.5532Z" fill="black"/>
<path d="M6.56891 28.8096H10.9482V30.6864H6.56891V28.8096Z" fill="black"/>
<path d="M12.825 28.8096H20.3323V30.6864H12.825V28.8096Z" fill="black"/>
<path d="M6.56891 35.0654H14.0762V36.9423H6.56891V35.0654Z" fill="black"/>
<path d="M15.9531 35.0654H20.3323V36.9423H15.9531V35.0654Z" fill="black"/>
<path d="M12.825 41.3218H20.3323V43.1986H12.825V41.3218Z" fill="black"/>
<path d="M6.56891 41.3218H10.9482V43.1986H6.56891V41.3218Z" fill="black"/>
<path d="M6.56891 47.5776H14.827V49.4545H6.56891V47.5776Z" fill="black"/>
<path d="M56.8514 39.5337H64V41.4105H56.8514V39.5337Z" fill="black"/>
<path d="M51.4799 26.2707L49.9167 25.5496L54.9895 20.4768C55.5213 19.945 55.8141 19.2381 55.8141 18.4861C55.8141 17.7341 55.5212 17.0272 54.9895 16.4954L54.1048 15.6107C53.0072 14.5132 51.2211 14.5132 50.1235 15.6107L43.3953 22.3389L32.4335 22.0102L24.8904 25.576L23.5515 35.0826L24.3177 41.4165L23.7842 41.95L21.3512 49.2493L28.6503 46.8163L29.6683 45.7984C30.3839 46.4847 31.3533 46.9077 32.4203 46.9077C32.4783 46.9077 32.5366 46.9065 32.5947 46.904L38.2847 46.6604L44.7532 44.8492L50.8933 41.4108H54.9748V39.5339H50.4036L44.0315 43.1023L37.9877 44.7946L32.5137 45.0289C31.3112 45.0802 30.3161 44.1168 30.3161 42.9235C30.3161 42.3734 30.527 41.8524 30.9103 41.4567C31.2933 41.061 31.8069 40.8336 32.3566 40.8159L37.4385 40.6549L40.9598 39.3872L44.3933 35.0171L42.4215 33.0453L48.5025 26.9643L51.068 28.1477H64V26.2708H51.4799V26.2707ZM51.4506 16.9379C51.8166 16.5721 52.4119 16.572 52.7776 16.9379L53.6624 17.8226C53.8397 17.9998 53.9373 18.2355 53.9373 18.4861C53.9373 18.7367 53.8397 18.9725 53.6624 19.1496L52.114 20.698L49.9022 18.4862L51.4506 16.9379ZM27.6363 45.1757L24.3185 46.2818L25.3227 43.2689L25.3505 43.2696C25.408 43.2709 25.4672 43.2722 25.5248 43.2722C26.6092 43.2722 27.6257 42.9422 28.4767 42.3768C28.452 42.5566 28.4389 42.7389 28.4389 42.9231C28.4389 43.3592 28.5102 43.7787 28.6402 44.1717L27.6363 45.1757ZM29.1965 35.4658L29.0009 38.1606C28.8856 39.7453 27.7057 41.0301 26.1977 41.3294L25.4442 35.1011L26.6077 26.8403L32.828 23.8998L41.5723 24.162L37.0918 28.6425L30.3362 29.7684L29.1965 35.4658ZM34.8083 30.9258L31.3209 34.4132L31.9223 31.4066L34.8083 30.9258ZM39.8167 37.8036L37.0819 38.7881L36.6652 38.8013L41.0942 34.3723L41.8886 35.1668L39.8167 37.8036ZM33.9238 38.8882L32.2965 38.9398C31.7321 38.9579 31.1883 39.0937 30.6928 39.333C30.7853 38.9995 30.8467 38.6531 30.8726 38.2966L30.9338 37.4545L48.575 19.8133L50.7868 22.0251L33.9238 38.8882Z" fill="black"/>
<path d="M36.7234 57.0869H38.6002V58.9637H36.7234V57.0869Z" fill="black"/>
<path d="M40.4771 57.0869H42.3539V58.9637H40.4771V57.0869Z" fill="black"/>
<path d="M16.7038 47.5776H18.5806V49.4545H16.7038V47.5776Z" fill="black"/>
</g>
<defs>
<clipPath id="clip0_855_565">
<rect width="64" height="64" fill="white"/>
</clipPath>
</defs>
</svg>
