<svg width="64" height="64" viewBox="0 0 64 64" fill="none" xmlns="http://www.w3.org/2000/svg">
<g clip-path="url(#clip0_855_188)">
<path d="M1.21238 32.1811L6.313 34.1933C6.987 34.4591 7.72187 34.3187 8.24749 33.8782L12.2867 36.4256L12.9795 36.9126C12.1007 38.3033 12.3259 40.2038 13.662 41.3367C14.3961 41.9592 15.329 42.2248 16.2421 42.1253C16.2957 43.0852 16.7322 43.94 17.4426 44.5422C18.1407 45.1342 19.0521 45.4373 20.0226 45.3314C20.0766 46.2909 20.5128 47.1455 21.2232 47.7478C21.9278 48.3453 22.841 48.642 23.8048 48.5369C23.8552 49.4408 24.2606 50.3232 25.0038 50.9534C26.4396 52.171 28.5995 51.9944 29.8168 50.5588L30.6273 49.6074L31.9932 50.6154C34.3547 52.3585 37.6924 50.9305 38.0003 48.0332C40.4351 48.9179 43.0203 47.2115 43.0578 44.591C45.3528 45.0225 47.3893 43.3557 47.5172 41.1447C50.494 41.9398 53.1867 38.9316 51.8722 35.9901L55.5222 33.6457C56.0448 34.2648 56.9133 34.4987 57.6876 34.1932L62.7883 32.1811C63.77 31.7938 64.2539 30.6799 63.8665 29.6979L61.5353 23.7887C61.3453 23.307 60.8006 23.0707 60.3191 23.2607C59.8374 23.4507 59.601 23.9952 59.791 24.4768L62.1221 30.3859C62.1301 30.4061 62.1203 30.4289 62.1001 30.4369L56.9995 32.4491C56.9793 32.4569 56.9566 32.4472 56.9486 32.4271C56.77 31.9743 51.0449 17.4618 50.5387 16.1786C50.5368 16.1741 50.5327 16.1636 50.5392 16.1487C50.5457 16.1338 50.5563 16.1297 50.5607 16.1278L55.6614 14.1156C55.6658 14.1137 55.6762 14.1096 55.6914 14.1161C55.7062 14.1226 55.7103 14.1331 55.7121 14.1376L58.1835 20.4018C58.3736 20.8836 58.9181 21.1198 59.3996 20.9298C59.8814 20.7398 60.1178 20.1953 59.9278 19.7137L57.4564 13.4496C57.0693 12.4679 55.9553 11.9841 54.9735 12.3715L49.8727 14.3837C48.9613 14.7432 48.4802 15.7212 48.7247 16.6483L45.9903 17.6576C45.1394 17.9717 44.2157 18.0628 43.3192 17.9207L40.5552 17.4826C40.0439 17.4017 39.5634 17.7506 39.4826 18.2617C39.4016 18.7731 39.7503 19.2535 40.2617 19.3345L43.0257 19.7726C44.2385 19.9647 45.488 19.8416 46.6397 19.4165L49.3988 18.398C49.6983 19.1572 54.4244 31.1369 54.7345 31.9231L50.7115 34.5069L50.6433 34.4566C50.643 34.4563 50.6427 34.4561 50.6424 34.4559C50.2114 34.1378 43.2163 28.9756 42.8881 28.7332C42.687 28.5848 42.4373 28.5182 42.1501 28.5669C38.2663 29.2273 34.7867 27.8463 32.2268 25.1735C31.4303 24.3418 30.1308 24.2972 29.268 25.072C26.7846 27.3023 23.3142 29.4772 20.8861 27.1696C20.6448 26.9405 20.6431 26.5172 21.0095 26.2807C24.1025 24.2911 27.3066 21.4975 29.8851 18.889C30.5268 18.2396 31.4498 17.9377 32.3557 18.0813L35.9143 18.6455C36.4267 18.7266 36.9059 18.3776 36.9869 17.8663C37.0679 17.355 36.7192 16.8746 36.2078 16.7936L32.6492 16.2295C31.1487 15.9917 29.6171 16.4932 28.5517 17.571C28.2535 17.8726 27.9007 18.2228 27.503 18.607C26.3025 18.1813 25.0512 17.9271 23.7785 17.8556C20.053 17.6463 19.7298 17.6068 18.8838 17.6612C18.2198 17.7036 17.5443 17.5907 16.93 17.3337L15.2777 16.6423C15.5162 15.7206 15.0359 14.7415 14.1281 14.3835L9.02749 12.3715C8.04537 11.984 6.93162 12.4677 6.54437 13.4496L0.13426 29.6979C-0.253864 30.6819 0.22801 31.7928 1.21238 32.1811ZM17.0464 39.7277C16.497 40.3757 15.5229 40.456 14.8746 39.9066C14.2221 39.3533 14.1481 38.3808 14.6945 37.7364L17.0133 35.0147C17.5497 34.3818 18.5265 34.2776 19.1851 34.8358C19.8346 35.3864 19.9148 36.3579 19.3638 37.0076C19.3636 37.0078 19.3635 37.0081 19.3632 37.0083L17.0464 39.7277ZM20.8268 42.9334C20.2762 43.5828 19.3051 43.663 18.6552 43.1122C18.0027 42.5589 17.9287 41.5864 18.4751 40.942L20.794 38.2203C21.3698 37.5408 22.4372 37.4814 23.0798 38.1487C23.0841 38.1531 23.0877 38.1579 23.092 38.1624C23.6212 38.7253 23.6557 39.6103 23.1445 40.2133L20.8268 42.9334ZM24.6075 46.1389C24.0548 46.7908 23.0827 46.8662 22.4358 46.3177C21.7833 45.7645 21.7092 44.792 22.2556 44.1477L24.5746 41.4258C25.1255 40.7763 26.1032 40.7013 26.7463 41.247C27.3943 41.7967 27.4745 42.7708 26.9251 43.4188C26.9248 43.419 26.9247 43.4193 26.9245 43.4195L24.6075 46.1389ZM30.7183 46.6079C30.7144 46.6127 30.7111 46.6179 30.7071 46.6225C30.3331 47.0615 29.3025 48.2712 28.3881 49.3444C27.8387 49.9925 26.8646 50.0727 26.2165 49.5233C25.5683 48.9738 25.4882 47.9997 26.0362 47.3533L28.3552 44.6314C28.9077 43.9797 29.8807 43.9045 30.5268 44.4527C31.1626 44.9914 31.2599 45.9529 30.7183 46.6079ZM14.604 18.3933L16.2061 19.0637C17.0854 19.4316 18.0528 19.5937 19.0037 19.5326C19.7207 19.4865 19.9601 19.5192 23.673 19.7278C24.4353 19.7707 25.1891 19.8887 25.9252 20.0802C24.0908 21.7367 22.0308 23.3971 19.9675 24.7221C18.6446 25.5713 18.4486 27.4403 19.5945 28.5293C21.1606 30.0174 24.663 31.7282 30.5207 26.4673C30.6257 26.3731 30.7802 26.3743 30.8723 26.4707C33.7098 29.4324 37.7318 31.0868 42.0752 30.4764C42.5673 30.8223 41.6144 30.1241 49.5287 35.9649H49.5288C50.3758 36.5899 50.6127 37.8192 49.9495 38.6676C49.3197 39.4734 48.1815 39.6295 47.3592 39.0224C46.2482 38.2024 47.0684 38.8265 43.1628 35.8172C42.7523 35.5011 42.1639 35.5774 41.8478 35.9876C41.5319 36.3977 41.6082 36.9863 42.0182 37.3024L45.2585 39.7992C45.8168 40.5347 45.7503 41.5975 45.0894 42.2568C44.4397 42.9052 43.3702 42.9664 42.6015 42.3994C41.8584 41.851 42.4758 42.3209 39.0676 39.6969C38.6573 39.3809 38.0686 39.4577 37.7528 39.8679C37.4369 40.2782 37.5134 40.8668 37.9237 41.1827L40.7969 43.3948C41.3396 44.0967 41.3129 45.1062 40.7204 45.7779C40.0829 46.5007 38.9534 46.6013 38.1487 46.0073C36.8556 45.053 37.5046 45.5458 35.0143 43.6184C34.6048 43.3015 34.0161 43.3765 33.6991 43.786C33.3822 44.1955 33.4572 44.7843 33.8667 45.1012L35.8586 46.6428C36.3117 47.3639 36.2229 48.3084 35.6271 48.9317C34.9767 49.612 33.8931 49.6874 33.1063 49.1068L31.8461 48.1768L32.1356 47.8369C32.7128 47.1564 33.0108 46.275 32.9346 45.3477C32.8571 44.4083 32.4107 43.592 31.7393 43.0225C31.0409 42.4304 30.1288 42.127 29.1586 42.2323C29.1076 41.3265 28.6922 40.4392 27.9587 39.8169C27.263 39.2271 26.3797 38.9436 25.4693 39.0179C25.439 39.0204 25.4086 39.0233 25.3785 39.0267C25.3767 38.9967 25.3757 38.9667 25.3732 38.9366C25.3136 38.2117 25.0311 37.5403 24.5667 36.9987C24.5638 36.9953 24.5612 36.9919 24.5583 36.9886C23.8196 36.1339 22.7198 35.7022 21.599 35.8227C21.5462 34.8813 21.1195 34.0181 20.3975 33.4058C18.9606 32.1877 16.801 32.3654 15.5844 33.8004L14.1715 35.4588L13.3456 34.8783C13.3329 34.8693 13.3199 34.8606 13.3066 34.8523L9.14587 32.2282C12.2915 24.2548 11.1132 27.2415 14.604 18.3933ZM1.87838 30.3862L8.28837 14.1379C8.29449 14.1224 8.30924 14.113 8.32487 14.113C8.32962 14.113 8.33449 14.1139 8.33924 14.1157L13.4399 16.128C13.46 16.1358 13.4699 16.1587 13.462 16.1787C13.1536 16.9605 7.25362 31.9158 7.05187 32.4272C7.04362 32.4476 7.02162 32.4572 7.00112 32.4492L1.90051 30.4369C1.88026 30.4289 1.87026 30.4063 1.87838 30.3862Z" fill="#141414"/>
</g>
<defs>
<clipPath id="clip0_855_188">
<rect width="64" height="64" fill="white"/>
</clipPath>
</defs>
</svg>
