<svg width="25" height="24" viewBox="0 0 25 24" fill="none" xmlns="http://www.w3.org/2000/svg">
<path d="M8.08972 6.43729H15.7163C15.8693 6.43729 15.9935 6.31126 15.9935 6.15605C15.9935 6.00085 15.8693 5.87482 15.7163 5.87482H8.08972C7.93673 5.87482 7.8125 6.00085 7.8125 6.15605C7.8125 6.3116 7.93656 6.43729 8.08972 6.43729Z" fill="#7A7A7A"/>
<path d="M3.89441 7.69685H6.45082C6.60381 7.69685 6.72804 7.57082 6.72804 7.41562V4.89744C6.72804 4.74224 6.60381 4.61621 6.45082 4.61621H3.89441C3.74142 4.61621 3.61719 4.74224 3.61719 4.89744V7.41593C3.61719 7.57113 3.74142 7.69682 3.89441 7.69682V7.69685ZM4.17163 5.17868H6.17358V7.13472H4.17163V5.17868Z" fill="#7A7A7A"/>
<path d="M3.89441 12.0944H6.45082C6.60381 12.0944 6.72804 11.9684 6.72804 11.8132V9.295C6.72804 9.13979 6.60381 9.01376 6.45082 9.01376H3.89441C3.74142 9.01376 3.61719 9.13979 3.61719 9.295V11.8132C3.61719 11.9689 3.74142 12.0944 3.89441 12.0944ZM4.17163 9.57641H6.17358V11.5321L4.17163 11.5319V9.57641Z" fill="#7A7A7A"/>
<path d="M3.89441 16.4924H6.45082C6.60381 16.4924 6.72804 16.3664 6.72804 16.2112V13.6927C6.72804 13.5375 6.60381 13.4114 6.45082 13.4114H3.89441C3.74142 13.4114 3.61719 13.5375 3.61719 13.6927V16.2112C3.61719 16.3664 3.74142 16.4924 3.89441 16.4924ZM4.17163 13.9739H6.17358V15.9299H4.17163V13.9739Z" fill="#7A7A7A"/>
<path d="M3.89441 20.8899H6.45082C6.60381 20.8899 6.72804 20.7639 6.72804 20.6087V18.0902C6.72804 17.935 6.60381 17.809 6.45082 17.809H3.89441C3.74142 17.809 3.61719 17.935 3.61719 18.0902V20.6087C3.61719 20.7641 3.74142 20.8899 3.89441 20.8899ZM4.17163 18.3716H6.17358V20.3276L4.17163 20.3275V18.3716Z" fill="#7A7A7A"/>
<path d="M5.51199 5.56538L4.93423 6.15115L4.83671 6.05223C4.72848 5.94243 4.5532 5.94243 4.44446 6.05223C4.33622 6.16203 4.33622 6.33985 4.44446 6.44965L4.73801 6.7478C4.79196 6.80253 4.86292 6.83033 4.93389 6.83033C5.00485 6.83033 5.07581 6.80288 5.12976 6.7478L5.90339 5.96297C6.01163 5.85317 6.01163 5.675 5.90339 5.56503C5.79584 5.4554 5.62022 5.4554 5.51199 5.56537L5.51199 5.56538Z" fill="#7A7A7A"/>
<path d="M24.1521 3.93951L22.1578 2.58618C21.81 2.35069 21.3038 2.45342 21.0717 2.80474L19.816 4.70933L19.1118 5.77729L19.112 1.12873C19.112 0.50618 18.6144 0 18.0031 0H1.60904C0.997599 0 0.50017 0.50618 0.50017 1.12873L0.5 22.8751C0.5 23.4954 0.997603 24 1.60887 24H18.0025C18.6139 24 19.1114 23.4952 19.1114 22.8751L19.1115 13.0122L23.1115 6.94629L24.3673 5.04204C24.6087 4.67587 24.5113 4.18325 24.1521 3.93951ZM5.53315 2.06236C5.64359 3.10027 6.51202 3.91118 7.56403 3.91118L12.0491 3.91101C13.1008 3.91101 13.969 3.10027 14.0794 2.06219H17.0783V8.86046L15.9865 10.5165C15.9351 10.1415 16.0394 10.2727 8.09026 10.2727C7.93727 10.2727 7.81304 10.3987 7.81304 10.5539C7.81304 10.7091 7.93727 10.8352 8.09026 10.8352C8.17568 10.8352 15.7033 10.8431 15.7856 10.8208L13.2485 14.6699H8.08947C7.93648 14.6699 7.81225 14.7959 7.81225 14.9511C7.81225 15.1063 7.93648 15.2323 8.08947 15.2323H12.8777L12.4814 15.8331C12.4814 15.8331 12.4811 15.835 12.4802 15.8357C12.478 15.8392 12.4776 15.8432 12.4758 15.8466C12.455 15.8818 12.444 15.9205 12.4399 15.9606C12.4392 15.9663 12.4351 15.9711 12.4348 15.9766L12.3007 19.0681H8.09082C7.93783 19.0681 7.8136 19.1941 7.8136 19.3493C7.8136 19.5045 7.93783 19.6306 8.09082 19.6306H15.7174C15.8704 19.6306 15.9946 19.5045 15.9946 19.3493C15.9946 19.1941 15.8704 19.0681 15.7174 19.0681H13.7574L15.6638 18.1681C15.6657 18.1674 15.6667 18.1652 15.6685 18.164C15.7 18.1483 15.725 18.1224 15.7492 18.0949C15.757 18.086 15.7684 18.0811 15.7751 18.0713L15.7769 18.0694L17.0788 16.095V21.9373H2.53365V2.06228L5.53315 2.06236ZM13.5378 1.77923L13.5375 1.78113L13.5378 1.78303V1.83845C13.5378 2.67128 12.8699 3.34855 12.0493 3.34855H7.56381C6.74287 3.34855 6.07527 2.67093 6.07527 1.83845V0.562634H13.538L13.5378 1.77923ZM12.9667 16.501L14.9825 17.869L12.8641 18.8695L12.9667 16.501ZM13.0961 15.912L20.1227 5.25624L21.0789 5.9054L14.0527 16.5611L13.0961 15.912ZM18.5574 1.12875V6.61881L17.6334 8.02015V1.7814C17.6334 1.62619 17.5091 1.50016 17.3561 1.50016H14.0925V0.562539H18.003C18.3091 0.562539 18.5574 0.816465 18.5574 1.12875ZM18.5574 22.8751C18.5574 23.1852 18.3086 23.4376 18.003 23.4376H1.60934C1.3037 23.4376 1.05488 23.1852 1.05488 22.8751L1.05471 1.12875C1.05471 0.816787 1.30351 0.562508 1.60917 0.562508H5.52068L5.52085 1.50013H2.25615C2.10316 1.50013 1.97893 1.62616 1.97893 1.78137V22.2191C1.97893 22.3743 2.10316 22.5003 2.25615 22.5003H17.3563C17.5093 22.5003 17.6336 22.3743 17.6336 22.2191V15.255L18.5576 13.8537L18.5574 22.8751ZM15.4703 17.5229L14.514 16.8738L21.5407 6.21804L22.4969 6.8672L15.4703 17.5229ZM23.9071 4.72898L22.8056 6.39964L20.4316 4.78856L21.5332 3.11789C21.6007 3.01552 21.7483 2.98444 21.8504 3.05419L23.8447 4.40752C23.8954 4.44205 23.9297 4.49454 23.9415 4.55531C23.9534 4.61573 23.9412 4.67753 23.9071 4.72898Z" fill="#7A7A7A"/>
</svg>
