<svg width="24" height="24" viewBox="0 0 24 24" fill="none" xmlns="http://www.w3.org/2000/svg">
<g clip-path="url(#clip0_38_5010)">
<path d="M4.11393 12.9947H4.39671V17.7943C4.39671 17.9495 4.52274 18.0756 4.67794 18.0756H11.8023C11.9575 18.0756 12.0835 17.9495 12.0835 17.7943V12.9947H12.3663C12.5215 12.9947 12.6476 12.8687 12.6476 12.7134V11.2289C12.6476 11.0737 12.5215 10.9477 12.3663 10.9477H10.2254C10.3349 10.7704 10.3991 10.5679 10.402 10.3536C10.4069 10.0408 10.2891 9.74507 10.0716 9.52047C9.5661 8.99927 8.50266 9.01376 8.16668 9.92703C7.53256 9.07697 6.05098 9.87196 6.52454 10.9473H4.11326C3.95806 10.9473 3.83203 11.0734 3.83203 11.2286V12.7131C3.83255 12.869 3.95858 12.9947 4.11378 12.9947H4.11393ZM4.95953 12.9947H7.1165V17.5128H4.95953V12.9947ZM7.67894 17.5128V12.9947H8.80249V17.5128H7.67894ZM11.5215 17.5128H9.36492V12.9947H11.5215V17.5128ZM9.66877 9.91246C9.78202 10.0295 9.84313 10.1828 9.84054 10.3456C9.83795 10.5084 9.77235 10.6602 9.65564 10.7734C9.58175 10.8447 9.40066 10.9036 9.17537 10.9478H8.52848C8.57457 10.4858 8.6766 10.0264 8.80781 9.89933C9.04657 9.66765 9.43207 9.66834 9.66874 9.91245L9.66877 9.91246ZM7.13268 10.8541C6.86008 10.5934 7.04567 10.1323 7.4222 10.1323C7.53061 10.1323 7.63333 10.1732 7.71171 10.2481C7.79424 10.3272 7.86726 10.6288 7.90852 10.9474H7.36178C7.25146 10.9205 7.16859 10.8886 7.13268 10.854L7.13268 10.8541ZM4.39515 11.5105H7.30655C7.64112 11.5847 8.0116 11.5975 8.21185 11.5975H8.22463C8.35998 11.5975 8.79882 11.59 9.22854 11.5105H12.0861V12.4325H4.39555V11.5105H4.39515Z" fill="#7A7A7A"/>
<path d="M19.9367 12.4435C19.8925 12.3405 19.7908 12.2736 19.6787 12.2736H17.3144C17.1592 12.2736 17.0332 12.3997 17.0332 12.5549V15.3865C17.0332 15.5417 17.1592 15.6677 17.3144 15.6677H20.9002C20.9028 15.6674 20.9054 15.6674 20.9076 15.6677C21.0628 15.6677 21.1888 15.5417 21.1888 15.3865C21.1888 15.3247 21.169 15.2676 21.1348 15.2211L19.9367 12.4435ZM17.5952 15.1048V12.8356H19.4933L20.4717 15.1048H17.5952Z" fill="#7A7A7A"/>
<path d="M23.4421 19.7093H22.7827V16.4422V16.441C22.7827 16.425 22.776 16.4091 22.7731 16.3934C22.7693 16.3723 22.7682 16.3506 22.76 16.3316V16.3309L20.6289 11.3902C20.5847 11.2872 20.483 11.2204 20.371 11.2204H16.5383V8.89005C16.5383 8.0403 15.8469 7.34925 14.9972 7.34925L1.48256 7.34942C0.632496 7.34942 -0.0585938 8.04087 -0.0585938 8.89022V18.7264C-0.0585938 19.5781 0.63285 20.2714 1.48256 20.2714H1.67764V21.2427C1.67764 21.5156 1.90156 21.7376 2.17639 21.7376H3.75206C3.88931 22.6961 4.70762 23.4378 5.70357 23.4378C6.69952 23.4378 7.51785 22.6961 7.65508 21.7376H17.155C17.2922 22.6961 18.1105 23.4378 19.1065 23.4378C20.1024 23.4378 20.9208 22.6961 21.058 21.7376H23.4427C23.7175 21.7376 23.9414 21.5153 23.9414 21.2427V20.2077C23.9411 19.9327 23.7171 19.7093 23.4423 19.7093L23.4421 19.7093ZM0.503556 18.7268V8.89059C0.503556 8.35127 0.942752 7.91223 1.48227 7.91223H14.9969C15.5366 7.91223 15.9756 8.35142 15.9756 8.89059V18.7268C15.9756 19.2684 15.5364 19.7093 14.9969 19.7093H6.62489C6.59744 19.6946 6.56862 19.6846 6.54047 19.6715C6.50301 19.6539 6.46624 19.6363 6.42757 19.6209C6.34055 19.5867 6.25164 19.5591 6.16101 19.538C6.10887 19.5256 6.05605 19.5178 6.00236 19.5095C5.94538 19.5009 5.88842 19.4957 5.83058 19.4923C5.78742 19.4893 5.74702 19.4795 5.703 19.4795C5.65881 19.4795 5.61754 19.4897 5.57404 19.4926C5.5181 19.4964 5.46303 19.5013 5.40761 19.5095C5.3522 19.5178 5.2973 19.5261 5.24344 19.5392C5.15608 19.5598 5.06976 19.5869 4.98586 19.6195C4.94046 19.6371 4.89729 19.6582 4.85344 19.6791C4.83065 19.6899 4.80649 19.6986 4.78404 19.7101L2.17596 19.71H1.48231C0.942632 19.7093 0.503459 19.2682 0.503459 18.7268L0.503556 18.7268ZM2.23979 20.2718H4.12898C3.93252 20.5316 3.80131 20.8387 3.75245 21.1755H2.23977L2.23979 20.2718ZM5.70363 22.8757C4.92296 22.8757 4.288 22.2413 4.28663 21.4609C4.28663 21.4593 4.28732 21.4583 4.28732 21.4567C4.28732 21.4555 4.28663 21.4549 4.28663 21.4538C4.28853 20.9097 4.60118 20.4425 5.05351 20.2067C5.12671 20.1683 5.20233 20.1373 5.28071 20.1129C5.30436 20.1055 5.32766 20.0972 5.35166 20.0908C5.40121 20.0784 5.4511 20.0691 5.50134 20.062C5.52378 20.059 5.54674 20.0575 5.56919 20.0552C5.65689 20.047 5.74546 20.047 5.83316 20.0549C5.85905 20.0571 5.88495 20.059 5.91033 20.0628C5.95763 20.0696 6.00442 20.0786 6.05051 20.0898C6.08884 20.0994 6.12595 20.1119 6.16256 20.1247C6.21884 20.1438 6.27356 20.1663 6.32674 20.1925C6.79477 20.4242 7.11983 20.9021 7.11983 21.4588C7.12087 22.24 6.48522 22.8757 5.70366 22.8757L5.70363 22.8757ZM19.1064 22.8757C18.3252 22.8757 17.6898 22.24 17.6894 21.459C17.6894 21.4583 17.6898 21.4574 17.6898 21.4567C17.6898 21.4564 17.6894 21.4561 17.6894 21.4555C17.6913 20.6756 18.3258 20.0415 19.1064 20.0415C19.8877 20.0415 20.5235 20.6771 20.5235 21.4585C20.5235 22.24 19.8874 22.8756 19.1064 22.8756V22.8757ZM23.3784 21.1755H21.0573C20.9185 20.2186 20.101 19.479 19.1066 19.479C18.1116 19.479 17.2942 20.2189 17.1554 21.1755H7.6551C7.60641 20.8387 7.47469 20.5316 7.27857 20.2718H14.9974C15.8471 20.2718 16.5385 19.5784 16.5385 18.7268V16.4576C16.5389 16.4524 16.5415 16.448 16.5415 16.4423L16.5416 11.7831H20.1859L22.2206 16.5002V19.7093H21.6272C21.472 19.7093 21.346 19.8354 21.346 19.9906C21.346 20.1458 21.472 20.2718 21.6272 20.2718H23.3785L23.3784 21.1755Z" fill="#7A7A7A"/>
<path d="M5.70445 20.5451C5.20084 20.5451 4.79102 20.955 4.79102 21.4586C4.79102 21.9622 5.20086 22.3716 5.70445 22.3716C6.20807 22.3716 6.61789 21.9618 6.61789 21.4586C6.61755 20.9549 6.2077 20.5451 5.70445 20.5451ZM5.70445 21.8093C5.51093 21.8093 5.35348 21.6519 5.35348 21.4587C5.35348 21.2652 5.51093 21.1077 5.70445 21.1077C5.89798 21.1077 6.05543 21.2652 6.05543 21.4587C6.05509 21.6517 5.89764 21.8093 5.70445 21.8093Z" fill="#7A7A7A"/>
<path d="M19.1068 20.5451C18.6032 20.5451 18.1934 20.955 18.1934 21.4586C18.1934 21.9622 18.6032 22.3716 19.1068 22.3716C19.6104 22.3716 20.0202 21.9618 20.0202 21.4586C20.0199 20.9549 19.6104 20.5451 19.1068 20.5451ZM19.1068 21.8093C18.9133 21.8093 18.7558 21.6519 18.7558 21.4587C18.7558 21.2652 18.9133 21.1077 19.1068 21.1077C19.3003 21.1077 19.4578 21.2652 19.4578 21.4587C19.4574 21.6517 19.3003 21.8093 19.1068 21.8093Z" fill="#7A7A7A"/>
<path d="M19.0533 16.106H17.3144C17.1592 16.106 17.0332 16.232 17.0332 16.3872C17.0332 16.5424 17.1592 16.6685 17.3144 16.6685H19.0533C19.2085 16.6685 19.3345 16.5424 19.3345 16.3872C19.3345 16.232 19.2085 16.106 19.0533 16.106Z" fill="#7A7A7A"/>
<path d="M10.5157 6.24378C10.6709 6.24378 10.7969 6.11776 10.7969 5.96255C10.7969 5.03515 11.5323 4.30919 12.4713 4.30919C12.6101 4.30919 12.7282 4.2075 12.7493 4.07026C12.9304 2.89129 14.2702 2.2931 15.2636 2.92236C15.4143 3.01835 15.6229 2.95016 15.6814 2.77234C16.2397 1.06545 18.6065 0.91386 19.3882 2.51355C19.4391 2.61748 19.5501 2.68049 19.6642 2.67031C20.3655 2.61662 21.2145 3.16008 21.354 4.07025C21.3751 4.2075 21.4931 4.30918 21.6319 4.30918C22.5706 4.30918 23.3064 5.03514 23.3064 5.96255C23.3064 6.33459 23.8689 6.33459 23.8689 5.96255C23.8689 4.79777 23.0053 3.86895 21.8633 3.75793C21.5959 2.72035 20.6559 2.12304 19.8072 2.10421C18.777 0.315166 16.1341 0.44824 15.2687 2.2898C14.0335 1.74875 12.5845 2.44535 12.2403 3.75759C11.0984 3.86894 10.2344 4.79707 10.2344 5.96256C10.2345 6.11776 10.3606 6.24379 10.5158 6.24379L10.5157 6.24378Z" fill="#7A7A7A"/>
<path d="M1.14485 4.31861C1.14485 3.75909 1.58924 3.32075 2.15653 3.32075C2.29568 3.32075 2.41342 3.21958 2.43448 3.08182C2.54584 2.35692 3.36379 2.01613 3.95128 2.38954C4.10355 2.48622 4.31124 2.41578 4.36907 2.23952C4.71142 1.19367 6.16298 1.09767 6.64308 2.08017C6.69401 2.18444 6.80277 2.24659 6.91913 2.23693C7.34175 2.20464 7.84985 2.53283 7.93426 3.08182C7.95532 3.21907 8.07341 3.32075 8.21222 3.32075C8.77951 3.32075 9.22355 3.75908 9.22355 4.3186C9.22355 4.69064 9.78603 4.69064 9.78603 4.3186C9.78603 3.52034 9.21077 2.87981 8.43978 2.77365C8.23658 2.10399 7.62786 1.71087 7.06158 1.67499C6.32855 0.482052 4.58626 0.590464 3.95956 1.76994C3.12709 1.46281 2.19191 1.91996 1.9293 2.77384C1.15795 2.87967 0.582031 3.52053 0.582031 4.3188C0.582377 4.69066 1.14482 4.69066 1.14482 4.31862L1.14485 4.31861Z" fill="#7A7A7A"/>
</g>
<defs>
<clipPath id="clip0_38_5010">
<rect width="24" height="24" fill="white"/>
</clipPath>
</defs>
</svg>
