<svg width="24" height="24" viewBox="0 0 24 24" fill="none" xmlns="http://www.w3.org/2000/svg">
<path d="M16.1208 9.72434C16.6662 9.15053 16.2434 8.22501 15.4765 8.22501H13.1193C13.7821 7.06094 13.9595 6.88533 13.8372 6.44022C13.7745 6.21087 13.6252 6.01995 13.42 5.90436C13.0104 5.66991 12.4452 5.82309 12.2064 6.23639C10.8574 8.60501 11.6031 8.2247 7.80234 8.2247C7.6495 8.2247 7.52539 8.34881 7.52539 8.50166V13.1256C7.52539 13.2784 7.6495 13.4025 7.80234 13.4025C9.96932 13.4025 10.2337 13.5188 10.3184 13.1936C10.9687 13.8114 11.2339 13.6711 15.4763 13.6711C15.9671 13.6711 16.366 13.2735 16.366 12.7849C16.366 12.5545 16.2806 12.3388 16.1218 12.1708C16.4387 11.8362 16.4557 11.3026 16.1218 10.9484C16.4588 10.5931 16.4367 10.045 16.121 9.7245L16.1208 9.72434ZM9.7782 12.8485H8.0791V8.77889H9.7782V12.8485ZM14.1449 9.44736C13.992 9.44736 13.8679 9.57147 13.8679 9.72431C13.8679 9.87715 13.992 10.0013 14.1449 10.0013H15.4761C15.5898 10.0013 15.6685 10.0558 15.7177 10.105C15.7785 10.1636 15.8119 10.2461 15.8119 10.3369C15.8119 10.5193 15.6656 10.6667 15.4842 10.6711C15.4814 10.6711 15.4791 10.6696 15.4761 10.6696H14.1449C13.992 10.6696 13.8679 10.7937 13.8679 10.9465C13.8679 11.0994 13.992 11.2235 14.1449 11.2235C15.0822 11.2235 15.5342 11.15 15.7144 11.3236C15.9167 11.5263 15.7882 11.8867 15.4832 11.8935C15.4019 11.8913 14.2265 11.892 14.1449 11.892C13.992 11.892 13.8679 12.0161 13.8679 12.1689C13.8679 12.3218 13.992 12.4459 14.1449 12.4459C15.1095 12.4459 15.8118 12.2953 15.8118 12.7845C15.8118 13.2278 15.6464 13.1169 11.5034 13.1169C10.8575 13.1169 10.332 12.5914 10.332 11.9455V8.77853C11.0717 8.77853 11.5563 8.49682 11.8471 7.9868C12.6651 6.55071 12.7684 6.17071 13.1464 6.38598C13.3055 6.4754 13.3632 6.6784 13.2705 6.8394L12.4019 8.36458C12.3531 8.45027 12.3535 8.55551 12.4031 8.64085C12.4526 8.7262 12.5439 8.77857 12.6425 8.77857C15.5155 8.77857 15.812 8.67401 15.812 9.11094C15.8118 9.546 15.3979 9.4474 14.1449 9.4474L14.1449 9.44736Z" fill="#7A7A7A"/>
<path d="M20.2373 10.6794C20.2373 6.10771 16.5183 2.38865 11.9465 2.38865C7.37487 2.38865 3.65625 6.10766 3.65625 10.6794C3.65625 15.2511 7.37526 18.9697 11.9465 18.9697C16.5182 18.9697 20.2373 15.2507 20.2373 10.6794ZM11.9465 18.4161C7.68058 18.4161 4.20986 14.9454 4.20986 10.6794C4.20986 6.41333 7.68049 2.94227 11.9465 2.94227C16.2126 2.94227 19.6837 6.41289 19.6837 10.6794C19.6837 14.9455 16.2127 18.4161 11.9465 18.4161Z" fill="#7A7A7A"/>
<path d="M11.9454 4.6069C8.59699 4.6069 5.87305 7.33084 5.87305 10.6792C5.87305 14.0277 8.59699 16.7516 11.9454 16.7516C15.2941 16.7516 18.0177 14.0277 18.0177 10.6792C18.0177 7.33101 15.2938 4.6069 11.9454 4.6069ZM11.9454 16.1975C8.90252 16.1975 6.42666 13.7218 6.42666 10.6792C6.42666 7.63637 8.90239 5.16051 11.9454 5.16051C14.9884 5.16051 17.4641 7.63624 17.4641 10.6792C17.4641 13.7221 14.9884 16.1975 11.9454 16.1975Z" fill="#7A7A7A"/>
<path d="M12.2665 3.77521C12.2665 3.99555 12.0879 4.17406 11.8676 4.17406C11.6474 4.17406 11.4688 3.99555 11.4688 3.77521C11.4688 3.55505 11.6474 3.37636 11.8676 3.37636C12.0879 3.37636 12.2665 3.55505 12.2665 3.77521Z" fill="#7A7A7A"/>
<path d="M12.2665 17.5842C12.2665 17.8046 12.0879 17.9831 11.8676 17.9831C11.6474 17.9831 11.4688 17.8046 11.4688 17.5842C11.4688 17.3641 11.6474 17.1856 11.8676 17.1856C12.0879 17.1856 12.2665 17.3641 12.2665 17.5842Z" fill="#7A7A7A"/>
<path d="M8.7599 4.5007C8.87007 4.69146 8.80461 4.93526 8.61386 5.04544C8.42311 5.1556 8.17931 5.09032 8.06912 4.89957C7.95896 4.70881 8.02441 4.46484 8.21516 4.35466C8.40592 4.24449 8.64972 4.30995 8.7599 4.5007" fill="#7A7A7A"/>
<path d="M14.975 16.8587C15.085 17.0493 15.3288 17.1146 15.5197 17.0046C15.7103 16.8946 15.7756 16.6508 15.6656 16.4598C15.4022 16.0038 14.7113 16.4019 14.975 16.8587L14.975 16.8587Z" fill="#7A7A7A"/>
<path d="M6.08848 6.88236C6.27923 6.99253 6.34469 7.23633 6.23452 7.4271C6.12435 7.61787 5.88039 7.68331 5.68961 7.57314C5.49903 7.46297 5.43357 7.219 5.54374 7.02823C5.6539 6.83765 5.8977 6.77219 6.08847 6.88236" fill="#7A7A7A"/>
<path d="M18.0477 13.7865C17.5916 13.5232 17.1924 14.2134 17.6489 14.4771C17.8395 14.5871 18.0836 14.5218 18.1936 14.3312C18.3041 14.1406 18.2387 13.8967 18.0478 13.7865L18.0477 13.7865Z" fill="#7A7A7A"/>
<path d="M4.96358 10.281C4.43703 10.281 4.43621 11.0784 4.96358 11.0784C5.18374 11.0784 5.36243 10.9 5.36243 10.6795C5.36243 10.4595 5.18408 10.281 4.96358 10.281V10.281Z" fill="#7A7A7A"/>
<path d="M19.1725 10.6797C19.1725 10.9001 18.994 11.0786 18.7739 11.0786C18.5535 11.0786 18.375 10.9001 18.375 10.6797C18.375 10.4596 18.5535 10.2809 18.7739 10.2809C18.994 10.2809 19.1725 10.4596 19.1725 10.6797Z" fill="#7A7A7A"/>
<path d="M6.23256 13.9326C6.34273 14.1234 6.27744 14.3672 6.08669 14.4773C5.89594 14.5875 5.65197 14.522 5.54178 14.3313C5.43161 14.1405 5.49707 13.8967 5.68782 13.7866C5.87857 13.6764 6.12254 13.7418 6.23256 13.9326" fill="#7A7A7A"/>
<path d="M17.6469 6.88193C17.1908 7.14528 17.589 7.83622 18.0458 7.57251C18.5014 7.30916 18.1032 6.61822 17.6469 6.88193Z" fill="#7A7A7A"/>
<path d="M8.61391 16.3143C8.80466 16.4244 8.86994 16.6682 8.75995 16.859C8.64978 17.0497 8.40581 17.1152 8.21504 17.005C8.02428 16.8949 7.959 16.6511 8.06917 16.4603C8.17916 16.2695 8.42313 16.2041 8.6139 16.3143" fill="#7A7A7A"/>
<path d="M15.5201 4.35497C15.7109 4.46513 15.7763 4.70893 15.6662 4.8997C15.556 5.09045 15.3122 5.15591 15.1214 5.04574C14.9307 4.93558 14.8652 4.69178 14.9754 4.50101C15.0855 4.31025 15.3293 4.2448 15.5201 4.35497Z" fill="#7A7A7A"/>
<path d="M23.6348 21.3695L19.5438 16.7103C21.0316 16.6546 21.7061 14.882 20.6963 13.865C22.3721 13.6974 22.7883 11.4144 21.2569 10.6807C22.7795 9.95796 22.3839 7.65768 20.6963 7.49668C21.8936 6.28313 20.6934 4.27989 19.08 4.69605C19.7835 3.14537 17.9824 1.67968 16.6014 2.61543C16.7332 0.91411 14.5271 0.150409 13.5617 1.51308C13.1163 -0.124657 10.7747 -0.118346 10.3276 1.509C9.34966 0.139365 7.15309 0.924828 7.2888 2.61731C5.92361 1.68087 4.09699 3.13533 4.8102 4.69537C3.1934 4.27986 1.99839 6.28005 3.19645 7.49683C1.5118 7.6563 1.10821 9.95623 2.63509 10.6808C1.10838 11.4124 1.51471 13.7023 3.19527 13.8667C2.16277 14.9102 2.89503 16.7223 4.42241 16.7106L0.304028 21.4077C0.119055 21.6193 0.33174 21.942 0.599851 21.8531L3.06587 21.0321L2.61789 23.592C2.56943 23.8679 2.9166 24.0306 3.09904 23.8223L7.29119 19.043C7.44148 20.5805 9.43523 21.1044 10.3278 19.8506C10.7765 21.481 13.1174 21.4814 13.562 19.8469C14.4726 21.1342 16.5292 20.5504 16.5997 18.9543L20.8701 23.8228C21.0541 24.0326 21.3994 23.8672 21.3513 23.5924L20.9033 21.0322L23.373 21.8535C23.6765 21.9542 23.8816 21.5576 23.6349 21.3701L23.6348 21.3695ZM3.33346 22.7143L3.69134 20.6702C3.72721 20.4648 3.53067 20.2931 3.33091 20.3596L1.39361 21.0048L4.66329 17.2745C4.60378 18.3964 5.63268 19.1554 6.57186 19.0216L3.33346 22.7143ZM15.9961 18.5343C16.4322 19.8976 14.427 20.6197 13.889 19.2987C13.8366 19.1702 13.6965 19.0999 13.5625 19.1351C13.3041 19.2026 13.0765 19.1644 13.0658 19.4461C13.0103 20.8767 10.877 20.8649 10.8219 19.4461C10.8168 19.3113 10.7148 19.1997 10.5812 19.1824C10.3124 19.1474 10.1082 19.0409 10.0028 19.2987C9.46813 20.613 7.44547 19.8998 7.89124 18.5318C7.97693 18.2681 7.7435 18.2069 7.52231 18.0661C7.27715 17.9099 7.16069 18.1761 6.89971 18.3223C5.79736 18.9345 4.71319 17.62 5.45461 16.673C5.53843 16.5659 5.54098 16.4297 5.40293 16.2704C5.2438 16.088 5.13414 15.9185 4.91616 16.0338C3.68237 16.69 2.56931 14.8605 3.79274 14.0927C3.90835 14.0203 3.95409 13.8744 3.90019 13.7489C3.79496 13.5026 3.78357 13.2719 3.50951 13.3098C2.11032 13.4982 1.71518 11.4062 3.12137 11.0949C3.25771 11.0646 3.35003 10.9383 3.33745 10.7994C3.3145 10.5457 3.41174 10.3264 3.12 10.2635C1.72269 9.96175 2.10008 7.86396 3.50525 8.05268C3.63531 8.07121 3.75823 7.99538 3.8026 7.87315C3.89203 7.6268 4.02056 7.41411 3.79444 7.27079C2.58498 6.50386 3.65554 4.66331 4.91821 5.32534C5.03705 5.38774 5.18292 5.35595 5.26538 5.25037C5.42825 5.0421 5.61798 4.90405 5.45222 4.69053C4.56304 3.5443 6.23616 2.20936 7.17052 3.24321C7.26181 3.34369 7.41278 3.36358 7.52686 3.28979C7.75247 3.14392 7.97707 3.09292 7.8929 2.82823C7.45462 1.45673 9.47266 0.755089 10.0041 2.05978C10.0565 2.18865 10.195 2.25887 10.3305 2.22333C10.5864 2.15686 10.8125 2.1912 10.8232 1.91238C10.8783 0.493311 13.0116 0.482082 13.0671 1.91238C13.0722 2.04788 13.1749 2.15975 13.3093 2.17641C13.574 2.21007 13.785 2.31786 13.8903 2.06012C14.419 0.762436 16.4332 1.44962 16.0012 2.82604C15.9229 3.07562 16.1499 3.1591 16.3719 3.2917C16.4845 3.35919 16.6282 3.33862 16.7176 3.24222C17.67 2.21382 19.3215 3.54842 18.441 4.69242C18.2763 4.90663 18.4669 5.04281 18.6282 5.25073C18.7105 5.35665 18.8569 5.38844 18.9757 5.32605C20.2505 4.65723 21.2945 6.51662 20.0998 7.27114C19.8831 7.40817 19.9886 7.59059 20.0724 7.82249C20.1408 8.01121 20.2549 8.07207 20.3882 8.05337C21.8047 7.86398 22.1592 9.96517 20.7734 10.2642C20.6364 10.2938 20.5434 10.4205 20.556 10.56C20.5793 10.8137 20.4817 11.0308 20.772 11.0956C22.1694 11.405 21.7969 13.4957 20.3824 13.3102C20.2501 13.2944 20.124 13.3733 20.0833 13.5008C20.0568 13.5839 20.0269 13.6706 19.9929 13.7497C19.9393 13.8753 19.9851 14.0212 20.1007 14.0934C21.3101 14.8489 20.2185 16.6932 18.9766 16.034C18.7462 15.9114 18.6313 16.1111 18.4618 16.3039C18.4296 16.3483 18.4322 16.3461 18.4322 16.3461C18.3802 16.4211 18.3749 16.4778 18.3868 16.5484C18.3946 16.5923 18.3963 16.62 18.4375 16.6725C18.8093 17.1518 18.7374 17.8317 18.2705 18.2213C17.8385 18.5858 17.119 18.5396 16.7336 18.1319C16.6228 18.0148 16.4766 18.0052 16.3647 18.0717C16.1389 18.2057 15.9162 18.2836 15.9961 18.5343L15.9961 18.5343ZM20.6374 20.3594C20.5447 20.3292 20.4431 20.3487 20.3689 20.4126C20.2952 20.4762 20.2603 20.574 20.277 20.67L20.6348 22.7145L17.4036 19.0308C18.4672 19.125 19.3368 18.1892 19.2193 17.1795L22.5776 21.0047L20.6374 20.3594Z" fill="#7A7A7A"/>
</svg>
