<svg width="24" height="24" viewBox="0 0 24 24" fill="none" xmlns="http://www.w3.org/2000/svg">
<g clip-path="url(#clip0_38_5032)">
<path d="M7.13873 5.19369C7.07838 5.2523 7.05975 5.34034 7.09137 5.41755L8.34587 8.45814C8.37867 8.53701 8.45726 8.58848 8.54424 8.58848C8.54818 8.58848 8.55224 8.58848 8.55644 8.58822C8.64815 8.583 8.72634 8.52184 8.75048 8.43546L9.11519 7.13756L10.4837 6.75178C10.5715 6.72693 10.6332 6.651 10.6376 6.56219C10.6422 6.47365 10.588 6.39223 10.5031 6.35936L7.36899 5.1476C7.28988 5.11625 7.19896 5.13447 7.13874 5.19372L7.13873 5.19369ZM9.76684 6.52154L8.88141 6.77087C8.80991 6.79113 8.75428 6.84592 8.7346 6.91561L8.50606 7.72922L7.67363 5.71174L9.76684 6.52154Z" fill="#7A7A7A"/>
<path d="M22.8482 3.89978H19.91V0.273792C19.91 0.122695 19.7837 0 19.6281 0H5.16929C5.0137 0 4.88736 0.122695 4.88736 0.273792V3.89978H1.94828C1.23022 3.89978 0.646089 4.46889 0.646089 5.16838C0.646089 6.53852 0.646781 0.205679 0.644531 18.566C0.644531 19.2753 1.26326 19.8346 1.94863 19.8346H9.34328V22.8172H7.40038C7.24479 22.8172 7.11845 22.9399 7.11845 23.091C7.11845 23.2421 7.24479 23.3648 7.40038 23.3648H17.3971C17.5527 23.3648 17.679 23.2421 17.679 23.091C17.679 22.9399 17.5527 22.8172 17.3971 22.8172H15.4542V19.8343H22.8484C23.5687 19.8343 24.1547 19.2652 24.1547 18.566V5.16791C24.1547 4.46838 23.5687 3.89961 22.8484 3.89961L22.8482 3.89978ZM22.8482 4.44738C23.2575 4.44738 23.5907 4.77075 23.5907 5.16842V16.2061H19.9107V4.4473L22.8482 4.44738ZM1.20964 18.5657V16.7531C4.54782 16.7531 3.36366 16.7537 23.589 16.7531V18.5652C23.589 18.9624 23.2563 19.2859 22.8469 19.2859H1.94955C1.55513 19.2861 1.20933 18.9666 1.20933 18.5657H1.20964ZM19.3458 16.206H5.4506V3.04153H19.3458V16.206ZM5.4506 0.547269H19.3458V2.49388H5.4506V0.547269ZM1.94769 4.44708H4.88557V16.2058H1.20938V5.16778C1.20938 4.77012 1.54046 4.44708 1.94769 4.44708ZM14.8899 22.8169H9.9068V19.8339H14.8903L14.8899 22.8169Z" fill="#7A7A7A"/>
<path d="M5.51665 0.87397H4.79966C4.68171 0.87397 4.58594 0.966979 4.58594 1.08152C4.58594 1.19606 4.68171 1.28906 4.79966 1.28906H5.51665C5.63459 1.28906 5.73037 1.19606 5.73037 1.08152C5.73037 0.966979 5.63486 0.87397 5.51665 0.87397Z" fill="#7A7A7A"/>
<path d="M7.0479 0.87397H6.33091C6.21296 0.87397 6.11719 0.966979 6.11719 1.08152C6.11719 1.19606 6.21296 1.28906 6.33091 1.28906H7.0479C7.16584 1.28906 7.26162 1.19606 7.26162 1.08152C7.26162 0.966979 7.16584 0.87397 7.0479 0.87397Z" fill="#7A7A7A"/>
<path d="M8.5772 0.87397H7.8602C7.74226 0.87397 7.64648 0.966979 7.64648 1.08152C7.64648 1.19606 7.74226 1.28906 7.8602 1.28906H8.5772C8.69514 1.28906 8.79091 1.19606 8.79091 1.08152C8.79091 0.966979 8.69514 0.87397 8.5772 0.87397Z" fill="#7A7A7A"/>
<path d="M7.6477 8.24432C7.76565 8.24432 7.86142 8.15131 7.86142 8.03677C7.86142 7.92223 7.76565 7.82922 7.6477 7.82922C6.43088 7.82922 5.44113 6.86805 5.44113 5.68662C5.44113 4.50516 6.43088 3.54403 7.6477 3.54403C8.86429 3.54403 9.854 4.5052 9.854 5.68662C9.854 5.80116 9.94977 5.89417 10.0677 5.89417C10.1857 5.89417 10.2814 5.80116 10.2814 5.68662C10.2814 4.27636 9.09988 3.12892 7.64769 3.12892C6.1955 3.12892 5.01367 4.27636 5.01367 5.68662C5.01367 7.09689 6.19523 8.24433 7.64769 8.24433L7.6477 8.24432Z" fill="#7A7A7A"/>
<path d="M12.3817 4.35214H14.0933C14.2112 4.35214 14.307 4.25913 14.307 4.14459C14.307 4.03005 14.2112 3.93704 14.0933 3.93704H12.3817C12.2637 3.93704 12.168 4.03005 12.168 4.14459C12.168 4.25913 12.2637 4.35214 12.3817 4.35214Z" fill="#7A7A7A"/>
<path d="M11.6395 6.38877H14.0919C14.2099 6.38877 14.3057 6.29576 14.3057 6.18122C14.3057 6.06668 14.2099 5.97367 14.0919 5.97367H11.6395C11.5216 5.97367 11.4258 6.06668 11.4258 6.18122C11.4257 6.29576 11.5214 6.38877 11.6395 6.38877Z" fill="#7A7A7A"/>
<path d="M14.0937 8.01041H10.3055C10.1876 8.01041 10.0918 8.10342 10.0918 8.21796C10.0918 8.3325 10.1876 8.42551 10.3055 8.42551H14.0937C14.2116 8.42551 14.3074 8.3325 14.3074 8.21796C14.3074 8.10342 14.2116 8.01041 14.0937 8.01041Z" fill="#7A7A7A"/>
<path d="M14.0921 10.0473H8.24106C8.12312 10.0473 8.02734 10.1403 8.02734 10.2548C8.02734 10.3694 8.12312 10.4624 8.24106 10.4624H14.0924C14.2104 10.4624 14.3061 10.3694 14.3061 10.2548C14.3059 10.1403 14.2101 10.0473 14.0922 10.0473H14.0921Z" fill="#7A7A7A"/>
<path d="M9.55425 14.4916C10.0267 14.4916 10.4108 14.1183 10.4108 13.6597C10.4108 13.2009 10.0264 12.8275 9.55425 12.8275C9.08183 12.8275 8.69727 13.2008 8.69727 13.6597C8.69727 14.1185 9.08166 14.4916 9.55425 14.4916ZM9.55425 13.243C9.79106 13.243 9.98337 13.43 9.98337 13.66C9.98337 13.8897 9.79078 14.0767 9.55425 14.0767C9.31744 14.0767 9.12485 13.8897 9.12485 13.66C9.12472 13.4297 9.31745 13.243 9.55425 13.243Z" fill="#7A7A7A"/>
</g>
<defs>
<clipPath id="clip0_38_5032">
<rect width="24" height="24" fill="white"/>
</clipPath>
</defs>
</svg>
