<svg width="24" height="24" viewBox="0 0 24 24" fill="none" xmlns="http://www.w3.org/2000/svg">
<path d="M23.694 19.6559C23.694 19.617 23.6794 19.5825 23.6643 19.5486C23.6598 19.5387 23.6609 19.5258 23.6554 19.5167L20.8106 10.5842L20.8108 5.8452C20.8108 5.69316 20.6847 5.5697 20.5295 5.5697H15.0841V4.97138H17.9254C18.0806 4.97138 18.2067 4.84792 18.2067 4.69588V0.560929C18.2067 0.408893 18.0806 0.285435 17.9254 0.285435H11.6801C11.5248 0.285435 11.3988 0.408893 11.3988 0.560929V4.69571C11.3988 4.84775 11.5248 4.9712 11.6801 4.9712H14.5214V5.56953L9.35484 5.5697V1.94142C9.35484 1.93922 9.35363 1.9377 9.35363 1.9355C9.35294 1.90692 9.34621 1.87935 9.33637 1.85213C9.26282 1.64428 9.00006 1.61299 8.86608 1.75877C8.86418 1.76063 8.86193 1.76131 8.86038 1.76317L8.36662 2.33531L7.87304 1.76369C7.75495 1.62738 7.54225 1.64903 7.44333 1.76369L6.94992 2.33531C6.89364 2.27036 6.46239 1.75962 6.39384 1.71568C6.26592 1.63298 6.10812 1.66968 6.02663 1.76388L5.53323 2.33532C5.47625 2.26953 5.08954 1.82003 5.03032 1.75643C4.86113 1.57683 4.55521 1.69149 4.54588 1.93062C4.54588 1.93434 4.54364 1.93755 4.54364 1.94161V5.56989H3.65331C3.4981 5.56989 3.37207 5.69335 3.37207 5.84539V10.616L0.51898 19.5744C0.516045 19.5844 0.51898 19.5946 0.516736 19.6046C0.513283 19.6218 0.505859 19.638 0.505859 19.6563V23.5201C0.505859 23.6722 0.63189 23.7956 0.787094 23.7956H23.4045C23.5597 23.7956 23.6858 23.6722 23.6858 23.5201L23.6859 19.6931C23.6882 19.6806 23.6937 19.6696 23.6937 19.6563L23.694 19.6559ZM11.9617 0.835826H17.644V4.4196L11.9617 4.41977V0.835826ZM5.74814 2.93898L6.24172 2.36736L6.7353 2.93898C6.84735 3.06903 7.05262 3.06903 7.16501 2.93898L7.65859 2.36736L8.15218 2.93898C8.26422 3.06903 8.46949 3.06903 8.58188 2.93898L8.79234 2.69511V9.23775H5.1061V5.853C5.1061 5.85012 5.108 5.84708 5.108 5.8442C5.108 5.84082 5.1061 5.83828 5.1061 5.83541L5.10575 2.69302L5.31793 2.93875C5.43136 3.0688 5.63611 3.0688 5.74816 2.93875L5.74814 2.93898ZM4.54414 6.12011V9.51365C4.54414 9.66569 4.67017 9.78915 4.82537 9.78915H9.07409C9.2293 9.78915 9.35533 9.66569 9.35533 9.51365V6.12011H14.5219V6.71844H10.2507C10.0955 6.71844 9.96947 6.8419 9.96947 6.99394V9.51362C9.96947 9.66566 10.0955 9.78912 10.2507 9.78912H19.3551C19.5103 9.78912 19.6364 9.66566 19.6364 9.51362V6.99394C19.6364 6.8419 19.5103 6.71844 19.3551 6.71844H15.084V6.12011H20.2483V10.3876H3.93457V6.12011H4.54414ZM19.0741 7.26962V9.23817H10.5319V7.26962H19.0741ZM3.85821 10.9397H20.3355L23.0235 19.3803H1.1702L3.85821 10.9397ZM23.1247 23.2439H1.06943V19.9312H23.1247V23.2439Z" fill="#7A7A7A"/>
<path d="M6.74994 21.863H10.8131C10.9424 22.4409 11.4674 22.8753 12.0957 22.8753C12.7241 22.8753 13.2491 22.4407 13.3782 21.863H17.4431C17.5983 21.863 17.7243 21.7395 17.7243 21.5875C17.7243 21.4354 17.5983 21.312 17.4431 21.312L13.3781 21.3118C13.2487 20.7343 12.7237 20.3002 12.0955 20.3002C11.4678 20.3002 10.9428 20.7343 10.8134 21.3118H6.74998C6.59478 21.3118 6.46875 21.4353 6.46875 21.5873C6.46875 21.7395 6.59461 21.863 6.74998 21.863L6.74994 21.863ZM12.0955 20.8511C12.5102 20.8511 12.8473 21.1814 12.8473 21.5877C12.8473 21.9935 12.5102 22.3242 12.0955 22.3242C11.6825 22.3242 11.3466 21.9961 11.344 21.5921C11.344 21.5902 11.3452 21.5892 11.3452 21.5873C11.3452 21.5858 11.344 21.5845 11.344 21.5826C11.3471 21.1793 11.6827 20.8512 12.0955 20.8512V20.8511Z" fill="#7A7A7A"/>
<path d="M13.1445 2.21633H16.0872C16.2424 2.21633 16.3684 2.09287 16.3684 1.94083C16.3684 1.78879 16.2424 1.66534 16.0872 1.66534H13.1445C12.9893 1.66534 12.8633 1.78879 12.8633 1.94083C12.8633 2.09287 12.9891 2.21633 13.1445 2.21633Z" fill="#7A7A7A"/>
<path d="M16.3684 3.25121C16.3684 3.09917 16.2424 2.97572 16.0872 2.97572H13.1445C12.9893 2.97572 12.8633 3.09917 12.8633 3.25121C12.8633 3.40325 12.9893 3.5267 13.1445 3.5267H16.0872C16.2426 3.5267 16.3684 3.40325 16.3684 3.25121Z" fill="#7A7A7A"/>
<path d="M5.78903 4.48769H8.14889C8.52094 4.48769 8.52094 3.93668 8.14889 3.93668C5.76954 3.93668 5.50781 3.84485 5.50781 4.21218C5.50781 4.36472 5.63384 4.48767 5.78905 4.48767L5.78903 4.48769Z" fill="#7A7A7A"/>
<path d="M5.78905 5.89298H8.14891C8.30411 5.89298 8.43014 5.76952 8.43014 5.61748C8.43014 5.46545 8.30411 5.34199 8.14891 5.34199H5.78905C5.63384 5.34199 5.50781 5.46545 5.50781 5.61748C5.50781 5.76952 5.63384 5.89298 5.78905 5.89298Z" fill="#7A7A7A"/>
<path d="M5.78905 7.29708H8.14891C8.30411 7.29708 8.43014 7.17362 8.43014 7.02158C8.43014 6.86954 8.30411 6.74609 8.14891 6.74609H5.78905C5.63384 6.74609 5.50781 6.86954 5.50781 7.02158C5.50781 7.17362 5.63384 7.29708 5.78905 7.29708Z" fill="#7A7A7A"/>
<path d="M5.78905 8.70241H8.14891C8.30411 8.70241 8.43014 8.57895 8.43014 8.42692C8.43014 8.27488 8.30411 8.15142 8.14891 8.15142H5.78905C5.63384 8.15142 5.50781 8.27488 5.50781 8.42692C5.50781 8.57895 5.63384 8.70241 5.78905 8.70241Z" fill="#7A7A7A"/>
<path d="M7.12581 12.2399C6.47029 12.2399 5.9375 12.7623 5.9375 13.4045C5.9375 14.0466 6.47077 14.569 7.12581 14.569C7.78097 14.569 8.31411 14.0466 8.31411 13.4045C8.31463 12.7622 7.78132 12.2399 7.12581 12.2399ZM7.12581 14.0179C6.78087 14.0179 6.49999 13.7427 6.49999 13.4045C6.49999 13.0666 6.78088 12.7911 7.12581 12.7911C7.47074 12.7911 7.75162 13.0662 7.75162 13.4045C7.75214 13.7427 7.47125 14.0179 7.12581 14.0179Z" fill="#7A7A7A"/>
<path d="M10.4388 12.2399C9.78327 12.2399 9.25 12.7623 9.25 13.4045C9.25 14.0466 9.78327 14.569 10.4388 14.569C11.094 14.569 11.6271 14.0466 11.6271 13.4045C11.6274 12.7622 11.0943 12.2399 10.4388 12.2399ZM10.4388 14.0179C10.0939 14.0179 9.81262 13.7427 9.81262 13.4045C9.81262 13.0666 10.0935 12.7911 10.4388 12.7911C10.7837 12.7911 11.0646 13.0662 11.0646 13.4045C11.065 13.7427 10.7841 14.0179 10.4388 14.0179Z" fill="#7A7A7A"/>
<path d="M13.7528 12.2399C13.0972 12.2399 12.5645 12.7623 12.5645 13.4045C12.5645 14.0466 13.0977 14.569 13.7528 14.569C14.4083 14.569 14.9416 14.0466 14.9416 13.4045C14.9414 12.7622 14.4081 12.2399 13.7528 12.2399ZM13.7528 14.0179C13.4078 14.0179 13.1269 13.7427 13.1269 13.4045C13.1269 13.0666 13.4078 12.7911 13.7528 12.7911C14.0982 12.7911 14.3789 13.0662 14.3789 13.4045C14.3789 13.7427 14.098 14.0179 13.7528 14.0179Z" fill="#7A7A7A"/>
<path d="M17.0677 12.2399C16.4122 12.2399 15.8789 12.7623 15.8789 13.4045C15.8789 14.0466 16.4122 14.569 17.0677 14.569C17.7232 14.569 18.256 14.0466 18.256 13.4045C18.2562 12.7622 17.7229 12.2399 17.0677 12.2399ZM17.0677 14.0179C16.7222 14.0179 16.4415 13.7427 16.4415 13.4045C16.4415 13.0666 16.7224 12.7911 17.0677 12.7911C17.4126 12.7911 17.6935 13.0662 17.6935 13.4045C17.6937 13.7427 17.4128 14.0179 17.0677 14.0179Z" fill="#7A7A7A"/>
<path d="M3.8133 15.4147C3.15814 15.4147 2.625 15.9371 2.625 16.5788C2.625 17.2209 3.15827 17.7433 3.8133 17.7433C4.46882 17.7433 5.0021 17.2209 5.0021 16.5788C5.0021 15.9368 4.46882 15.4147 3.8133 15.4147ZM3.8133 17.1923C3.46837 17.1923 3.18749 16.9172 3.18749 16.5789C3.18749 16.241 3.46838 15.9659 3.8133 15.9659C4.15823 15.9659 4.43948 16.241 4.43948 16.5789C4.43965 16.9172 4.15876 17.1923 3.8133 17.1923Z" fill="#7A7A7A"/>
<path d="M7.12581 15.4147C6.47029 15.4147 5.9375 15.9371 5.9375 16.5788C5.9375 17.2209 6.47077 17.7433 7.12581 17.7433C7.78097 17.7433 8.31411 17.2209 8.31411 16.5788C8.31463 15.9368 7.78132 15.4147 7.12581 15.4147ZM7.12581 17.1923C6.78087 17.1923 6.49999 16.9172 6.49999 16.5789C6.49999 16.241 6.78088 15.9659 7.12581 15.9659C7.47074 15.9659 7.75162 16.241 7.75162 16.5789C7.75214 16.9172 7.47125 17.1923 7.12581 17.1923Z" fill="#7A7A7A"/>
<path d="M10.4388 15.4147C9.78327 15.4147 9.25 15.9371 9.25 16.5788C9.25 17.2209 9.78327 17.7433 10.4388 17.7433C11.094 17.7433 11.6271 17.2209 11.6271 16.5788C11.6274 15.9368 11.0943 15.4147 10.4388 15.4147ZM10.4388 17.1923C10.0939 17.1923 9.81262 16.9172 9.81262 16.5789C9.81262 16.241 10.0935 15.9659 10.4388 15.9659C10.7837 15.9659 11.0646 16.241 11.0646 16.5789C11.065 16.9172 10.7841 17.1923 10.4388 17.1923Z" fill="#7A7A7A"/>
<path d="M13.7528 15.4147C13.0972 15.4147 12.5645 15.9371 12.5645 16.5788C12.5645 17.2209 13.0977 17.7433 13.7528 17.7433C14.4083 17.7433 14.9416 17.2209 14.9416 16.5788C14.9414 15.9368 14.4081 15.4147 13.7528 15.4147ZM13.7528 17.1923C13.4078 17.1923 13.1269 16.9172 13.1269 16.5789C13.1269 16.241 13.4078 15.9659 13.7528 15.9659C14.0982 15.9659 14.3789 16.241 14.3789 16.5789C14.3789 16.9172 14.098 17.1923 13.7528 17.1923Z" fill="#7A7A7A"/>
<path d="M17.0677 15.4147C16.4122 15.4147 15.8789 15.9371 15.8789 16.5788C15.8789 17.2209 16.4122 17.7433 17.0677 17.7433C17.7232 17.7433 18.256 17.2209 18.256 16.5788C18.2562 15.9368 17.7229 15.4147 17.0677 15.4147ZM17.0677 17.1923C16.7222 17.1923 16.4415 16.9172 16.4415 16.5789C16.4415 16.241 16.7224 15.9659 17.0677 15.9659C17.4126 15.9659 17.6935 16.241 17.6935 16.5789C17.6937 16.9172 17.4128 17.1923 17.0677 17.1923Z" fill="#7A7A7A"/>
<path d="M20.3797 15.4147C19.7245 15.4147 19.1914 15.9371 19.1914 16.5788C19.1914 17.2209 19.7247 17.7433 20.3797 17.7433C21.0352 17.7433 21.5685 17.2209 21.5685 16.5788C21.5682 15.9368 21.0349 15.4147 20.3797 15.4147ZM20.3797 17.1923C20.0348 17.1923 19.7539 16.9172 19.7539 16.5789C19.7539 16.241 20.0348 15.9659 20.3797 15.9659C20.7246 15.9659 21.0059 16.241 21.0059 16.5789C21.0055 16.9172 20.7247 17.1923 20.3797 17.1923Z" fill="#7A7A7A"/>
</svg>
