<svg width="25" height="24" viewBox="0 0 25 24" fill="none" xmlns="http://www.w3.org/2000/svg">
<path d="M19.2274 5.6477e-05C16.2206 5.6477e-05 13.9531 1.2121 13.9531 2.8197V19.016C13.9531 20.7921 16.2695 22.1834 19.2265 22.1834C22.1833 22.1834 24.4998 20.7921 24.4998 19.016V2.83269C24.5002 0.66024 21.0268 0 19.2269 0L19.2274 5.6477e-05ZM23.9382 16.9638C23.9382 18.146 22.045 19.4119 19.2269 19.4119C16.4508 19.4119 14.5157 18.1217 14.5157 16.9638V16.3502C16.4344 18.6564 22.0229 18.652 23.9377 16.3502L23.9379 16.9638H23.9382ZM23.9382 14.9107C23.9382 16.093 22.045 17.3589 19.2269 17.3589C16.4508 17.3589 14.5157 16.0687 14.5157 14.9107V14.2971C16.4344 16.6033 22.0229 16.5989 23.9377 14.2971L23.9379 14.9107H23.9382ZM23.9382 12.8577C23.9382 14.0399 22.045 15.3058 19.2269 15.3058C16.4508 15.3058 14.5157 14.0156 14.5157 12.8577V12.2441C16.4344 14.5503 22.0229 14.5459 23.9377 12.2441L23.9379 12.8577H23.9382ZM23.9382 10.8046C23.9382 11.9869 22.045 13.2528 19.2269 13.2528C16.4508 13.2528 14.5157 11.9626 14.5157 10.8046V10.191C16.4344 12.4972 22.0229 12.4928 23.9377 10.191L23.9379 10.8046H23.9382ZM23.9382 8.75158C23.9382 9.93384 22.045 11.1997 19.2269 11.1997C16.4508 11.1997 14.5157 9.90954 14.5157 8.75158V8.13796C16.4344 10.4442 22.0229 10.4404 23.9377 8.13796L23.9379 8.75158H23.9382ZM23.9382 6.69853C23.9382 7.88079 22.045 9.14713 19.2269 9.14713C16.4508 9.14713 14.5157 7.85694 14.5157 6.69853V6.0849C16.4344 8.39111 22.0229 8.38671 23.9377 6.0849L23.9379 6.69853H23.9382ZM23.9382 4.64547C23.9382 5.82774 22.045 7.09363 19.2269 7.09363C16.4508 7.09363 14.5157 5.80344 14.5157 4.64547V4.12344C15.3672 5.03881 17.1123 5.63989 19.2274 5.63989C21.3418 5.63989 23.086 5.03904 23.9377 4.12434L23.9379 4.6455L23.9382 4.64547ZM19.2274 0.719065C21.9909 0.719065 23.9377 1.81945 23.9377 2.81958V2.82863C23.9261 3.81973 21.9954 4.92011 19.2274 4.92011C16.4507 4.92011 14.5157 3.81312 14.5157 2.81959C14.5157 1.82675 16.451 0.719074 19.2274 0.719074V0.719065ZM19.227 21.4649C16.4509 21.4649 14.5158 20.1747 14.5158 19.0167V18.4031C16.4345 20.7093 22.023 20.7049 23.9378 18.4031V19.0167C23.9376 20.199 22.0445 21.4649 19.2266 21.4649H19.227Z" fill="#7A7A7A"/>
<path d="M18.4677 3.382L18.1836 3.71752C18.4663 3.96209 18.7857 4.10248 19.1413 4.1389V4.42078H19.3906V4.14265C19.6554 4.12963 19.8682 4.05259 20.0291 3.91065C20.1903 3.76916 20.2706 3.58595 20.2706 3.3608C20.2706 3.13543 20.2005 2.96326 20.0602 2.84495C19.92 2.72641 19.7006 2.6326 19.4021 2.56263H19.3905V1.83661C19.5904 1.86486 19.776 1.93969 19.9474 2.06043L20.2005 1.70505C19.9459 1.53243 19.6763 1.43597 19.3906 1.41544V1.21833H19.1413V1.41147C18.8898 1.42449 18.6851 1.50219 18.5283 1.64347C18.3712 1.78496 18.2929 1.96751 18.2929 2.19001C18.2929 2.41295 18.3611 2.58071 18.4973 2.69394C18.6333 2.80762 18.8482 2.89857 19.1415 2.9681V3.71751C18.9102 3.68175 18.6859 3.57006 18.4677 3.38199L18.4677 3.382ZM19.3904 3.03456C19.5459 3.0807 19.6524 3.12992 19.7099 3.18268C19.7669 3.23543 19.7957 3.30695 19.7957 3.39701C19.7957 3.48774 19.7593 3.5619 19.6866 3.62084C19.6139 3.68021 19.5152 3.71619 19.3907 3.72878V3.03458L19.3904 3.03456ZM18.8456 2.34873C18.7935 2.2984 18.7676 2.23019 18.7676 2.1441C18.7676 2.0578 18.8006 1.98584 18.867 1.92779C18.9333 1.86974 19.0248 1.83574 19.1415 1.82559V2.49351C18.996 2.44716 18.8974 2.39903 18.8456 2.34871V2.34873Z" fill="#7A7A7A"/>
<path d="M11.0153 8.49764C11.6369 7.77321 11.522 7.35069 11.522 5.60979C11.522 5.60891 11.5213 5.60781 11.5213 5.60648C11.5175 3.94944 8.80252 3.05526 6.24795 3.05526C3.69108 3.05526 0.973715 3.95034 0.973715 5.60982C0.973715 5.61224 0.974405 5.61467 0.974405 5.6171V7.24018C0.974405 8.28581 1.90759 9.16479 3.36661 9.66252C2.85514 10.2691 2.96164 10.5931 2.96164 12.3177C2.96164 12.4548 2.98305 12.5877 3.01412 12.7186C1.88207 13.0786 0.314116 13.9364 0.528179 15.3844C0.513506 15.4274 0.505393 15.4756 0.505393 15.5254C0.505393 17.2991 0.433409 17.5515 0.815421 18.1471C0.577031 18.5107 0.460684 18.9111 0.527833 19.3738C0.491755 19.4826 0.505392 21.0255 0.505392 21.1445C0.505392 24.9508 11.053 24.9529 11.053 21.1445C11.053 21.0251 11.0657 19.4879 11.0319 19.3806C11.1189 18.8034 10.8867 18.2741 10.7174 18.1866C10.9318 17.8679 11.053 17.5202 11.053 17.1501C11.053 17.0326 11.0664 15.4983 11.0316 15.3895C11.0613 15.1935 11.0677 15.0295 11.0124 14.7763C12.531 14.2842 13.5089 13.3883 13.5089 12.317V10.6917C13.5089 10.686 13.5066 10.6812 13.5063 10.6754C13.4976 9.73224 12.5809 8.94197 11.0153 8.49765L11.0153 8.49764ZM6.24753 3.77481C9.16659 3.77481 10.9588 4.84405 10.9588 5.61019C10.9588 6.37633 9.16641 7.44557 6.24753 7.44557C3.31606 7.44557 1.5363 6.36819 1.5363 5.61019C1.5363 5.60931 1.53595 5.60864 1.53595 5.60776C1.53975 4.84117 3.33122 3.77475 6.24719 3.77475L6.24753 3.77481ZM1.5363 7.23988V6.80879C2.53524 7.76479 4.48381 8.09768 5.76311 8.15329H5.76915C7.49142 8.22811 9.85459 7.86611 10.959 6.80788V7.23942C10.959 8.25306 9.02353 9.38254 6.24553 9.38254C3.47063 9.38321 1.53606 8.25351 1.53606 7.23987L1.5363 7.23988ZM10.3635 9.07001C12.0576 9.43047 12.9447 10.1512 12.9447 10.6895C12.9447 11.2372 12.0264 11.9371 10.44 12.2939C6.34365 13.1128 1.98661 11.4041 4.09807 9.87016C5.97465 10.3013 8.70546 10.1818 10.3635 9.07001ZM10.4902 16.4703V17.1502C10.4902 18.1662 8.55614 19.2981 5.78075 19.2981C3.0031 19.2981 1.0673 18.1662 1.0673 17.1502V16.4712C2.89121 18.4514 8.67572 18.4419 10.4902 16.4703V16.4703ZM10.4914 19.1308C10.4914 20.2049 8.5931 20.8455 7.74516 21.0285C3.96525 21.7869 0.271522 20.1683 1.2265 18.6335C3.20887 20.487 8.38814 20.4808 10.3494 18.6176C10.4013 18.8359 10.4914 18.8416 10.4914 19.1308L10.4914 19.1308ZM10.4902 21.1441C10.4902 22.1602 8.55614 23.2921 5.78075 23.2921C3.0031 23.2921 1.0673 22.1602 1.0673 21.1441V20.4648C2.89073 22.4498 8.68324 22.4315 10.4898 20.4648L10.4902 21.1441ZM7.76087 17.0312C2.58695 18.0817 -1.71949 14.8435 3.30683 13.3692C4.45461 15.0479 7.91157 15.5465 10.4636 14.9318C10.7515 16.0186 8.79849 16.8045 7.76087 17.0312V17.0312ZM12.9467 12.3172C12.9467 13.5504 10.4611 14.4652 8.23328 14.4652C5.4582 14.4652 3.52381 13.3333 3.52381 12.3172V11.9503C5.29734 13.661 11.1716 13.6619 12.9463 11.9503L12.9467 12.3172Z" fill="#7A7A7A"/>
<path d="M5.66942 6.09949L5.45312 6.3924C5.66839 6.60519 5.91126 6.72748 6.18157 6.75926V7.00472H6.37129V6.76257C6.57257 6.75154 6.73466 6.68399 6.85686 6.56082C6.97942 6.43721 7.04053 6.2774 7.04053 6.08139C7.04053 5.88537 6.98736 5.73527 6.88085 5.63219C6.774 5.52867 6.60759 5.44722 6.3799 5.38629H6.37127V4.75391C6.52318 4.77885 6.66455 4.84397 6.79454 4.94904L6.98719 4.63934C6.79368 4.4888 6.58826 4.40537 6.37112 4.38705V4.21598H6.1814V4.38418C5.98979 4.39522 5.83426 4.46276 5.71496 4.58593C5.59534 4.70955 5.53578 4.86825 5.53578 5.06206C5.53578 5.25587 5.58757 5.40243 5.69131 5.50066C5.79523 5.59933 5.95836 5.67901 6.18175 5.73994V6.39244C6.00619 6.36131 5.8353 6.26286 5.66939 6.09952L5.66942 6.09949ZM6.37149 5.79686C6.48991 5.83703 6.57104 5.8803 6.61402 5.92621C6.65752 5.97278 6.67928 6.03503 6.67928 6.11317C6.67928 6.19175 6.65148 6.25709 6.59642 6.3083C6.54135 6.35951 6.46591 6.3913 6.37149 6.40234L6.37149 5.79686ZM5.95668 5.19957C5.91732 5.15586 5.89747 5.09648 5.89747 5.02166C5.89747 4.94639 5.92267 4.88348 5.9729 4.8327C6.02314 4.78238 6.09287 4.75258 6.18178 4.74397V5.32606C6.07113 5.28522 5.99604 5.24351 5.95668 5.19958V5.19957Z" fill="#7A7A7A"/>
</svg>
