<?xml version="1.0" encoding="utf-8"?><svg xmlns="http://www.w3.org/2000/svg" xmlns:xlink="http://www.w3.org/1999/xlink"><symbol viewBox="0 0 22 24" id="basket" xmlns="http://www.w3.org/2000/svg"><g clip-path="url(#aa)"><path d="M10.363 18.443a2.046 2.046 0 00-2.045 2.042 2.046 2.046 0 004.09 0 2.046 2.046 0 00-2.045-2.042zm6.134 0a2.046 2.046 0 00-2.045 2.042 2.046 2.046 0 004.089 0 2.046 2.046 0 00-2.044-2.042zm3.978-8.199L7.413 6.891a.614.614 0 00-.75.73L8.67 16.4h-.786L5.482 5.895a.613.613 0 00-.474-.464l-4.27-.882A.614.614 0 00.489 5.75l3.885.802L6.797 17.15a.613.613 0 00.598.477h12.07a.615.615 0 00.607-.53l.858-6.175a.613.613 0 00-.455-.678zm-8.14 3.91a.613.613 0 01-1.227 0v-2.696a.613.613 0 011.227 0v2.696zm2.625 0a.613.613 0 01-1.227 0v-1.88a.613.613 0 011.227 0v1.88zm2.625 0a.613.613 0 01-1.227 0v-1.226a.613.613 0 011.227 0v1.226z"/></g><path fill-rule="evenodd" clip-rule="evenodd" d="M16.268 4.568a2.996 2.996 0 00-1.693-.523c-.627 0-1.21.193-1.693.523-.28-.843-.492-1.752-.492-2.383C12.39.98 13.37 0 14.575 0s2.185.98 2.185 2.185c0 .631-.212 1.54-.492 2.383zm-4.722 2.274l.024.006v-.011l-.024.005zm4.972 1.217c-1.333-.33-2.766-.681-4.129-1.013a2.185 2.185 0 114.129 1.013zm4.436 1.103c-.866-.217-2.155-.538-3.618-.9a2.995 2.995 0 00.243-1.425c.87.18 1.762.45 2.308.765.596.344.969.928 1.067 1.56zM9.869 6.439c-.36-.086-.706-.167-1.03-.243a2.19 2.19 0 01-.376-2.667 2.188 2.188 0 013.147-.7c.098.738.338 1.599.61 2.353a3.01 3.01 0 00-.449.774c-.628.113-1.305.278-1.902.483zm10.124.075a3.43 3.43 0 01-.217.114c-.696-.295-1.587-.526-2.397-.672a3.01 3.01 0 00-.449-.774c.262-.727.494-1.553.599-2.273.095-.067.189-.128.278-.18a2.188 2.188 0 012.986.8 2.188 2.188 0 01-.8 2.985z"/><defs><clipPath id="aa"><path transform="translate(0 3.064)" d="M0 0h20.936v20.936H0z"/></clipPath></defs></symbol><symbol viewBox="0 0 24 24" id="calc" xmlns="http://www.w3.org/2000/svg"><path d="M18.953 0H5.047a2.111 2.111 0 00-2.109 2.11v19.78c0 1.164.946 2.11 2.11 2.11h13.905a2.111 2.111 0 002.109-2.11V2.11c0-1.164-.946-2.11-2.11-2.11zM5.802 4.141c0-.309.253-.562.562-.562h11.46c.31 0 .562.253.562.562v2.145c0 .31-.253.562-.562.562H6.364a.564.564 0 01-.562-.562V4.14zm6.856 7.69h-1.316a.703.703 0 01-.703-.703v-.956c0-.388.315-.703.704-.703h1.315c.388 0 .703.315.703.703v.956a.703.703 0 01-.704.703zm.703 2.87v.956a.703.703 0 01-.704.703h-1.315a.703.703 0 01-.703-.703v-.955c0-.389.315-.704.704-.704h1.315c.388 0 .703.315.703.704zm-5.026 5.485a.703.703 0 01-.703.703H6.317a.703.703 0 01-.704-.703v-.955c0-.389.315-.703.704-.703h1.315c.388 0 .703.314.703.703v.955zm0-4.529a.703.703 0 01-.703.703H6.317a.703.703 0 01-.704-.703v-.955c0-.389.315-.704.704-.704h1.315c.388 0 .703.315.703.704v.955zm0-4.53a.703.703 0 01-.703.704H6.317a.703.703 0 01-.704-.703v-.956c0-.388.315-.703.704-.703h1.315c.388 0 .703.315.703.703v.956zm10.051 9.06a.703.703 0 01-.703.702h-6.34a.703.703 0 01-.704-.703v-.955c0-.389.315-.703.704-.703h6.34c.389 0 .703.314.703.703v.955zm0-4.53a.703.703 0 01-.703.703h-1.315a.703.703 0 01-.703-.703v-.955c0-.389.315-.704.703-.704h1.315c.389 0 .703.315.703.704v.955zm0-4.53a.703.703 0 01-.703.704h-1.315a.703.703 0 01-.703-.703v-.956c0-.388.315-.703.703-.703h1.315c.389 0 .703.315.703.703v.956z"/></symbol><symbol viewBox="0 0 344.96 344.96" id="check" xmlns="http://www.w3.org/2000/svg"><g data-name="Слой 2"><path class="ccls-1" d="M321.85 86.24l-40-23.11-23.1-40H212.5L172.48 0l-40 23.11H86.24l-23.11 40-40 23.1v46.21L0 172.48l23.11 40v46.21l40 23.11 23.11 40h46.21l40 23.1 40-23.11h46.21l23.11-40 40-23.11V212.5l23.11-40-23.11-40V86.24zM156.91 243.07a16.79 16.79 0 01-23.34 0l-50.45-50.44a16.19 16.19 0 010-22.89l13.35-13.35a16.19 16.19 0 0122.89 0l25.87 25.87 80.34-80.35a16.19 16.19 0 0122.89 0l13.35 13.35a16.19 16.19 0 010 22.89z" data-name="Capa 1"/></g></symbol><symbol viewBox="0 0 7 10" id="chevron-left" xmlns="http://www.w3.org/2000/svg"><path d="M5.5 1l-4 4 4 4"/></symbol><symbol viewBox="0 0 7 10" id="chevron-right" xmlns="http://www.w3.org/2000/svg"><path d="M1.5 1l4 4-4 4"/></symbol><symbol viewBox="0 0 16 17" id="clock" xmlns="http://www.w3.org/2000/svg"><g clip-path="url(#fa)"><path d="M8 .5a8 8 0 108 8 8.009 8.009 0 00-8-8zm.571 8A.571.571 0 018 9.071H3.429a.571.571 0 110-1.142h4v-4a.571.571 0 111.142 0V8.5z"/></g><defs><clipPath id="fa"><path transform="translate(0 .5)" d="M0 0h16v16H0z"/></clipPath></defs></symbol><symbol viewBox="0 0 16 16" id="compare" xmlns="http://www.w3.org/2000/svg"><g clip-path="url(#ga)"><path d="M13.237 5.274l2.42-.672a.469.469 0 10-.251-.903l-3.008.835-3.93 1.092V.469a.469.469 0 00-.937 0v5.417l-4.17 1.159-3.018.838a.469.469 0 00.251.903l1.881-.522-2.408 4.014a.469.469 0 00-.067.24A3.485 3.485 0 003.481 16a3.485 3.485 0 003.482-3.481.47.47 0 00-.067-.241L4.2 7.785l7.312-2.032-2.408 4.014a.469.469 0 00-.067.242 3.485 3.485 0 003.482 3.48c.93 0 1.804-.362 2.461-1.019A3.459 3.459 0 0016 10.008a.468.468 0 00-.067-.24l-2.696-4.494zM5.666 12.05h-4.37l2.186-3.64 2.185 3.641zm4.668-2.51l2.185-3.642 2.184 3.642h-4.369z"/></g><defs><clipPath id="ga"><path d="M0 0h16v16H0z"/></clipPath></defs></symbol><symbol viewBox="0 0 24 24" id="designer" xmlns="http://www.w3.org/2000/svg"><g clip-path="url(#ha)"><path d="M7.813 15.676c.058 1.246 1.842 1.245 1.899 0-.621.08-1.277.08-1.899 0zM6.249 6.298c3.337 2.31 9.966.811 8.93-4.275a8.19 8.19 0 00-.325-.953.703.703 0 00-1.138-.241c-1.305 1.252-3.252 1.33-4.954 1.33A6.095 6.095 0 002.77 7.185l.38-.001a6.798 6.798 0 003.099-.886z"/><path d="M8.762 14.33c3.737.037 6.675-3.478 5.993-7.145-2.281 1.886-5.937 2.041-8.548.709a8.28 8.28 0 01-3.52.697 6.093 6.093 0 006.075 5.738z"/><path d="M13.735 13.843a7.494 7.494 0 01-2.617 1.513c.165 3.537-4.875 3.537-4.711.002a7.449 7.449 0 01-2.618-1.515C1.44 15.465-.02 18.2 0 21.05v1.614c0 .388.315.703.703.703h16.118a.703.703 0 00.703-.703V21.05c.02-2.85-1.439-5.586-3.79-7.207zm5.718-2.452H24v7.43h-4.547v-7.43zm0 11.273c0 .388.315.703.703.703h3.14a.703.703 0 00.704-.703v-2.438h-4.547v2.438zm2.902-15.525c-.25-.515-1.007-.515-1.257 0l-1.423 2.846h4.104l-1.424-2.846z"/></g><defs><clipPath id="ha"><path d="M0 0h24v24H0z"/></clipPath></defs></symbol><symbol viewBox="0 0 16 17" id="email" xmlns="http://www.w3.org/2000/svg"><path fill-rule="evenodd" clip-rule="evenodd" d="M10.773 9.286l3.299 4.101a1.5 1.5 0 01-.572.113h-11a1.5 1.5 0 01-.571-.113l3.298-4.101a2.452 2.452 0 001.73.714h2.087c.651 0 1.272-.26 1.729-.714zm-9.59-5.004L4.576 8.5l-3.393 4.218A1.501 1.501 0 011 12V5c0-.253.064-.5.183-.718zm13.634 0A1.5 1.5 0 0115 5v7c0 .253-.064.5-.183.718L11.424 8.5l3.393-4.218zM1.928 3.613A1.5 1.5 0 012.5 3.5h11a1.5 1.5 0 01.572.113l-3.898 4.846A1.45 1.45 0 019.044 9H6.955a1.45 1.45 0 01-1.13-.541L1.929 3.613z"/></symbol><symbol viewBox="0 0 10 10" id="fb" xmlns="http://www.w3.org/2000/svg"><path d="M7.5.002L6.203 0C4.746 0 3.804.966 3.804 2.461v1.135H2.501a.204.204 0 00-.204.204v1.644c0 .112.091.204.204.204h1.303v4.148c0 .113.092.204.204.204H5.71a.204.204 0 00.204-.204V5.648h1.525a.204.204 0 00.204-.204V3.8a.204.204 0 00-.204-.204H5.913v-.962c0-.463.11-.697.713-.697h.873a.204.204 0 00.204-.204V.206A.204.204 0 007.5.002z"/></symbol><symbol viewBox="0 0 16 16" id="forward" xmlns="http://www.w3.org/2000/svg"><path d="M8 0L6.59 1.41 12.17 7H0v2h12.17l-5.58 5.59L8 16l8-8-8-8z"/></symbol><symbol viewBox="0 0 10 10" id="instagram" xmlns="http://www.w3.org/2000/svg"><g clip-path="url(#la)"><path d="M6.875 0h-3.75A3.125 3.125 0 000 3.125v3.75C0 8.601 1.4 10 3.125 10h3.75C8.601 10 10 8.6 10 6.875v-3.75C10 1.399 8.6 0 6.875 0zm2.187 6.875a2.19 2.19 0 01-2.187 2.188h-3.75A2.19 2.19 0 01.937 6.874v-3.75A2.19 2.19 0 013.125.937h3.75a2.19 2.19 0 012.187 2.188v3.75z"/><path d="M5 2.5a2.5 2.5 0 100 5 2.5 2.5 0 000-5zm0 4.063A1.565 1.565 0 013.437 5c0-.862.702-1.563 1.563-1.563S6.562 4.138 6.562 5c0 .861-.7 1.563-1.562 1.563zm2.687-3.917a.333.333 0 100-.667.333.333 0 000 .667z"/></g><defs><clipPath id="la"><path d="M0 0h10v10H0z"/></clipPath></defs></symbol><symbol viewBox="0 0 16 16" id="like" xmlns="http://www.w3.org/2000/svg"><path d="M14.73 2.268a4.302 4.302 0 00-3.2-1.393c-.923 0-1.769.292-2.514.868A5.14 5.14 0 008 2.804a5.14 5.14 0 00-1.016-1.061A4.025 4.025 0 004.47.875a4.303 4.303 0 00-3.2 1.393C.45 3.156 0 4.368 0 5.683c0 1.354.504 2.592 1.587 3.899.968 1.168 2.36 2.354 3.972 3.728.55.47 1.175 1.001 1.822 1.567a.938.938 0 001.237 0 186.14 186.14 0 011.823-1.567c1.612-1.374 3.004-2.56 3.972-3.728C15.496 8.275 16 7.037 16 5.683c0-1.314-.45-2.527-1.27-3.415z"/></symbol><symbol viewBox="0 0 16 17" id="location" xmlns="http://www.w3.org/2000/svg"><g clip-path="url(#na)"><path d="M8 11.803a4.258 4.258 0 100-8.516 4.258 4.258 0 000 8.516z"/><path d="M13.004 2.573A7.03 7.03 0 008 .5a7.03 7.03 0 00-5.004 2.073A7.03 7.03 0 00.924 7.576a7.08 7.08 0 005.57 6.915L8 16.5l1.507-2.009a7.079 7.079 0 005.57-6.915 7.03 7.03 0 00-2.073-5.003zM8 2.347a5.204 5.204 0 015.198 5.198A5.204 5.204 0 018 12.743a5.204 5.204 0 01-5.198-5.198A5.204 5.204 0 018 2.347z"/></g><defs><clipPath id="na"><path transform="translate(0 .5)" d="M0 0h16v16H0z"/></clipPath></defs></symbol><symbol viewBox="0 0 16 16" id="search" xmlns="http://www.w3.org/2000/svg"><path d="M15.489 14.573l-3.808-3.96a6.44 6.44 0 001.515-4.153A6.467 6.467 0 006.736 0a6.467 6.467 0 00-6.46 6.46 6.467 6.467 0 006.46 6.46 6.39 6.39 0 003.701-1.169l3.837 3.99c.16.167.376.259.608.259a.844.844 0 00.607-1.427zM6.736 1.685a4.78 4.78 0 014.775 4.775 4.78 4.78 0 01-4.775 4.775A4.78 4.78 0 011.962 6.46a4.78 4.78 0 014.774-4.775z"/></symbol><symbol viewBox="0 0 16 16" id="telegram" xmlns="http://www.w3.org/2000/svg"><path d="M14.629 3.698l-2.012 9.618c-.152.679-.548.848-1.11.528l-3.066-2.29-1.48 1.442c-.163.166-.3.305-.616.305l.22-3.165 5.683-5.204c.247-.223-.054-.347-.384-.123L4.839 9.29l-3.024-.959c-.658-.208-.67-.667.137-.986L13.78 2.727c.548-.208 1.027.124.849.971z"/></symbol><symbol viewBox="0 0 16 17" id="time" xmlns="http://www.w3.org/2000/svg"><path d="M8 .5a8 8 0 108 8 8.009 8.009 0 00-8-8zm.571 8A.571.571 0 018 9.071H3.429a.571.571 0 110-1.142h4v-4a.571.571 0 111.142 0V8.5z"/></symbol><symbol viewBox="0 0 16 16" id="viber" xmlns="http://www.w3.org/2000/svg"><g clip-path="url(#ra)"><path d="M15.437 9.262c.477-4.018-.23-6.555-1.504-7.702C11.876-.4 4.928-.69 2.467 1.646 1.36 2.791.972 4.47.929 6.546c-.042 2.078-.093 5.97 3.534 7.027h.004l-.004 1.612s-.024.654.393.785c.477.155.693-.149 2.178-1.922 2.483.215 4.39-.278 4.606-.35.501-.168 3.338-.543 3.797-4.436zm-8.158 3.651s-1.572 1.96-2.06 2.468c-.16.166-.336.15-.333-.178l.012-2.677c-3.075-.881-2.894-4.196-2.86-5.93.033-1.735.35-3.155 1.286-4.112 2.16-2.025 8.25-1.572 9.803-.113 1.897 1.682 1.222 6.434 1.226 6.596-.39 3.249-2.689 3.455-3.112 3.596-.18.06-1.857.491-3.962.35z"/><path d="M8.148 2.864c-.257 0-.257.4 0 .404 1.991.015 3.631 1.403 3.65 3.949 0 .269.393.265.39-.003h-.001c-.022-2.744-1.812-4.334-4.04-4.35z"/><path d="M10.767 6.795c-.006.266.387.278.39.01.033-1.513-.9-2.759-2.652-2.89-.257-.019-.284.384-.028.403 1.52.115 2.321 1.153 2.29 2.477zm-.42 1.721c-.329-.19-.664-.072-.803.116l-.29.375c-.147.19-.423.165-.423.165-2.009-.53-2.546-2.634-2.546-2.634s-.025-.284.159-.437l.363-.3c.181-.144.296-.49.111-.831-.493-.892-.825-1.199-.993-1.435-.178-.222-.444-.272-.722-.122h-.006c-.576.337-1.208.969-1.006 1.619.345.685.978 2.87 2.997 4.52.949.781 2.45 1.581 3.087 1.766l.006.01c.628.208 1.239-.448 1.565-1.042v-.004c.145-.288.097-.56-.115-.738-.374-.365-.94-.768-1.384-1.028z"/><path d="M8.78 5.403c.64.037.95.372.984 1.06.012.268.402.25.39-.02C10.11 5.546 9.644 5.046 8.8 5c-.257-.015-.281.388-.022.404z"/></g><defs><clipPath id="ra"><path d="M0 0h16v16H0z"/></clipPath></defs></symbol><symbol viewBox="0 0 10 10" id="vk" xmlns="http://www.w3.org/2000/svg"><g clip-path="url(#sa)"><path d="M9.91 7.237c-.026-.045-.192-.407-.992-1.15-.838-.777-.725-.65.283-1.995.615-.819.86-1.319.784-1.533-.074-.203-.526-.15-.526-.15l-1.502.01s-.111-.016-.195.034c-.08.048-.132.16-.132.16s-.238.635-.556 1.173c-.67 1.137-.937 1.197-1.047 1.127-.254-.165-.19-.662-.19-1.014 0-1.102.167-1.561-.326-1.68-.164-.04-.284-.066-.702-.07-.536-.006-.99.002-1.247.127-.172.084-.304.27-.223.282.1.013.324.06.444.223.154.21.149.68.149.68s.088 1.297-.207 1.459c-.203.11-.482-.115-1.079-1.147-.305-.529-.536-1.113-.536-1.113s-.045-.109-.124-.167c-.096-.07-.231-.093-.231-.093l-1.43.009s-.214.006-.292.1c-.07.082-.006.254-.006.254S1.146 5.38 2.412 6.699c1.162 1.21 2.48 1.13 2.48 1.13h.598s.181-.02.273-.12c.085-.09.082-.262.082-.262s-.012-.802.36-.92c.367-.116.839.775 1.338 1.118.378.26.665.203.665.203l1.335-.019s.699-.043.368-.592z"/></g><defs><clipPath id="sa"><path d="M0 0h10v10H0z"/></clipPath></defs></symbol><symbol viewBox="0 0 16 16" id="whatsapp" xmlns="http://www.w3.org/2000/svg"><g clip-path="url(#ta)"><path d="M11.671 9.538l-.006.05c-1.466-.73-1.619-.828-1.808-.544-.132.197-.514.643-.63.775-.116.13-.232.14-.43.05-.2-.1-.842-.31-1.602-.99-.592-.53-.99-1.18-1.107-1.38-.195-.338.213-.386.585-1.09.067-.14.033-.25-.016-.349-.05-.1-.448-1.08-.615-1.47-.16-.39-.325-.34-.448-.34-.384-.034-.665-.029-.912.229-1.076 1.182-.805 2.402.116 3.7 1.81 2.368 2.773 2.804 4.536 3.409.476.151.91.13 1.253.08.383-.06 1.178-.48 1.344-.95.17-.47.17-.86.12-.95-.049-.09-.18-.14-.38-.23z"/><path d="M13.68 2.3C8.554-2.657.07.937.067 7.928a7.89 7.89 0 001.064 3.963L0 16l4.223-1.101c5.27 2.846 11.774-.934 11.777-6.966 0-2.118-.827-4.11-2.33-5.608l.01-.026zm.988 5.61c-.004 5.09-5.59 8.267-10.008 5.67l-.24-.143-2.5.65.67-2.43-.16-.25C-.318 7.031 2.84 1.311 8.049 1.311c1.77 0 3.43.69 4.68 1.94a6.525 6.525 0 011.94 4.66z"/></g><defs><clipPath id="ta"><path d="M0 0h16v16H0z"/></clipPath></defs></symbol></svg>