<?xml version="1.0" encoding="utf-8"?><svg xmlns="http://www.w3.org/2000/svg" xmlns:xlink="http://www.w3.org/1999/xlink"><symbol viewBox="0 0 16 17" id="arrow-right" xmlns="http://www.w3.org/2000/svg"><g clip-path="url(#aaa)"><path d="M8 .5L6.59 1.91l5.58 5.59H0v2h12.17l-5.58 5.59L8 16.5l8-8-8-8z"/></g><defs><clipPath id="aaa"><path transform="translate(0 .5)" d="M0 0h16v16H0z"/></clipPath></defs></symbol><symbol viewBox="0 0 22 24" id="basket" xmlns="http://www.w3.org/2000/svg"><g clip-path="url(#aba)"><path d="M10.363 18.443a2.046 2.046 0 00-2.045 2.042 2.046 2.046 0 004.09 0 2.046 2.046 0 00-2.045-2.042zm6.134 0a2.046 2.046 0 00-2.045 2.042 2.046 2.046 0 004.089 0 2.046 2.046 0 00-2.044-2.042zm3.978-8.199L7.413 6.891a.614.614 0 00-.75.73L8.67 16.4h-.786L5.482 5.895a.613.613 0 00-.474-.464l-4.27-.882A.614.614 0 00.489 5.75l3.885.802L6.797 17.15a.613.613 0 00.598.477h12.07a.615.615 0 00.607-.53l.858-6.175a.613.613 0 00-.455-.678zm-8.14 3.91a.613.613 0 01-1.227 0v-2.696a.613.613 0 011.227 0v2.696zm2.625 0a.613.613 0 01-1.227 0v-1.88a.613.613 0 011.227 0v1.88zm2.625 0a.613.613 0 01-1.227 0v-1.226a.613.613 0 011.227 0v1.226z"/></g><path fill-rule="evenodd" clip-rule="evenodd" d="M16.268 4.568a2.996 2.996 0 00-1.693-.523c-.627 0-1.21.193-1.693.523-.28-.843-.492-1.752-.492-2.383C12.39.98 13.37 0 14.575 0s2.185.98 2.185 2.185c0 .631-.212 1.54-.492 2.383zm-4.722 2.274l.024.006v-.011l-.024.005zm4.972 1.217c-1.333-.33-2.766-.681-4.129-1.013a2.185 2.185 0 114.129 1.013zm4.436 1.103c-.866-.217-2.155-.538-3.618-.9a2.995 2.995 0 00.243-1.425c.87.18 1.762.45 2.308.765.596.344.969.928 1.067 1.56zM9.869 6.439c-.36-.086-.706-.167-1.03-.243a2.19 2.19 0 01-.376-2.667 2.188 2.188 0 013.147-.7c.098.738.338 1.599.61 2.353a3.01 3.01 0 00-.449.774c-.628.113-1.305.278-1.902.483zm10.124.075a3.43 3.43 0 01-.217.114c-.696-.295-1.587-.526-2.397-.672a3.01 3.01 0 00-.449-.774c.262-.727.494-1.553.599-2.273.095-.067.189-.128.278-.18a2.188 2.188 0 012.986.8 2.188 2.188 0 01-.8 2.985z"/><defs><clipPath id="aba"><path transform="translate(0 3.064)" d="M0 0h20.936v20.936H0z"/></clipPath></defs></symbol><symbol viewBox="0 0 24 24" id="calc" xmlns="http://www.w3.org/2000/svg"><path d="M18.953 0H5.047a2.111 2.111 0 00-2.109 2.11v19.78c0 1.164.946 2.11 2.11 2.11h13.905a2.111 2.111 0 002.109-2.11V2.11c0-1.164-.946-2.11-2.11-2.11zM5.802 4.141c0-.309.253-.562.562-.562h11.46c.31 0 .562.253.562.562v2.145c0 .31-.253.562-.562.562H6.364a.564.564 0 01-.562-.562V4.14zm6.856 7.69h-1.316a.703.703 0 01-.703-.703v-.956c0-.388.315-.703.704-.703h1.315c.388 0 .703.315.703.703v.956a.703.703 0 01-.704.703zm.703 2.87v.956a.703.703 0 01-.704.703h-1.315a.703.703 0 01-.703-.703v-.955c0-.389.315-.704.704-.704h1.315c.388 0 .703.315.703.704zm-5.026 5.485a.703.703 0 01-.703.703H6.317a.703.703 0 01-.704-.703v-.955c0-.389.315-.703.704-.703h1.315c.388 0 .703.314.703.703v.955zm0-4.529a.703.703 0 01-.703.703H6.317a.703.703 0 01-.704-.703v-.955c0-.389.315-.704.704-.704h1.315c.388 0 .703.315.703.704v.955zm0-4.53a.703.703 0 01-.703.704H6.317a.703.703 0 01-.704-.703v-.956c0-.388.315-.703.704-.703h1.315c.388 0 .703.315.703.703v.956zm10.051 9.06a.703.703 0 01-.703.702h-6.34a.703.703 0 01-.704-.703v-.955c0-.389.315-.703.704-.703h6.34c.389 0 .703.314.703.703v.955zm0-4.53a.703.703 0 01-.703.703h-1.315a.703.703 0 01-.703-.703v-.955c0-.389.315-.704.703-.704h1.315c.389 0 .703.315.703.704v.955zm0-4.53a.703.703 0 01-.703.704h-1.315a.703.703 0 01-.703-.703v-.956c0-.388.315-.703.703-.703h1.315c.389 0 .703.315.703.703v.956z"/></symbol><symbol viewBox="0 0 344.96 344.96" id="check" xmlns="http://www.w3.org/2000/svg"><g data-name="Слой 2"><path class="adcls-1" d="M321.85 86.24l-40-23.11-23.1-40H212.5L172.48 0l-40 23.11H86.24l-23.11 40-40 23.1v46.21L0 172.48l23.11 40v46.21l40 23.11 23.11 40h46.21l40 23.1 40-23.11h46.21l23.11-40 40-23.11V212.5l23.11-40-23.11-40V86.24zM156.91 243.07a16.79 16.79 0 01-23.34 0l-50.45-50.44a16.19 16.19 0 010-22.89l13.35-13.35a16.19 16.19 0 0122.89 0l25.87 25.87 80.34-80.35a16.19 16.19 0 0122.89 0l13.35 13.35a16.19 16.19 0 010 22.89z" data-name="Capa 1"/></g></symbol><symbol viewBox="0 0 7 10" id="chevron-left" xmlns="http://www.w3.org/2000/svg"><path d="M5.5 1l-4 4 4 4"/></symbol><symbol viewBox="0 0 7 10" id="chevron-right" xmlns="http://www.w3.org/2000/svg"><path d="M1.5 1l4 4-4 4"/></symbol><symbol viewBox="0 0 16 17" id="clock" xmlns="http://www.w3.org/2000/svg"><g clip-path="url(#aga)"><path d="M8 .5a8 8 0 108 8 8.009 8.009 0 00-8-8zm.571 8A.571.571 0 018 9.071H3.429a.571.571 0 110-1.142h4v-4a.571.571 0 111.142 0V8.5z"/></g><defs><clipPath id="aga"><path transform="translate(0 .5)" d="M0 0h16v16H0z"/></clipPath></defs></symbol><symbol viewBox="0 0 32 32" id="color" xmlns="http://www.w3.org/2000/svg"><path d="M3.233 15.957a2.95 2.95 0 002.68 4.173c.346 0 .695-.062 1.03-.187a2.928 2.928 0 001.65-1.536 2.928 2.928 0 00.082-2.254 2.928 2.928 0 00-1.536-1.651 2.95 2.95 0 00-3.906 1.455zm3.516-.603c.488.223.86.623 1.047 1.126a1.996 1.996 0 01-.055 1.537c-.223.488-.623.86-1.126 1.047a2.012 2.012 0 01-1.403-3.766 2.002 2.002 0 011.537.055zm.867 7.95a2.95 2.95 0 002.676 4.172c1.118 0 2.19-.64 2.685-1.722a2.95 2.95 0 00-1.456-3.905 2.95 2.95 0 00-3.905 1.455zm.853.39c.223-.488.623-.86 1.126-1.047a2.008 2.008 0 011.537.055 2.012 2.012 0 01.992 2.662 2.012 2.012 0 01-2.663.993 2.012 2.012 0 01-.992-2.663zm11.576-.601a2.95 2.95 0 00-3.905 1.456 2.95 2.95 0 002.675 4.172c1.119 0 2.19-.64 2.685-1.722a2.95 2.95 0 00-1.455-3.905zm.602 3.516a2.011 2.011 0 01-2.662.992 2.012 2.012 0 01-.993-2.662 2.012 2.012 0 012.663-.993 2.012 2.012 0 01.992 2.663zm2.73-4.751a2.951 2.951 0 003.905-1.455 2.95 2.95 0 00-1.455-3.906 2.95 2.95 0 00-3.905 1.456 2.95 2.95 0 001.455 3.905zm-.602-3.516a2.012 2.012 0 012.662-.992 2.012 2.012 0 01.992 2.663 2.012 2.012 0 01-2.662.992 2.012 2.012 0 01-.992-2.663zM12.614 11.06a2.95 2.95 0 00-1.455-3.906 2.95 2.95 0 00-3.905 1.455 2.95 2.95 0 002.676 4.172 2.95 2.95 0 002.684-1.722zm-.853-.39a2.012 2.012 0 01-2.662.992 2.012 2.012 0 01-.992-2.663 2.012 2.012 0 012.662-.992 2.011 2.011 0 01.992 2.662z"/><path d="M28.773 4.228a.469.469 0 00.71.613l1.819-2.102a1.665 1.665 0 00-.15-2.32 1.665 1.665 0 00-2.323.113l-6.92 7.544c-.498-.527-.859-1.19-1.034-2.117-.08-.42-.11-.879-.142-1.364-.096-1.444-.205-3.081-1.75-3.988-1.56-.914-3.573-.786-6.155.39C7.84 3.27 3.401 7.488 1.521 11.742c-.048.11-.096.22-.141.33a.469.469 0 10.867.358c.042-.103.087-.207.132-.309.915-2.07 2.476-4.158 4.515-6.036 1.876-1.728 4.122-3.232 6.323-4.235 2.284-1.04 4.015-1.182 5.291-.434 1.117.655 1.201 1.911 1.29 3.241.032.492.066 1 .156 1.477.22 1.168.695 1.994 1.32 2.635l-3.902 4.252c-.18-.03-.363-.05-.55-.056-.97-.031-1.86.285-2.434.869-.44.447-.731.877-1.003 1.486-.21.47-.373.952-.611 1.416-.233.453-.685.797-1.138 1.102-.323.217-.372.495-.372.64-.002.311.195.61.568.864.172.118.372.225.609.326a6.472 6.472 0 002.544.504c.345 0 .695-.025 1.047-.076a6.56 6.56 0 001.872-.544c1.127-.534 2.005-1.601 2.237-2.72a2.957 2.957 0 00-.014-1.229l4.237-4.87c.31.156.627.318.943.492a7.97 7.97 0 012.284 1.864c1.343 1.606 1.696 3.543 1.756 4.884.095 2.148-.49 4.354-1.693 6.38a14.138 14.138 0 01-4.698 4.779c-3.797 2.352-9.234 2.577-13.85.574-2.075-.9-3.902-2.375-5.283-4.264a13.352 13.352 0 01-2.5-6.336c-.18-1.57-.085-3.147.282-4.687a.469.469 0 00-.912-.218 14.422 14.422 0 00-.3 5.012 14.291 14.291 0 002.673 6.783c1.48 2.023 3.439 3.603 5.666 4.57A17.52 17.52 0 0015.668 32c2.825 0 5.563-.697 7.781-2.071a15.083 15.083 0 005.011-5.097c1.296-2.184 1.927-4.57 1.823-6.9-.094-2.131-.776-4.014-1.973-5.445a8.897 8.897 0 00-2.55-2.084 26.15 26.15 0 00-.761-.4l3.068-3.527a.469.469 0 00-.709-.614l-6.318 7.3-1.406-1.256 9.885-10.739a.723.723 0 011.009-.05c.291.261.32.713.065 1.009l-1.82 2.102zm-9.55 12.414c-.175.84-.85 1.65-1.72 2.063a5.631 5.631 0 01-1.605.463c-1.095.158-2.163.033-3.089-.363a2.632 2.632 0 01-.448-.237 1.146 1.146 0 01-.063-.046c.51-.354 1.008-.769 1.31-1.357.242-.473.418-.98.633-1.462.226-.506.454-.845.815-1.211.392-.399 1.025-.613 1.736-.59.657.021 1.274.229 1.75.698.566.558.826 1.34.68 2.042zm1.198-2.776l-.679.761a3.412 3.412 0 00-.541-.694 3.267 3.267 0 00-.847-.604l.65-.728 1.417 1.265z"/></symbol><symbol viewBox="0 0 16 16" id="compare" xmlns="http://www.w3.org/2000/svg"><g clip-path="url(#aia)"><path d="M13.237 5.274l2.42-.672a.469.469 0 10-.251-.903l-3.008.835-3.93 1.092V.469a.469.469 0 00-.937 0v5.417l-4.17 1.159-3.018.838a.469.469 0 00.251.903l1.881-.522-2.408 4.014a.469.469 0 00-.067.24A3.485 3.485 0 003.481 16a3.485 3.485 0 003.482-3.481.47.47 0 00-.067-.241L4.2 7.785l7.312-2.032-2.408 4.014a.469.469 0 00-.067.242 3.485 3.485 0 003.482 3.48c.93 0 1.804-.362 2.461-1.019A3.459 3.459 0 0016 10.008a.468.468 0 00-.067-.24l-2.696-4.494zM5.666 12.05h-4.37l2.186-3.64 2.185 3.641zm4.668-2.51l2.185-3.642 2.184 3.642h-4.369z"/></g><defs><clipPath id="aia"><path d="M0 0h16v16H0z"/></clipPath></defs></symbol><symbol viewBox="0 0 16 16" id="comparison" xmlns="http://www.w3.org/2000/svg"><g clip-path="url(#aja)"><path d="M13.237 5.274l2.42-.672a.469.469 0 10-.251-.903l-3.008.835-3.93 1.092V.469a.469.469 0 00-.937 0v5.417l-4.17 1.159-3.018.838a.469.469 0 00.251.903l1.881-.522-2.408 4.014a.469.469 0 00-.067.24A3.485 3.485 0 003.481 16a3.485 3.485 0 003.482-3.481.47.47 0 00-.067-.241L4.2 7.785l7.312-2.032-2.408 4.014a.469.469 0 00-.067.242 3.485 3.485 0 003.482 3.48c.93 0 1.804-.362 2.461-1.019A3.459 3.459 0 0016 10.008a.468.468 0 00-.067-.24l-2.696-4.494zM5.666 12.05h-4.37l2.186-3.64 2.185 3.641zm4.668-2.51l2.185-3.642 2.184 3.642h-4.369z"/></g><defs><clipPath id="aja"><path d="M0 0h16v16H0z"/></clipPath></defs></symbol><symbol viewBox="0 0 24 24" id="designer" xmlns="http://www.w3.org/2000/svg"><g clip-path="url(#aka)"><path d="M7.813 15.676c.058 1.246 1.842 1.245 1.899 0-.621.08-1.277.08-1.899 0zM6.249 6.298c3.337 2.31 9.966.811 8.93-4.275a8.19 8.19 0 00-.325-.953.703.703 0 00-1.138-.241c-1.305 1.252-3.252 1.33-4.954 1.33A6.095 6.095 0 002.77 7.185l.38-.001a6.798 6.798 0 003.099-.886z"/><path d="M8.762 14.33c3.737.037 6.675-3.478 5.993-7.145-2.281 1.886-5.937 2.041-8.548.709a8.28 8.28 0 01-3.52.697 6.093 6.093 0 006.075 5.738z"/><path d="M13.735 13.843a7.494 7.494 0 01-2.617 1.513c.165 3.537-4.875 3.537-4.711.002a7.449 7.449 0 01-2.618-1.515C1.44 15.465-.02 18.2 0 21.05v1.614c0 .388.315.703.703.703h16.118a.703.703 0 00.703-.703V21.05c.02-2.85-1.439-5.586-3.79-7.207zm5.718-2.452H24v7.43h-4.547v-7.43zm0 11.273c0 .388.315.703.703.703h3.14a.703.703 0 00.704-.703v-2.438h-4.547v2.438zm2.902-15.525c-.25-.515-1.007-.515-1.257 0l-1.423 2.846h4.104l-1.424-2.846z"/></g><defs><clipPath id="aka"><path d="M0 0h24v24H0z"/></clipPath></defs></symbol><symbol viewBox="0 0 16 17" id="email" xmlns="http://www.w3.org/2000/svg"><path fill-rule="evenodd" clip-rule="evenodd" d="M10.773 9.286l3.299 4.101a1.5 1.5 0 01-.572.113h-11a1.5 1.5 0 01-.571-.113l3.298-4.101a2.452 2.452 0 001.73.714h2.087c.651 0 1.272-.26 1.729-.714zm-9.59-5.004L4.576 8.5l-3.393 4.218A1.501 1.501 0 011 12V5c0-.253.064-.5.183-.718zm13.634 0A1.5 1.5 0 0115 5v7c0 .253-.064.5-.183.718L11.424 8.5l3.393-4.218zM1.928 3.613A1.5 1.5 0 012.5 3.5h11a1.5 1.5 0 01.572.113l-3.898 4.846A1.45 1.45 0 019.044 9H6.955a1.45 1.45 0 01-1.13-.541L1.929 3.613z"/></symbol><symbol viewBox="0 0 16 16" id="fave" xmlns="http://www.w3.org/2000/svg"><path d="M14.73 2.268a4.302 4.302 0 00-3.2-1.393c-.923 0-1.769.292-2.514.868A5.14 5.14 0 008 2.804a5.14 5.14 0 00-1.016-1.061A4.025 4.025 0 004.47.875a4.303 4.303 0 00-3.2 1.393C.45 3.156 0 4.368 0 5.683c0 1.354.504 2.592 1.587 3.899.968 1.168 2.36 2.354 3.972 3.728.55.47 1.175 1.001 1.822 1.567a.938.938 0 001.237 0 186.14 186.14 0 011.823-1.567c1.612-1.374 3.004-2.56 3.972-3.728C15.496 8.275 16 7.037 16 5.683c0-1.314-.45-2.527-1.27-3.415z"/></symbol><symbol viewBox="0 0 10 10" id="fb" xmlns="http://www.w3.org/2000/svg"><path d="M7.5.002L6.203 0C4.746 0 3.804.966 3.804 2.461v1.135H2.501a.204.204 0 00-.204.204v1.644c0 .112.091.204.204.204h1.303v4.148c0 .113.092.204.204.204H5.71a.204.204 0 00.204-.204V5.648h1.525a.204.204 0 00.204-.204V3.8a.204.204 0 00-.204-.204H5.913v-.962c0-.463.11-.697.713-.697h.873a.204.204 0 00.204-.204V.206A.204.204 0 007.5.002z"/></symbol><symbol viewBox="0 0 16 16" id="filter" xmlns="http://www.w3.org/2000/svg"><path d="M15.14 0H.876a.67.67 0 00-.598.364.68.68 0 00.053.707l5.226 7.362.005.007c.19.257.293.567.293.886v6.002a.668.668 0 00.93.62l2.937-1.12c.263-.08.438-.33.438-.628V9.326c0-.319.103-.63.293-.886l.005-.007 5.226-7.362a.679.679 0 00.053-.707A.67.67 0 0015.14 0z"/></symbol><symbol viewBox="0 0 32 32" id="forms" xmlns="http://www.w3.org/2000/svg"><g clip-path="url(#apa)"><path d="M30.708 7.584a.472.472 0 00-.26-.419L16.207.05a.469.469 0 00-.42 0L1.544 7.165a.475.475 0 00-.259.42v16.831c0 .178.1.34.26.42l14.243 7.115c.13.065.288.065.419 0l9.819-4.905c.542-.271.123-1.11-.42-.839l-9.14 4.567v-5.717l8.263-4.128a.476.476 0 00.26-.42v-9.778c1.599-.783 3.2-1.561 4.783-2.376.006 5.263.007 10.59.007 15.754-.436.25-.895.456-1.342.684-.556.283-.09 1.098.426.835.547-.279 1.111-.529 1.633-.855a.469.469 0 00.22-.398c0-5.5 0-11.188-.007-16.791zM2.222 24.126V8.342l4.783 2.386v9.781c0 .175.103.342.26.42l8.262 4.128v5.717L2.222 24.126zm21.828-4.375l-7.585-3.79V6.94l7.585 3.789v9.023zm-8.054 4.492L8.524 20.51l7.472-3.721 7.472 3.721-7.472 3.733zm8.525-14.328l-8.315-4.154a.476.476 0 00-.42 0l-4.22 2.109c-.542.27-.123 1.109.42.838l3.541-1.77v9.024l-7.584 3.79v-9.024l1.831-.915c.542-.27.123-1.11-.419-.839l-1.881.94-4.672-2.33L15.996.993l13.21 6.599c-1.365.7-4.685 2.323-4.685 2.323z"/></g><defs><clipPath id="apa"><path d="M0 0h32v32H0z"/></clipPath></defs></symbol><symbol viewBox="0 0 16 16" id="forward" xmlns="http://www.w3.org/2000/svg"><path d="M8 0L6.59 1.41 12.17 7H0v2h12.17l-5.58 5.59L8 16l8-8-8-8z"/></symbol><symbol viewBox="0 0 10 10" id="instagram" xmlns="http://www.w3.org/2000/svg"><g clip-path="url(#ara)"><path d="M6.875 0h-3.75A3.125 3.125 0 000 3.125v3.75C0 8.601 1.4 10 3.125 10h3.75C8.601 10 10 8.6 10 6.875v-3.75C10 1.399 8.6 0 6.875 0zm2.187 6.875a2.19 2.19 0 01-2.187 2.188h-3.75A2.19 2.19 0 01.937 6.874v-3.75A2.19 2.19 0 013.125.937h3.75a2.19 2.19 0 012.187 2.188v3.75z"/><path d="M5 2.5a2.5 2.5 0 100 5 2.5 2.5 0 000-5zm0 4.063A1.565 1.565 0 013.437 5c0-.862.702-1.563 1.563-1.563S6.562 4.138 6.562 5c0 .861-.7 1.563-1.562 1.563zm2.687-3.917a.333.333 0 100-.667.333.333 0 000 .667z"/></g><defs><clipPath id="ara"><path d="M0 0h10v10H0z"/></clipPath></defs></symbol><symbol viewBox="0 0 24 24" id="instagram-solid" xmlns="http://www.w3.org/2000/svg"><path d="M12 14.46a2.46 2.46 0 100-4.92 2.46 2.46 0 000 4.92z"/><path d="M12 .281C5.528.281.281 5.528.281 12c0 6.472 5.247 11.719 11.719 11.719 6.472 0 11.719-5.247 11.719-11.719C23.719 5.528 18.472.281 12 .281zm7.24 14.697c-.056 1.115-.37 2.213-1.181 3.016-.82.811-1.924 1.114-3.049 1.17H8.99c-1.125-.056-2.23-.358-3.049-1.17-.812-.803-1.125-1.901-1.181-3.016V9.022c.056-1.115.37-2.213 1.181-3.017.82-.81 1.924-1.113 3.049-1.168h6.02c1.125.055 2.23.357 3.049 1.168.812.804 1.125 1.902 1.181 3.017v5.956z"/><path d="M14.935 6.194a142.72 142.72 0 00-5.869 0c-.763.02-1.628.21-2.172.792-.565.603-.778 1.333-.8 2.149-.038 1.432 0 5.73 0 5.73.025.816.235 1.546.8 2.15.544.58 1.41.77 2.172.791 1.467.04 4.402.04 5.869 0 .763-.02 1.628-.21 2.172-.792.565-.603.778-1.333.8-2.149v-5.73c-.022-.816-.235-1.546-.8-2.15-.544-.58-1.41-.77-2.172-.791zM12 15.814a3.814 3.814 0 110-7.627 3.814 3.814 0 010 7.628zm3.831-6.841a.763.763 0 110-1.527.763.763 0 010 1.527z"/></symbol><symbol viewBox="0 0 32 32" id="kitchen" xmlns="http://www.w3.org/2000/svg"><g clip-path="url(#ata)"><path d="M31.11 16.662h-.595v-.713c0-.63-.512-1.143-1.142-1.143H17.875c-.63 0-1.143.513-1.143 1.143v.713H8.646a.468.468 0 100 .936h22.385v1.016H.97v-1.016h5.805a.468.468 0 100-.936H.891a.858.858 0 00-.857.857v13.226C.034 31.437.597 32 1.29 32h29.423c.692 0 1.255-.563 1.255-1.255V17.52a.858.858 0 00-.857-.857zm-13.442-.713c0-.115.092-.207.207-.207h11.498c.114 0 .207.092.207.207v.713H17.668v-.713zm-1.545 3.6v11.515H9.162V19.55h6.96zM.97 30.746V19.55h7.256v11.514H1.29a.32.32 0 01-.32-.319zm29.742.32H17.058V19.55h13.973v11.195a.32.32 0 01-.32.32zM.891 10.414h12.693a.858.858 0 00.857-.857V1.023a.858.858 0 00-.857-.857H.891a.858.858 0 00-.857.857v8.534c0 .472.385.857.857.857zm12.615-.936h-5.8V1.102h5.8v8.376zM.97 1.102h5.8v8.376H.97V1.102zm15.933 9.312h6.868a.468.468 0 000-.936h-6.79V8.274H29.58v1.204h-3.938a.468.468 0 000 .936h4.016a.858.858 0 00.857-.857V8.196a.857.857 0 00-.81-.855l-2.315-4.43-.102-2.463A.468.468 0 0026.82 0h-6.993a.467.467 0 00-.468.476l.041 2.448-2.308 4.415h-.19a.858.858 0 00-.856.857v1.36c0 .473.384.858.857.858zM26.372.936l.067 1.632h-6.11L20.304.936h6.069zm-6.219 2.567h6.49L28.65 7.34H18.147l2.006-3.836z"/><path d="M14.676 22.801c.258 0 .467-.21.467-.467V21.24a.468.468 0 10-.935 0v1.093c0 .258.21.467.468.467zm14.92-2.028a.468.468 0 00-.468.468v1.093a.468.468 0 00.935 0V21.24a.468.468 0 00-.467-.468zm-22.747 0a.468.468 0 00-.468.468v1.093a.468.468 0 10.935 0V21.24a.468.468 0 00-.467-.468zM5.395 6.246a.468.468 0 00-.468.468v1.092a.468.468 0 00.935 0V6.714a.468.468 0 00-.467-.468zM9.03 8.274c.258 0 .467-.21.467-.467V6.713a.468.468 0 00-.935 0v1.092c0 .259.209.468.467.468z"/></g><defs><clipPath id="ata"><path d="M0 0h32v32H0z"/></clipPath></defs></symbol><symbol viewBox="0 0 32 32" id="label" xmlns="http://www.w3.org/2000/svg"><path d="M27.7 19.512a.532.532 0 00-.73.191l-6.115 10.43c-.442.765-1.422 1.028-2.163.6l-1.191-.771a.533.533 0 10-.58.895l1.214.786a2.666 2.666 0 003.642-.973l6.113-10.428a.533.533 0 00-.19-.73zM29.314 0h-8.536c-1.65 0-2.88.525-4.112 1.757a.533.533 0 10.755.754c1.039-1.04 1.98-1.444 3.357-1.444h8.536c.882 0 1.6.718 1.6 1.6v8.536c0 1.377-.405 2.318-1.445 3.358L13.627 30.427c-.605.604-1.66.604-2.263 0l-9.809-9.808a1.59 1.59 0 01-.469-1.133c0-.427.167-.829.469-1.13l14.32-14.3c.22.056.441.112.67.173 2.17.581 3.883 1.182 5.16 1.718a3.204 3.204 0 00-.393 1.522c0 1.765 1.436 3.2 3.201 3.2a3.204 3.204 0 003.201-3.2 3.204 3.204 0 00-3.2-3.201.533.533 0 100 1.067c1.176 0 2.133.957 2.133 2.134a2.136 2.136 0 01-2.134 2.134 2.13 2.13 0 01-1.835-3.22c.924.442 1.502.815 1.73 1.053a2.575 2.575 0 01-.476.079.533.533 0 00.094 1.063c.328-.03 1.326-.117 1.518-.833.526-1.963-7.174-4.132-8.723-4.547-2.37-.635-4.645-1.069-6.408-1.223-2.166-.189-3.222.057-3.42.799-.095.356-.348 1.3 3.977 3.006a.533.533 0 10.391-.992C9.27 3.964 8.405 3.36 8.127 3.075c.658-.193 2.908-.137 6.53.687L.8 17.6a2.65 2.65 0 00-.781 1.886c0 .713.277 1.383.781 1.887l9.808 9.808a2.648 2.648 0 001.886.781 2.65 2.65 0 001.886-.781l15.844-15.866c1.232-1.231 1.757-2.461 1.757-4.112V2.667A2.67 2.67 0 0029.314 0z"/></symbol><symbol viewBox="0 0 16 16" id="like" xmlns="http://www.w3.org/2000/svg"><path d="M14.73 2.268a4.302 4.302 0 00-3.2-1.393c-.923 0-1.769.292-2.514.868A5.14 5.14 0 008 2.804a5.14 5.14 0 00-1.016-1.061A4.025 4.025 0 004.47.875a4.303 4.303 0 00-3.2 1.393C.45 3.156 0 4.368 0 5.683c0 1.354.504 2.592 1.587 3.899.968 1.168 2.36 2.354 3.972 3.728.55.47 1.175 1.001 1.822 1.567a.938.938 0 001.237 0 186.14 186.14 0 011.823-1.567c1.612-1.374 3.004-2.56 3.972-3.728C15.496 8.275 16 7.037 16 5.683c0-1.314-.45-2.527-1.27-3.415z"/></symbol><symbol viewBox="0 0 16 17" id="location" xmlns="http://www.w3.org/2000/svg"><g clip-path="url(#awa)"><path d="M8 11.803a4.258 4.258 0 100-8.516 4.258 4.258 0 000 8.516z"/><path d="M13.004 2.573A7.03 7.03 0 008 .5a7.03 7.03 0 00-5.004 2.073A7.03 7.03 0 00.924 7.576a7.08 7.08 0 005.57 6.915L8 16.5l1.507-2.009a7.079 7.079 0 005.57-6.915 7.03 7.03 0 00-2.073-5.003zM8 2.347a5.204 5.204 0 015.198 5.198A5.204 5.204 0 018 12.743a5.204 5.204 0 01-5.198-5.198A5.204 5.204 0 018 2.347z"/></g><defs><clipPath id="awa"><path transform="translate(0 .5)" d="M0 0h16v16H0z"/></clipPath></defs></symbol><symbol viewBox="0 0 32 26" id="material" xmlns="http://www.w3.org/2000/svg"><path d="M31.224 11.553l-2.605-1.303 2.605-1.3a.5.5 0 000-.895l-15-7.5a.5.5 0 00-.447 0l-15 7.5a.5.5 0 000 .895l2.605 1.3-2.605 1.303A.5.5 0 00.5 12v2a.5.5 0 00.277.45l2.605 1.3-2.605 1.3a.5.5 0 000 .895l15 7.5a.5.5 0 00.447 0l15-7.5a.5.5 0 000-.895l-2.605-1.3 2.605-1.3A.5.5 0 0031.5 14v-2a.5.5 0 00-.276-.447zM16 1.559L29.883 8.5 16 15.441 2.118 8.5 16 1.559zm-.223 14.891a.5.5 0 00.447 0L27.5 10.809 29.883 12 16 18.941 2.118 12 4.5 10.809l11.277 5.641zM1.5 12.809l14 7v.882l-14-7v-.882zM29.883 17.5L16 24.441 2.118 17.5 4.5 16.309l11.277 5.641a.5.5 0 00.447 0L27.5 16.309l2.383 1.191zM16.5 20.691v-.882l14-7v.882l-14 7z"/></symbol><symbol viewBox="0 0 32 32" id="option" xmlns="http://www.w3.org/2000/svg"><path d="M3.2 8.533h4.267a1.067 1.067 0 001.067-1.066V3.2a1.067 1.067 0 00-1.067-1.067H3.2A1.067 1.067 0 002.134 3.2v4.267A1.067 1.067 0 003.2 8.533zm0-5.333h4.267v4.267H3.2V3.2zm0 12.8h4.267a1.067 1.067 0 001.067-1.067v-4.266A1.066 1.066 0 007.467 9.6H3.2a1.067 1.067 0 00-1.066 1.067v4.266A1.067 1.067 0 003.2 16zm0-5.333h4.267v4.266H3.2v-4.266zm5.334 7.466a1.066 1.066 0 00-1.067-1.066H3.2a1.066 1.066 0 00-1.066 1.066V22.4A1.066 1.066 0 003.2 23.467h4.267A1.066 1.066 0 008.534 22.4v-4.267zM3.2 22.4v-4.267h4.267V22.4H3.2z"/><path d="M30.4 21.333H18.21l9.055-9.055a1.6 1.6 0 000-2.263l-5.28-5.28a1.598 1.598 0 00-2.263 0l-9.055 9.056V1.6a1.6 1.6 0 00-1.6-1.6H1.6A1.6 1.6 0 000 1.6v25.067A5.34 5.34 0 005.333 32H30.4a1.6 1.6 0 001.6-1.6v-7.467a1.6 1.6 0 00-1.6-1.6zM20.477 5.49a.533.533 0 01.754 0l5.28 5.28a.533.533 0 010 .753L10.606 27.428a5.24 5.24 0 00.06-.761v-.95a1.07 1.07 0 00.383-.24l3.02-3.015a1.07 1.07 0 000-1.511l-3.019-3.018a1.046 1.046 0 00-.383-.234v-2.4l9.81-9.81zm-9.81 13.569l2.647 2.648-2.647 2.644v-5.292zm3.2 6.617V28.8h-3.125l3.125-3.124zm-12.8.99V1.6a.533.533 0 01.533-.533h7.467A.533.533 0 019.6 1.6v25.067a4.267 4.267 0 01-8.533 0zM30.933 30.4a.533.533 0 01-.533.533H8.52c.197-.145.384-.305.56-.477h.003l.593-.59h4.19a1.066 1.066 0 001.067-1.066v-4.19l2.21-2.21H30.4a.533.533 0 01.533.533V30.4z"/><path d="M28.8 23.467h-4.267a1.067 1.067 0 00-1.066 1.066V28.8a1.067 1.067 0 001.067 1.067H28.8a1.067 1.067 0 001.067-1.067v-4.267a1.067 1.067 0 00-1.067-1.066zm0 5.333h-4.267v-4.267H28.8V28.8zm-7.467-5.333h-4.266A1.067 1.067 0 0016 24.533V28.8a1.067 1.067 0 001.067 1.067h4.266A1.067 1.067 0 0022.4 28.8v-4.267a1.067 1.067 0 00-1.067-1.066zm0 5.333h-4.266v-4.267h4.266V28.8zM5.334 24.533a2.133 2.133 0 100 4.266 2.133 2.133 0 000-4.266zm0 3.2a1.067 1.067 0 110-2.133 1.067 1.067 0 010 2.133zM20.1 14.918a1.067 1.067 0 001.508 0l3.017-3.017a1.066 1.066 0 000-1.509l-3.017-3.017a1.067 1.067 0 00-1.509 0l-3.017 3.017a1.067 1.067 0 000 1.508l3.017 3.018zm.753-6.788l3.018 3.017-3.018 3.017-3.017-3.017 3.017-3.017zM14.82 20.197a1.067 1.067 0 001.508 0l3.018-3.017a1.067 1.067 0 000-1.508l-3.018-3.017a1.066 1.066 0 00-1.508 0l-3.018 3.017a1.067 1.067 0 000 1.508l3.018 3.017zm.753-6.788l3.018 3.018-3.018 3.017-3.016-3.017 3.016-3.018z"/></symbol><symbol viewBox="0 0 25 28" id="play" xmlns="http://www.w3.org/2000/svg"><path d="M21.08 9.742L9.62 2.69C6.29.64 2 3.036 2 6.948v14.104c0 3.912 4.29 6.308 7.62 4.259l11.46-7.053c3.173-1.952 3.173-6.564 0-8.516z"/></symbol><symbol viewBox="0 0 16 17" id="question" xmlns="http://www.w3.org/2000/svg"><path d="M8 .5c-4.422 0-8 3.578-8 8 0 4.421 3.578 8 8 8 4.422 0 8-3.578 8-8 0-4.422-3.578-8-8-8zm-.237 11.744a.808.808 0 01-.8-.81c0-.443.358-.811.8-.811.443 0 .811.368.811.81a.818.818 0 01-.81.811zm1.2-4.096c-.578.453-.589.769-.589 1.316 0 .2-.105.432-.621.432-.432 0-.58-.158-.58-.705 0-.906.4-1.338.706-1.601.348-.295.937-.621.937-1.19 0-.484-.42-.716-.947-.716-1.075 0-.843.81-1.412.81-.284 0-.631-.189-.631-.6 0-.568.653-1.41 2.074-1.41 1.348 0 2.243.747 2.243 1.737 0 .99-.895 1.706-1.18 1.927z"/></symbol><symbol viewBox="0 0 16 16" id="search" xmlns="http://www.w3.org/2000/svg"><path d="M15.489 14.573l-3.808-3.96a6.44 6.44 0 001.515-4.153A6.467 6.467 0 006.736 0a6.467 6.467 0 00-6.46 6.46 6.467 6.467 0 006.46 6.46 6.39 6.39 0 003.701-1.169l3.837 3.99c.16.167.376.259.608.259a.844.844 0 00.607-1.427zM6.736 1.685a4.78 4.78 0 014.775 4.775 4.78 4.78 0 01-4.775 4.775A4.78 4.78 0 011.962 6.46a4.78 4.78 0 014.774-4.775z"/></symbol><symbol viewBox="0 0 32 32" id="size" xmlns="http://www.w3.org/2000/svg"><g clip-path="url(#bca)"><path d="M10.355 6.415c.26 0 .47-.21.47-.468V4.77h1.164a.469.469 0 100-.938h-1.282a.82.82 0 00-.82.82v1.294c0 .259.21.468.468.468zM26.724 4.77h1.143v1.177a.469.469 0 10.938 0V4.653a.82.82 0 00-.82-.82h-1.261a.469.469 0 100 .938zm0 17.981h1.26a.82.82 0 00.82-.82v-1.25a.469.469 0 10-.937 0v1.133h-1.143a.469.469 0 100 .937zm-16.017 0h1.282a.469.469 0 100-.937h-1.165V20.68a.469.469 0 10-.937 0v1.25c0 .452.367.82.82.82z"/><path d="M30.726 25.37H6.967a.337.337 0 01-.336-.337V1.274A1.277 1.277 0 005.356 0H1.274C.572 0 0 .572 0 1.274V8.9a.469.469 0 10.938 0V1.274c0-.185.15-.337.336-.337h4.082c.186 0 .337.152.337.337v2.278H4.104a.469.469 0 100 .938h1.59v2.05h-.975a.469.469 0 100 .937h.974v2.049H4.104a.469.469 0 100 .938h1.59v2.049h-.975a.469.469 0 100 .938h.974V15.5H4.104a.469.469 0 100 .937h1.59v2.05h-.975a.469.469 0 100 .937h.974v2.05H4.104a.469.469 0 100 .937h1.59v2.622c0 .18.037.35.104.506l-4.86 4.86V11.09a.469.469 0 10-.938 0v19.636C0 31.428.571 32 1.274 32h29.452c.702 0 1.274-.572 1.274-1.274v-4.082c0-.703-.572-1.275-1.274-1.275zm.337 5.356a.337.337 0 01-.337.337H1.6l4.861-4.861c.155.067.327.105.506.105h2.324v1.59a.469.469 0 10.937 0v-1.59h2.05v.975a.469.469 0 00.937 0v-.975h2.05v1.59a.469.469 0 10.937 0v-1.59h2.05v.975a.469.469 0 10.937 0v-.975h2.05v1.59a.469.469 0 10.937 0v-1.59h2.05v.975a.469.469 0 10.937 0v-.975h2.05v1.59a.469.469 0 10.937 0v-1.59h2.576c.185 0 .337.15.337.337v4.082z"/><path d="M13.275 17.61l5.366 3.099c.435.25.975.25 1.41 0l5.365-3.098c.435-.251.705-.72.705-1.221v-6.196c0-.501-.27-.97-.705-1.22l-5.365-3.098a1.414 1.414 0 00-1.41 0l-5.365 3.097a1.414 1.414 0 00-.706 1.221v6.196c0 .502.27.97.705 1.22zm.47-.81a.474.474 0 01-.237-.41v-5.927l5.369 3.1v6.2l-5.133-2.964zm5.364-10.112a.474.474 0 01.473 0l5.133 2.963-1.768 1.02a.469.469 0 10.469.812l1.768-1.02v5.927c0 .168-.09.325-.237.41l-5.133 2.962v-6.2l1.671-.964a.469.469 0 10-.468-.812l-1.671.965-5.37-3.1 5.133-2.963z"/></g><defs><clipPath id="bca"><path d="M0 0h32v32H0z"/></clipPath></defs></symbol><symbol viewBox="0 0 16 16" id="telegram" xmlns="http://www.w3.org/2000/svg"><path d="M14.629 3.698l-2.012 9.618c-.152.679-.548.848-1.11.528l-3.066-2.29-1.48 1.442c-.163.166-.3.305-.616.305l.22-3.165 5.683-5.204c.247-.223-.054-.347-.384-.123L4.839 9.29l-3.024-.959c-.658-.208-.67-.667.137-.986L13.78 2.727c.548-.208 1.027.124.849.971z"/></symbol><symbol viewBox="0 0 16 17" id="time" xmlns="http://www.w3.org/2000/svg"><path d="M8 .5a8 8 0 108 8 8.009 8.009 0 00-8-8zm.571 8A.571.571 0 018 9.071H3.429a.571.571 0 110-1.142h4v-4a.571.571 0 111.142 0V8.5z"/></symbol><symbol viewBox="0 0 16 16" id="viber" xmlns="http://www.w3.org/2000/svg"><g clip-path="url(#bfa)"><path d="M15.437 9.262c.477-4.018-.23-6.555-1.504-7.702C11.876-.4 4.928-.69 2.467 1.646 1.36 2.791.972 4.47.929 6.546c-.042 2.078-.093 5.97 3.534 7.027h.004l-.004 1.612s-.024.654.393.785c.477.155.693-.149 2.178-1.922 2.483.215 4.39-.278 4.606-.35.501-.168 3.338-.543 3.797-4.436zm-8.158 3.651s-1.572 1.96-2.06 2.468c-.16.166-.336.15-.333-.178l.012-2.677c-3.075-.881-2.894-4.196-2.86-5.93.033-1.735.35-3.155 1.286-4.112 2.16-2.025 8.25-1.572 9.803-.113 1.897 1.682 1.222 6.434 1.226 6.596-.39 3.249-2.689 3.455-3.112 3.596-.18.06-1.857.491-3.962.35z"/><path d="M8.148 2.864c-.257 0-.257.4 0 .404 1.991.015 3.631 1.403 3.65 3.949 0 .269.393.265.39-.003h-.001c-.022-2.744-1.812-4.334-4.04-4.35z"/><path d="M10.767 6.795c-.006.266.387.278.39.01.033-1.513-.9-2.759-2.652-2.89-.257-.019-.284.384-.028.403 1.52.115 2.321 1.153 2.29 2.477zm-.42 1.721c-.329-.19-.664-.072-.803.116l-.29.375c-.147.19-.423.165-.423.165-2.009-.53-2.546-2.634-2.546-2.634s-.025-.284.159-.437l.363-.3c.181-.144.296-.49.111-.831-.493-.892-.825-1.199-.993-1.435-.178-.222-.444-.272-.722-.122h-.006c-.576.337-1.208.969-1.006 1.619.345.685.978 2.87 2.997 4.52.949.781 2.45 1.581 3.087 1.766l.006.01c.628.208 1.239-.448 1.565-1.042v-.004c.145-.288.097-.56-.115-.738-.374-.365-.94-.768-1.384-1.028z"/><path d="M8.78 5.403c.64.037.95.372.984 1.06.012.268.402.25.39-.02C10.11 5.546 9.644 5.046 8.8 5c-.257-.015-.281.388-.022.404z"/></g><defs><clipPath id="bfa"><path d="M0 0h16v16H0z"/></clipPath></defs></symbol><symbol viewBox="0 0 10 10" id="vk" xmlns="http://www.w3.org/2000/svg"><g clip-path="url(#bga)"><path d="M9.91 7.237c-.026-.045-.192-.407-.992-1.15-.838-.777-.725-.65.283-1.995.615-.819.86-1.319.784-1.533-.074-.203-.526-.15-.526-.15l-1.502.01s-.111-.016-.195.034c-.08.048-.132.16-.132.16s-.238.635-.556 1.173c-.67 1.137-.937 1.197-1.047 1.127-.254-.165-.19-.662-.19-1.014 0-1.102.167-1.561-.326-1.68-.164-.04-.284-.066-.702-.07-.536-.006-.99.002-1.247.127-.172.084-.304.27-.223.282.1.013.324.06.444.223.154.21.149.68.149.68s.088 1.297-.207 1.459c-.203.11-.482-.115-1.079-1.147-.305-.529-.536-1.113-.536-1.113s-.045-.109-.124-.167c-.096-.07-.231-.093-.231-.093l-1.43.009s-.214.006-.292.1c-.07.082-.006.254-.006.254S1.146 5.38 2.412 6.699c1.162 1.21 2.48 1.13 2.48 1.13h.598s.181-.02.273-.12c.085-.09.082-.262.082-.262s-.012-.802.36-.92c.367-.116.839.775 1.338 1.118.378.26.665.203.665.203l1.335-.019s.699-.043.368-.592z"/></g><defs><clipPath id="bga"><path d="M0 0h10v10H0z"/></clipPath></defs></symbol><symbol viewBox="0 0 24 24" id="vk-solid" xmlns="http://www.w3.org/2000/svg"><g clip-path="url(#bha)"><path d="M12 0a12 12 0 100 24 12 12 0 000-24zm6.916 16.696c-.349.05-2.056 0-2.145 0a1.676 1.676 0 01-1.185-.469c-.36-.348-.681-.73-1.033-1.09a2.747 2.747 0 00-.337-.306c-.281-.215-.56-.168-.691.165a6.458 6.458 0 00-.216 1.095c-.023.335-.236.545-.612.569a8.5 8.5 0 01-.697.01 5.297 5.297 0 01-2.412-.596 6.565 6.565 0 01-2.063-1.802c-.91-1.162-1.637-2.438-2.286-3.754-.034-.067-.7-1.483-.716-1.55-.06-.222 0-.436.184-.51.118-.046 2.31 0 2.347 0a.77.77 0 01.736.53c.406 1.037.961 2.01 1.648 2.888.096.117.208.22.334.304.178.123.348.08.421-.127a3.58 3.58 0 00.153-.88c.012-.591 0-.98-.033-1.572-.022-.379-.155-.71-.714-.818-.172-.031-.187-.173-.077-.315.23-.293.546-.34.899-.358.526-.03 1.053-.01 1.579 0h.115a3.18 3.18 0 01.681.07.628.628 0 01.5.56c.028.149.04.3.035.452-.014.645-.045 1.292-.052 1.937-.006.256.017.511.07.762.075.344.31.43.545.181.304-.32.583-.663.833-1.026.444-.663.81-1.374 1.091-2.121.153-.383.273-.468.682-.468h2.326a1.38 1.38 0 01.41.055.353.353 0 01.244.457c-.115.51-.39.945-.682 1.363-.473.67-.972 1.323-1.457 1.984a2.7 2.7 0 00-.16.266c-.182.33-.168.514.096.787.423.435.874.841 1.282 1.289.3.325.57.676.807 1.048.29.47.107.911-.45.99z"/></g><defs><clipPath id="bha"><path d="M0 0h24v24H0z"/></clipPath></defs></symbol><symbol viewBox="0 0 16 16" id="whatsapp" xmlns="http://www.w3.org/2000/svg"><g clip-path="url(#bia)"><path d="M11.671 9.538l-.006.05c-1.466-.73-1.619-.828-1.808-.544-.132.197-.514.643-.63.775-.116.13-.232.14-.43.05-.2-.1-.842-.31-1.602-.99-.592-.53-.99-1.18-1.107-1.38-.195-.338.213-.386.585-1.09.067-.14.033-.25-.016-.349-.05-.1-.448-1.08-.615-1.47-.16-.39-.325-.34-.448-.34-.384-.034-.665-.029-.912.229-1.076 1.182-.805 2.402.116 3.7 1.81 2.368 2.773 2.804 4.536 3.409.476.151.91.13 1.253.08.383-.06 1.178-.48 1.344-.95.17-.47.17-.86.12-.95-.049-.09-.18-.14-.38-.23z"/><path d="M13.68 2.3C8.554-2.657.07.937.067 7.928a7.89 7.89 0 001.064 3.963L0 16l4.223-1.101c5.27 2.846 11.774-.934 11.777-6.966 0-2.118-.827-4.11-2.33-5.608l.01-.026zm.988 5.61c-.004 5.09-5.59 8.267-10.008 5.67l-.24-.143-2.5.65.67-2.43-.16-.25C-.318 7.031 2.84 1.311 8.049 1.311c1.77 0 3.43.69 4.68 1.94a6.525 6.525 0 011.94 4.66z"/></g><defs><clipPath id="bia"><path d="M0 0h16v16H0z"/></clipPath></defs></symbol></svg>