<svg width="24" height="24" viewBox="0 0 24 24" fill="none" xmlns="http://www.w3.org/2000/svg">
<g clip-path="url(#clip0_135_9564)">
<path d="M22.8525 6.86717C21.8728 4.79061 20.3213 3.04686 18.3666 1.82342C15.6478 0.126548 12.4275 -0.412515 9.30566 0.30936C6.18378 1.02655 3.52597 2.9203 1.8291 5.63905C0.127533 8.3578 -0.41153 11.5734 0.310345 14.7C1.03222 17.8219 2.92597 20.4797 5.64003 22.1765C7.55253 23.3719 9.74628 24.0047 11.9916 24.0047H12.1369C14.3728 23.9765 16.5478 23.3297 18.4322 22.139C18.9807 21.7922 19.14 21.0703 18.7932 20.5219C18.4463 19.9734 17.7244 19.814 17.176 20.1609C15.6619 21.1219 13.9088 21.6422 12.1088 21.6656C10.2619 21.689 8.45722 21.1781 6.88222 20.1984C4.69316 18.8297 3.16972 16.6922 2.59316 14.1797C2.0166 11.6672 2.44785 9.07967 3.8166 6.89061C6.63847 2.37655 12.6103 0.998423 17.1244 3.8203C18.6994 4.80467 19.9463 6.20624 20.7338 7.87499C21.5025 9.50155 21.8025 11.3062 21.601 13.0875C21.5307 13.7297 21.99 14.3109 22.6369 14.3812C23.2791 14.4515 23.8603 13.9922 23.9307 13.3453C24.1791 11.1281 23.8041 8.88749 22.8525 6.86717Z" fill="#C16565"/>
<path d="M15.8773 7.93123L10.2242 13.5843L8.12891 11.489C7.66953 11.0297 6.92891 11.0297 6.46953 11.489C6.01016 11.9484 6.01016 12.689 6.46953 13.1484L9.39453 16.0734C9.62422 16.3031 9.92422 16.4156 10.2242 16.4156C10.5242 16.4156 10.8242 16.3031 11.0539 16.0734L17.532 9.5906C17.9914 9.13123 17.9914 8.3906 17.532 7.93123C17.0727 7.47654 16.332 7.47654 15.8773 7.93123Z" fill="#C16565"/>
</g>
<defs>
<clipPath id="clip0_135_9564">
<rect width="24" height="24" fill="white"/>
</clipPath>
</defs>
</svg>
