<svg width="24" height="24" viewBox="0 0 24 24" fill="none" xmlns="http://www.w3.org/2000/svg">
<path d="M18.9526 0H5.04736C3.88425 0 2.93799 0.946266 2.93799 2.10938V21.8906C2.93799 23.0537 3.88425 24 5.04736 24H18.9526C20.1157 24 21.062 23.0537 21.062 21.8906V2.10938C21.062 0.946266 20.1157 0 18.9526 0ZM5.80172 4.14141C5.80172 3.83203 6.05485 3.57891 6.36422 3.57891H17.8239C18.1333 3.57891 18.3864 3.83203 18.3864 4.14141V6.28589C18.3864 6.59527 18.1333 6.84839 17.8239 6.84839H6.36422C6.05485 6.84839 5.80172 6.59527 5.80172 6.28589V4.14141ZM12.6575 11.831H11.3425C10.9542 11.831 10.6394 11.5162 10.6394 11.1279V10.1724C10.6394 9.78412 10.9542 9.46931 11.3425 9.46931H12.6575C13.0458 9.46931 13.3606 9.78412 13.3606 10.1724V11.1279C13.3606 11.5162 13.0458 11.831 12.6575 11.831ZM13.3606 14.7016V15.657C13.3606 16.0454 13.0458 16.3602 12.6575 16.3602H11.3425C10.9542 16.3602 10.6394 16.0454 10.6394 15.657V14.7016C10.6394 14.3132 10.9542 13.9985 11.3425 13.9985H12.6575C13.0458 13.9985 13.3606 14.3133 13.3606 14.7016ZM8.33471 20.1862C8.33471 20.5745 8.01989 20.8893 7.63158 20.8893H6.3166C5.92828 20.8893 5.61347 20.5745 5.61347 20.1862V19.2308C5.61347 18.8424 5.92828 18.5276 6.3166 18.5276H7.63158C8.01989 18.5276 8.33471 18.8424 8.33471 19.2308V20.1862ZM8.33471 15.657C8.33471 16.0454 8.01989 16.3602 7.63158 16.3602H6.3166C5.92828 16.3602 5.61347 16.0454 5.61347 15.657V14.7016C5.61347 14.3133 5.92828 13.9985 6.3166 13.9985H7.63158C8.01989 13.9985 8.33471 14.3133 8.33471 14.7016V15.657ZM8.33471 11.1279C8.33471 11.5162 8.01989 11.831 7.63158 11.831H6.3166C5.92828 11.831 5.61347 11.5162 5.61347 11.1279V10.1724C5.61347 9.78412 5.92828 9.46931 6.3166 9.46931H7.63158C8.01989 9.46931 8.33471 9.78412 8.33471 10.1724V11.1279ZM18.3864 20.1862C18.3864 20.5745 18.0716 20.8893 17.6833 20.8893H11.3425C10.9542 20.8893 10.6394 20.5745 10.6394 20.1862V19.2308C10.6394 18.8424 10.9541 18.5276 11.3425 18.5276H17.6833C18.0716 18.5276 18.3864 18.8424 18.3864 19.2308V20.1862ZM18.3864 15.657C18.3864 16.0454 18.0716 16.3602 17.6833 16.3602H16.3683C15.98 16.3602 15.6652 16.0454 15.6652 15.657V14.7016C15.6652 14.3133 15.98 13.9985 16.3683 13.9985H17.6833C18.0716 13.9985 18.3864 14.3133 18.3864 14.7016V15.657ZM18.3864 11.1279C18.3864 11.5162 18.0716 11.831 17.6833 11.831H16.3683C15.98 11.831 15.6652 11.5162 15.6652 11.1279V10.1724C15.6652 9.78412 15.98 9.46931 16.3683 9.46931H17.6833C18.0716 9.46931 18.3864 9.78412 18.3864 10.1724V11.1279Z" fill="#C16565"/>
</svg>
