<svg width="16" height="17" viewBox="0 0 16 17" fill="none" xmlns="http://www.w3.org/2000/svg">
<g clip-path="url(#clip0_3_799)">
<path d="M7.99998 0.5C3.58172 0.5 0 4.08172 0 8.49998C0 12.9183 3.58172 16.5 7.99998 16.5C12.4183 16.5 16 12.9183 16 8.49998C15.9953 4.08369 12.4163 0.504721 7.99998 0.5ZM8.57142 8.49998C8.57142 8.81559 8.31559 9.07142 7.99998 9.07142H3.42857C3.11297 9.07142 2.85713 8.81559 2.85713 8.49998C2.85713 8.18438 3.11297 7.92854 3.42857 7.92854H7.42858V3.92857C7.42858 3.61297 7.68441 3.35713 8.00002 3.35713C8.31562 3.35713 8.57142 3.61297 8.57142 3.92857V8.49998Z" fill="black"/>
</g>
<defs>
<clipPath id="clip0_3_799">
<rect width="16" height="16" fill="white" transform="translate(0 0.5)"/>
</clipPath>
</defs>
</svg>
