<svg width="32" height="32" viewBox="0 0 32 32" fill="none" xmlns="http://www.w3.org/2000/svg">
<path d="M3.23332 15.9568C2.55789 17.4346 3.21076 19.1865 4.68864 19.8619C5.07926 20.0405 5.49501 20.1302 5.91207 20.1302C6.25932 20.1302 6.60751 20.068 6.94264 19.9431C7.68026 19.6682 8.26663 19.1225 8.59382 18.4066C8.92101 17.6907 8.94982 16.8902 8.67495 16.1526C8.40007 15.4151 7.85439 14.8287 7.13851 14.5015C5.66064 13.8261 3.90876 14.4789 3.23332 15.9568ZM6.74876 15.3543C7.23689 15.5773 7.60895 15.9771 7.79632 16.4801C7.98376 16.9829 7.96414 17.5288 7.74101 18.0169C7.51795 18.505 7.11813 18.8771 6.6152 19.0645C6.11232 19.2519 5.56651 19.2322 5.07845 19.0091C4.07076 18.5486 3.62564 17.3541 4.08614 16.3464C4.3092 15.8583 4.70901 15.4863 5.21195 15.2989C5.44045 15.2138 5.67776 15.1713 5.91457 15.1713C6.19889 15.1713 6.48245 15.2325 6.74876 15.3543Z" fill="black"/>
<path d="M7.61614 23.3043C6.9407 24.7822 7.59357 26.5341 9.07145 27.2095C9.46739 27.3905 9.8827 27.476 10.2919 27.476C11.4104 27.476 12.4821 26.8362 12.9766 25.7542C13.6521 24.2763 12.9992 22.5245 11.5213 21.849C10.0434 21.1737 8.29157 21.8264 7.61614 23.3043ZM8.46895 23.694C8.69201 23.2059 9.09182 22.8339 9.59476 22.6465C9.82326 22.5613 10.0606 22.519 10.2974 22.519C10.5817 22.519 10.8653 22.5802 11.1316 22.7018C12.1393 23.1623 12.5843 24.3568 12.1239 25.3645C11.6633 26.3721 10.4688 26.8171 9.46132 26.3567C8.45357 25.8962 8.00845 24.7017 8.46895 23.694Z" fill="black"/>
<path d="M20.0447 23.0935C18.5669 22.4182 16.815 23.071 16.1395 24.5488C15.4642 26.0267 16.117 27.7786 17.5949 28.454C17.9908 28.635 18.4062 28.7205 18.8153 28.7205C19.9338 28.7205 21.0055 28.0807 21.5 26.9987C22.1755 25.5207 21.5227 23.7689 20.0447 23.0935ZM20.6473 26.6089C20.1867 27.6167 18.9923 28.0617 17.9847 27.6012C16.977 27.1407 16.5319 25.9461 16.9923 24.9385C17.3295 24.2008 18.0601 23.7646 18.8228 23.7646C19.1018 23.7646 19.3851 23.823 19.655 23.9463C20.6627 24.4068 21.1078 25.6013 20.6473 26.6089Z" fill="black"/>
<path d="M23.3771 21.8577C23.773 22.0386 24.1883 22.1242 24.5976 22.1242C25.7161 22.1242 26.7878 21.4844 27.2823 20.4024C27.9577 18.9245 27.3048 17.1727 25.827 16.4972C24.3492 15.8219 22.5973 16.4746 21.9218 17.9525C21.2464 19.4304 21.8992 21.1822 23.3771 21.8577ZM22.7746 18.3422C23.1118 17.6045 23.8424 17.1683 24.605 17.1683C24.8841 17.1683 25.1674 17.2267 25.4373 17.3501C26.4449 17.8106 26.89 19.0051 26.4295 20.0127C25.969 21.0204 24.7743 21.4653 23.7668 21.0049C22.7592 20.5444 22.3141 19.3499 22.7746 18.3422Z" fill="black"/>
<path d="M12.6143 11.0591C13.2897 9.5812 12.6369 7.82932 11.159 7.15395C9.68105 6.47857 7.92924 7.13139 7.2538 8.60932C6.57843 10.0871 7.23124 11.839 8.70912 12.5144C9.10505 12.6954 9.52043 12.7809 9.92968 12.7809C11.0482 12.7809 12.1198 12.1411 12.6143 11.0591ZM11.7615 10.6693C11.301 11.6769 10.1065 12.1219 9.09887 11.6616C8.09124 11.2011 7.64612 10.0066 8.10655 8.99901C8.44374 8.2612 9.17437 7.82501 9.93699 7.82501C10.216 7.82501 10.4993 7.88345 10.7692 8.00676C11.7769 8.4672 12.222 9.6617 11.7615 10.6693Z" fill="black"/>
<path d="M28.7734 4.22758C28.604 4.42333 28.6253 4.71939 28.8211 4.88889C29.017 5.05833 29.313 5.03714 29.4824 4.84121L31.3015 2.73933C31.8905 2.05889 31.8235 1.01758 31.1521 0.418144C30.4806 -0.181294 29.4385 -0.130044 28.8288 0.532081L21.9086 8.07583C21.4113 7.54914 21.05 6.88608 20.8751 5.95946C20.7956 5.53871 20.7651 5.08021 20.7329 4.59483C20.6369 3.15064 20.5281 1.51371 18.9824 0.607331C17.4233 -0.306794 15.4103 -0.179231 12.8284 0.997019C7.83914 3.27027 3.4007 7.48802 1.52108 11.7422C1.47289 11.8513 1.42539 11.9626 1.38002 12.0728C1.28145 12.3123 1.39564 12.5862 1.63508 12.6848C1.8747 12.7835 2.14852 12.6691 2.24708 12.4297C2.28939 12.3268 2.3337 12.223 2.3787 12.1212C3.29377 10.0501 4.85527 7.96271 6.89439 6.08477C8.77033 4.35714 11.0158 2.85333 13.2171 1.85033C15.5009 0.809894 17.2316 0.667769 18.5081 1.41621C19.6255 2.07139 19.709 3.32733 19.7973 4.65708C19.83 5.14877 19.8638 5.65721 19.9536 6.13352C20.1742 7.30183 20.6489 8.12758 21.2731 8.76858L17.3723 13.0208C17.1922 12.9901 17.0087 12.9709 16.8222 12.9647C15.852 12.9335 14.9627 13.2496 14.3875 13.8338C13.9474 14.2808 13.657 14.7114 13.3849 15.3203C13.1753 15.7893 13.0119 16.2723 12.7735 16.7364C12.5411 17.189 12.0893 17.5333 11.6358 17.8381C11.313 18.0549 11.264 18.3326 11.2635 18.4789C11.2623 18.7893 11.459 19.0879 11.8321 19.3424C12.0045 19.46 12.2036 19.5665 12.441 19.6679C13.2234 20.0019 14.0881 20.172 14.985 20.172C15.3301 20.172 15.68 20.1468 16.0317 20.0961C16.7218 19.9966 17.3518 19.8135 17.904 19.552C19.0308 19.0184 19.9088 17.951 20.1408 16.8325C20.2243 16.4296 20.2159 16.0109 20.1272 15.6035L24.3642 10.7329C24.6747 10.8892 24.9913 11.051 25.307 11.2248C26.1986 11.7158 26.967 12.343 27.591 13.0888C28.9345 14.6954 29.2874 16.6318 29.3469 17.9733C29.4421 20.1206 28.8566 22.3268 27.654 24.353C26.507 26.2856 24.8823 27.9381 22.9555 29.1317C19.1586 31.484 13.7221 31.7093 9.10545 29.7058C7.03095 28.8055 5.2042 27.3312 3.82264 25.4421C2.44889 23.5637 1.58477 21.3728 1.3237 19.106C1.14289 17.5362 1.23758 15.9593 1.60508 14.419C1.66514 14.1672 1.5097 13.9143 1.25783 13.8542C1.00608 13.7943 0.753079 13.9495 0.692954 14.2015C0.300017 15.8483 0.198829 17.5346 0.392142 19.2133C0.671767 21.6411 1.59627 23.9865 3.06577 25.9957C4.54558 28.019 6.50495 29.5994 8.73208 30.5659C10.9435 31.5256 13.3355 32.0001 15.6678 32.0001C18.4931 32 21.2305 31.3033 23.4493 29.9288C25.5038 28.6559 27.2365 26.8934 28.4603 24.8316C29.7563 22.6479 30.3868 20.262 30.2835 17.9318C30.1891 15.8008 29.5067 13.9181 28.3101 12.4873C27.6113 11.6518 26.7531 10.9506 25.7591 10.4034C25.5026 10.2622 25.2489 10.1305 24.9988 10.0033L28.0674 6.47589C28.2368 6.28014 28.2155 5.98408 28.0197 5.81458C27.8241 5.64521 27.528 5.66646 27.3584 5.86227L21.0402 13.1618L19.6337 11.9063L29.5187 1.16721C29.7835 0.879706 30.2361 0.857394 30.5276 1.11764C30.8193 1.37796 30.8484 1.83014 30.5925 2.12577L28.7734 4.22758ZM19.2226 16.642C19.0483 17.4826 18.3731 18.2923 17.5026 18.7045C17.0351 18.9258 16.4952 19.0818 15.8979 19.168C14.8025 19.326 13.7346 19.2005 12.8094 18.8055C12.6288 18.7283 12.482 18.6505 12.3606 18.5678C12.337 18.5516 12.316 18.5361 12.2977 18.5216C12.8082 18.1678 13.3055 17.753 13.6077 17.1646C13.8503 16.6922 14.0258 16.1841 14.241 15.7027C14.467 15.1973 14.6953 14.8576 15.0557 14.4916C15.4477 14.0935 16.0812 13.8788 16.7915 13.9018C17.4486 13.9231 18.0663 14.1308 18.5426 14.6003C19.1077 15.1575 19.3683 15.9398 19.2226 16.642ZM20.4211 13.8661L19.742 14.627C19.5943 14.3771 19.4138 14.1425 19.2009 13.9326C19.2009 13.9326 19.2008 13.9326 19.2008 13.9325C18.9498 13.6851 18.6605 13.4802 18.3538 13.3294L19.004 12.601L20.4211 13.8661Z" fill="black"/>
</svg>
