<svg width="16" height="16" viewBox="0 0 16 16" fill="none" xmlns="http://www.w3.org/2000/svg">
<g clip-path="url(#clip0_429_2580)">
<path d="M13.2374 5.27423L15.6566 4.60226C15.9061 4.53298 16.0521 4.2746 15.9828 4.02513C15.9135 3.77572 15.6552 3.62963 15.4057 3.69894L12.3984 4.53426C12.3983 4.53432 12.3981 4.53435 12.3979 4.53438L8.46875 5.62579V0.468873C8.46875 0.209997 8.25887 0.00012207 8 0.00012207C7.74112 0.00012207 7.53125 0.209997 7.53125 0.468873V5.88623L3.36112 7.04457C3.36096 7.04464 3.3608 7.04467 3.36068 7.0447L0.343421 7.88279C0.0940147 7.95208 -0.0520481 8.21045 0.017202 8.45992C0.0748271 8.66739 0.263296 8.8033 0.468609 8.8033C0.510109 8.8033 0.552359 8.79773 0.594297 8.78608L2.47511 8.26364L0.0669209 12.2777C0.0232333 12.3505 0.000139491 12.4339 0.000139491 12.5188C0.000139491 14.4383 1.5618 15.9999 3.4813 15.9999C5.40087 15.9999 6.9625 14.4383 6.9625 12.5188C6.9625 12.4339 6.9394 12.3505 6.89568 12.2776L4.20002 7.78451L11.5124 5.75338L9.10425 9.76733C9.06056 9.8402 9.03744 9.92355 9.03744 10.0085C9.03744 11.928 10.5991 13.4896 12.5186 13.4896C13.4484 13.4896 14.3226 13.1275 14.9802 12.47C15.6377 11.8124 15.9998 10.9383 15.9998 10.0084C15.9998 9.92349 15.9768 9.84014 15.933 9.7673L13.2374 5.27423ZM5.66596 12.0501H1.29677L3.48133 8.40876L5.66596 12.0501ZM10.3341 9.5397L12.5187 5.89848L14.7033 9.5397H10.3341Z" fill="#C16565"/>
</g>
<defs>
<clipPath id="clip0_429_2580">
<rect width="16" height="16" fill="white"/>
</clipPath>
</defs>
</svg>
