<svg width="24" height="24" viewBox="0 0 24 24" fill="none" xmlns="http://www.w3.org/2000/svg">
<g clip-path="url(#clip0_296_1040)">
<path d="M7.81299 15.6759C7.87125 16.922 9.65457 16.9207 9.7119 15.6755C9.09104 15.7551 8.43544 15.7551 7.81299 15.6759Z" fill="#C16565"/>
<path d="M6.24896 6.29755C9.58639 8.60772 16.2146 7.1091 15.1795 2.02287C15.0914 1.69868 14.9809 1.3805 14.8537 1.06972C14.7656 0.854237 14.5765 0.69641 14.3488 0.648129C14.1211 0.599989 13.8841 0.667441 13.7162 0.828596C12.4111 2.08071 10.4644 2.15941 8.76247 2.15941C5.76868 2.15941 3.27294 4.33271 2.77002 7.18452L3.14909 7.18372C4.29429 7.13314 5.35595 6.81346 6.24896 6.29755Z" fill="#C16565"/>
<path d="M8.76242 14.3291C12.4995 14.367 15.4373 10.8525 14.7549 7.18451C12.4738 9.0714 8.81792 9.22637 6.20715 7.89354C5.12776 8.37264 3.89567 8.62103 2.68738 8.59098C2.86766 11.7855 5.52357 14.3291 8.76242 14.3291Z" fill="#C16565"/>
<path d="M13.7345 13.8428C12.9821 14.5118 12.0944 15.0318 11.1181 15.356C11.2831 18.8929 6.24295 18.8927 6.40663 15.3579C5.44838 15.0408 4.55968 14.5292 3.78948 13.8432C1.43938 15.4651 -0.0196435 18.2003 0.000137592 21.0503V22.6639C0.000137592 23.0522 0.314948 23.367 0.703257 23.367H16.8214C17.2097 23.367 17.5245 23.0522 17.5245 22.6639V21.0503C17.5445 18.2004 16.0851 15.4641 13.7345 13.8428Z" fill="#C16565"/>
<path d="M19.4532 11.3912H24V18.8202H19.4532V11.3912Z" fill="#C16565"/>
<path d="M19.4532 22.6639C19.4532 23.0523 19.768 23.3671 20.1563 23.3671H23.2969C23.6852 23.3671 24.0001 23.0523 24.0001 22.6639V20.2264H19.4532V22.6639Z" fill="#C16565"/>
<path d="M22.3555 7.13868C22.1051 6.62437 21.348 6.62437 21.0977 7.13868L19.6746 9.98498H23.7787L22.3555 7.13868Z" fill="#C16565"/>
</g>
<defs>
<clipPath id="clip0_296_1040">
<rect width="24" height="24" fill="white"/>
</clipPath>
</defs>
</svg>
