<svg width="28" height="32" viewBox="0 0 28 32" fill="none" xmlns="http://www.w3.org/2000/svg">
<path d="M9.93649 11.0771H22.4462C22.7051 11.0771 22.915 10.8673 22.915 10.6084C22.915 10.3495 22.7051 10.1396 22.4462 10.1396H9.93649C9.67762 10.1396 9.46774 10.3495 9.46774 10.6084C9.46774 10.8673 9.67762 11.0771 9.93649 11.0771Z" fill="#C16565"/>
<path d="M9.93649 14.5513H22.4462C22.7051 14.5513 22.915 14.3414 22.915 14.0825C22.915 13.8236 22.7051 13.6138 22.4462 13.6138H9.93649C9.67762 13.6138 9.46774 13.8236 9.46774 14.0825C9.46774 14.3414 9.67762 14.5513 9.93649 14.5513Z" fill="#C16565"/>
<path d="M9.93649 18.0254H22.4462C22.7051 18.0254 22.915 17.8155 22.915 17.5566C22.915 17.2978 22.7051 17.0879 22.4462 17.0879H9.93649C9.67762 17.0879 9.46774 17.2978 9.46774 17.5566C9.46774 17.8155 9.67762 18.0254 9.93649 18.0254Z" fill="#C16565"/>
<path d="M27.0438 6.00138C27.0397 5.88388 26.9907 5.769 26.9073 5.68569L21.3589 0.137313C21.2722 0.0505625 21.1501 0 21.0274 0H7.17643C6.16274 0 5.33812 0.824687 5.33812 1.83837V2.19138H4.98512C4.03724 2.19138 3.25481 2.9125 3.15718 3.83488H2.79374C1.78006 3.83488 0.955368 4.65956 0.955368 5.67325V21.4302C0.955368 21.6891 1.16524 21.8989 1.42412 21.8989C1.68299 21.8989 1.89287 21.6891 1.89287 21.4302V5.67319C1.89287 5.17644 2.29699 4.77231 2.79374 4.77231H3.14674V28.5181C3.14674 29.5318 3.97143 30.3565 4.98512 30.3565H16.9097C17.1686 30.3565 17.3785 30.1466 17.3785 29.8878C17.3785 29.6289 17.1686 29.419 16.9097 29.419H4.98512C4.48837 29.419 4.08424 29.0149 4.08424 28.5181V4.02969C4.08424 3.53294 4.48837 3.12881 4.98512 3.12881H5.33812V5.68219C5.33812 5.94106 5.54799 6.15094 5.80687 6.15094C6.06574 6.15094 6.27562 5.94106 6.27562 5.68219V1.83837C6.27562 1.34162 6.67974 0.9375 7.17643 0.9375H20.5587V4.64775C20.5587 5.66131 21.3832 6.48588 22.3968 6.48588H26.1071V26.3267C26.1071 26.8235 25.7029 27.2276 25.2062 27.2276H7.17643C6.67968 27.2276 6.27562 26.8235 6.27562 26.3267V7.72506C6.27562 7.46619 6.06574 7.25631 5.80687 7.25631C5.54799 7.25631 5.33812 7.46619 5.33812 7.72506V26.3267C5.33812 27.3404 6.16281 28.1651 7.17643 28.1651H23.9157V28.5181C23.9157 29.0149 23.5116 29.419 23.0149 29.419H18.9526C18.6937 29.419 18.4838 29.6289 18.4838 29.8878C18.4838 30.1466 18.6937 30.3565 18.9526 30.3565H21.7026C21.6132 30.7598 21.2533 31.0625 20.8235 31.0625H2.79374C2.29699 31.0625 1.89287 30.6584 1.89287 30.1616V23.473C1.89287 23.2141 1.68299 23.0042 1.42412 23.0042C1.16524 23.0042 0.955368 23.2141 0.955368 23.473V30.1616C0.955368 31.1753 1.78006 32 2.79374 32H20.8236C21.7714 32 22.5539 31.2789 22.6515 30.3565H23.0149C24.0286 30.3565 24.8533 29.5318 24.8533 28.5181V28.1651H25.2063C26.22 28.1651 27.0447 27.3404 27.0447 26.3267V6.01713C27.0446 6.01188 27.044 6.00663 27.0438 6.00138ZM22.3969 5.54838C21.9002 5.54838 21.4962 5.14437 21.4962 4.64775V1.60038L25.4442 5.54838H22.3969Z" fill="#C16565"/>
</svg>
