<svg width="16" height="17" viewBox="0 0 16 17" fill="none" xmlns="http://www.w3.org/2000/svg">
<path fill-rule="evenodd" clip-rule="evenodd" d="M10.773 9.286L14.0715 13.387C13.892 13.461 13.698 13.5 13.5 13.5C11.0785 13.5 4.9215 13.5 2.5 13.5C2.302 13.5 2.108 13.461 1.9285 13.387L5.227 9.286C5.6835 9.7405 6.3045 10 6.9565 10H9.0435C9.6955 10 10.316 9.7405 10.773 9.286ZM1.183 4.282L4.576 8.5L1.183 12.718C1.064 12.4995 1 12.253 1 12C1 10.2685 1 6.7315 1 5C1 4.747 1.064 4.5005 1.183 4.282ZM14.817 4.282C14.936 4.5005 15 4.747 15 5V12C15 12.253 14.936 12.4995 14.817 12.718L11.424 8.5L14.817 4.282ZM1.9285 3.613C2.108 3.539 2.302 3.5 2.5 3.5H13.5C13.698 3.5 13.892 3.539 14.0715 3.613L10.174 8.4585C9.8985 8.801 9.483 9 9.0435 9C8.414 9 7.586 9 6.9565 9C6.517 9 6.1015 8.801 5.826 8.4585L1.9285 3.613Z" fill="#C16565"/>
</svg>
