<svg width="10" height="10" viewBox="0 0 10 10" fill="none" xmlns="http://www.w3.org/2000/svg">
<path d="M7.49956 0.00208065L6.20279 0C4.74592 0 3.80443 0.96594 3.80443 2.46099V3.59567H2.5006C2.38793 3.59567 2.29669 3.68701 2.29669 3.79968V5.4437C2.29669 5.55636 2.38803 5.6476 2.5006 5.6476H3.80443V9.79599C3.80443 9.90866 3.89567 9.9999 4.00834 9.9999H5.70947C5.82214 9.9999 5.91338 9.90856 5.91338 9.79599V5.6476H7.43787C7.55053 5.6476 7.64177 5.55636 7.64177 5.4437L7.64239 3.79968C7.64239 3.74558 7.62086 3.69377 7.58268 3.65549C7.5445 3.6172 7.49248 3.59567 7.43839 3.59567H5.91338V2.63379C5.91338 2.17147 6.02355 1.93677 6.62579 1.93677L7.49935 1.93646C7.61191 1.93646 7.70315 1.84512 7.70315 1.73255V0.205984C7.70315 0.093525 7.61201 0.00228871 7.49956 0.00208065Z" fill="#CAD0D7"/>
</svg>
