<svg width="32" height="32" viewBox="0 0 32 32" fill="none" xmlns="http://www.w3.org/2000/svg">
<g clip-path="url(#clip0_435_34)">
<path d="M30.7079 7.58384C30.7079 7.5424 30.7022 7.5014 30.6915 7.46146C30.6575 7.33433 30.5662 7.22383 30.4487 7.16508L16.2056 0.0493767C16.0737 -0.0164996 15.9185 -0.0164996 15.7866 0.0493767L1.54343 7.16508C1.38706 7.24321 1.28418 7.40915 1.28418 7.5844V24.4162C1.28418 24.5938 1.38456 24.7561 1.54343 24.8355L15.7866 31.9512C15.9169 32.0163 16.0753 32.0162 16.2056 31.9512L26.0245 27.0458C26.5666 26.7749 26.1476 25.9362 25.6055 26.2071L16.4649 30.7737V25.0569L24.7279 20.9288C24.8838 20.851 24.9872 20.6837 24.9872 20.5095V10.7308C26.5865 9.94826 28.1881 9.16981 29.7714 8.35529C29.7775 13.6183 29.7776 18.9441 29.7776 24.1094C29.3417 24.3584 28.8827 24.5654 28.4358 24.7932C27.8803 25.0763 28.3468 25.8907 28.8616 25.6284C29.4087 25.3495 29.973 25.0992 30.4948 24.773C30.6319 24.6873 30.7151 24.5371 30.7151 24.3755C30.7151 18.8751 30.7151 13.1874 30.7079 7.58384ZM2.2217 24.1263V8.3421L7.00498 10.7283V20.5094C7.00498 20.6836 7.10842 20.851 7.26423 20.9287L15.5273 25.0569V30.7736L2.2217 24.1263ZM24.0496 19.7512L16.4649 15.9619V6.93876L24.0496 10.728V19.7512ZM15.9961 24.2431L8.52395 20.5101L15.9961 16.789L23.4682 20.5101L15.9961 24.2431ZM24.5206 9.91532L16.2056 5.76124C16.0759 5.69636 15.9163 5.69655 15.7866 5.76124L11.5665 7.86953C11.0243 8.14047 11.4433 8.97899 11.9855 8.70823L15.5273 6.93876V15.9619L7.9425 19.7512V10.7281L9.7741 9.81301C10.3162 9.54206 9.89735 8.70355 9.35509 8.9743L7.47355 9.91432L2.8024 7.58415L15.996 0.99277L29.2052 7.59196C27.841 8.29141 24.5206 9.91532 24.5206 9.91532Z" fill="black"/>
</g>
<defs>
<clipPath id="clip0_435_34">
<rect width="32" height="32" fill="white"/>
</clipPath>
</defs>
</svg>
