<svg width="10" height="10" viewBox="0 0 10 10" fill="none" xmlns="http://www.w3.org/2000/svg">
<g clip-path="url(#clip0_7_3284)">
<path d="M6.87497 0H3.12497C1.39934 0 -3.05176e-05 1.39938 -3.05176e-05 3.125V6.875C-3.05176e-05 8.60063 1.39934 10 3.12497 10H6.87497C8.60059 10 9.99997 8.60063 9.99997 6.875V3.125C9.99997 1.39938 8.60059 0 6.87497 0ZM9.06247 6.875C9.06247 8.08125 8.08122 9.0625 6.87497 9.0625H3.12497C1.91872 9.0625 0.937469 8.08125 0.937469 6.875V3.125C0.937469 1.91875 1.91872 0.9375 3.12497 0.9375H6.87497C8.08122 0.9375 9.06247 1.91875 9.06247 3.125V6.875Z" fill="#CAD0D7"/>
<path d="M4.99997 2.5C3.61934 2.5 2.49997 3.61937 2.49997 5C2.49997 6.38063 3.61934 7.5 4.99997 7.5C6.38059 7.5 7.49997 6.38063 7.49997 5C7.49997 3.61937 6.38059 2.5 4.99997 2.5ZM4.99997 6.5625C4.13872 6.5625 3.43747 5.86125 3.43747 5C3.43747 4.13813 4.13872 3.4375 4.99997 3.4375C5.86122 3.4375 6.56247 4.13813 6.56247 5C6.56247 5.86125 5.86122 6.5625 4.99997 6.5625Z" fill="#CAD0D7"/>
<path d="M7.68661 2.64574C7.87059 2.64574 8.01973 2.49659 8.01973 2.31262C8.01973 2.12864 7.87059 1.97949 7.68661 1.97949C7.50263 1.97949 7.35349 2.12864 7.35349 2.31262C7.35349 2.49659 7.50263 2.64574 7.68661 2.64574Z" fill="#CAD0D7"/>
</g>
<defs>
<clipPath id="clip0_7_3284">
<rect width="10" height="10" fill="white"/>
</clipPath>
</defs>
</svg>
