<svg width="24" height="24" viewBox="0 0 24 24" fill="none" xmlns="http://www.w3.org/2000/svg">
<path d="M12 14.4609C13.3591 14.4609 14.4609 13.3591 14.4609 12C14.4609 10.6409 13.3591 9.53906 12 9.53906C10.6409 9.53906 9.53906 10.6409 9.53906 12C9.53906 13.3591 10.6409 14.4609 12 14.4609Z" fill="#C16565"/>
<path d="M12 0.28125C5.52792 0.28125 0.28125 5.52792 0.28125 12C0.28125 18.4721 5.52792 23.7188 12 23.7188C18.4721 23.7188 23.7188 18.4721 23.7188 12C23.7188 5.52792 18.4721 0.28125 12 0.28125ZM19.2402 14.9784C19.184 16.0926 18.8709 17.1912 18.059 17.9945C17.2392 18.8055 16.1353 19.1076 15.0105 19.1633H8.98959C7.86459 19.1076 6.76087 18.8056 5.94108 17.9945C5.12911 17.1912 4.81608 16.0926 4.75983 14.9784V9.02156C4.81608 7.90744 5.12916 6.80878 5.94108 6.00544C6.76087 5.1945 7.86473 4.89234 8.98959 4.8367H15.0104C16.1354 4.89234 17.2391 5.19436 18.0589 6.00544C18.8709 6.80878 19.1839 7.90744 19.2402 9.02156L19.2402 14.9784Z" fill="#C16565"/>
<path d="M14.9347 6.19398C13.4682 6.15376 10.5329 6.15376 9.06636 6.19398C8.30319 6.21494 7.43802 6.40492 6.89427 6.9857C6.32924 7.5894 6.11572 8.31878 6.09407 9.13473C6.056 10.5669 6.09407 14.8653 6.09407 14.8653C6.11886 15.6812 6.32924 16.4106 6.89427 17.0143C7.43802 17.5953 8.30319 17.7851 9.06636 17.806C10.5329 17.8463 13.4682 17.8463 14.9347 17.806C15.6979 17.7851 16.5631 17.5951 17.1068 17.0143C17.6719 16.4106 17.8854 15.6812 17.907 14.8653V9.13473C17.8854 8.31878 17.6719 7.5894 17.1068 6.9857C16.5629 6.40473 15.6977 6.21494 14.9347 6.19398ZM12.0004 15.8145C11.2459 15.8145 10.5084 15.5908 9.88117 15.1716C9.25388 14.7525 8.76497 14.1567 8.47627 13.4597C8.18756 12.7627 8.11202 11.9958 8.2592 11.2559C8.40638 10.5159 8.76968 9.83625 9.30314 9.30279C9.8366 8.76933 10.5163 8.40604 11.2562 8.25885C11.9961 8.11167 12.7631 8.18721 13.4601 8.47592C14.1571 8.76463 14.7528 9.25353 15.172 9.88082C15.5911 10.5081 15.8148 11.2456 15.8148 12C15.8148 13.0117 15.4129 13.9819 14.6976 14.6972C13.9822 15.4126 13.012 15.8145 12.0004 15.8145ZM15.831 8.97292C15.6802 8.97288 15.5327 8.92811 15.4072 8.84426C15.2818 8.76041 15.1841 8.64125 15.1263 8.50185C15.0686 8.36244 15.0536 8.20906 15.083 8.06108C15.1125 7.91311 15.1851 7.77719 15.2918 7.67052C15.3985 7.56384 15.5345 7.4912 15.6825 7.46178C15.8304 7.43236 15.9838 7.44748 16.1232 7.50523C16.2626 7.56297 16.3817 7.66076 16.4656 7.78621C16.5494 7.91166 16.5941 8.05915 16.5941 8.21003C16.5941 8.31023 16.5744 8.40945 16.536 8.50202C16.4977 8.59459 16.4415 8.6787 16.3706 8.74954C16.2997 8.82038 16.2156 8.87657 16.123 8.9149C16.0305 8.95323 15.9312 8.97294 15.831 8.97292Z" fill="#C16565"/>
</svg>
