<svg width="32" height="32" viewBox="0 0 32 32" fill="none" xmlns="http://www.w3.org/2000/svg">
<g clip-path="url(#clip0_14_8974)">
<path d="M31.1095 16.6622H30.5153V15.9486C30.5153 15.3186 30.0027 14.8061 29.3728 14.8061H17.8746C17.2446 14.8061 16.732 15.3186 16.732 15.9486V16.6622H8.64643C8.3881 16.6622 8.17867 16.8716 8.17867 17.1299C8.17867 17.3883 8.3881 17.5977 8.64643 17.5977H31.0309V18.6143H0.969635V17.5977H6.77539C7.03372 17.5977 7.24315 17.3883 7.24315 17.1299C7.24315 16.8716 7.03372 16.6622 6.77539 16.6622H0.891114C0.418615 16.6622 0.0341797 17.0466 0.0341797 17.5191V30.7451C0.0341797 31.4371 0.597112 32 1.28908 32H30.7116C31.4036 32 31.9665 31.4371 31.9665 30.7451V17.5191C31.9664 17.0466 31.582 16.6622 31.1095 16.6622ZM17.6676 15.9486C17.6676 15.8344 17.7604 15.7416 17.8746 15.7416H29.3728C29.4869 15.7416 29.5798 15.8344 29.5798 15.9486V16.6622H17.6676V15.9486ZM16.1229 19.5498V31.0645H9.16171V19.5498H16.1229ZM0.969635 30.7451V19.5498H8.22613V31.0645H1.28908C1.11296 31.0645 0.969635 30.9212 0.969635 30.7451ZM30.7115 31.0645H17.0584V19.5498H31.0309V30.7451C31.031 30.9212 30.8877 31.0645 30.7115 31.0645Z" fill="black"/>
<path d="M0.891114 10.4135H13.5842C14.0567 10.4135 14.4411 10.0291 14.4411 9.55658V1.02341C14.4411 0.550848 14.0567 0.166412 13.5842 0.166412H0.891114C0.418615 0.166412 0.0341797 0.550848 0.0341797 1.02341V9.55651C0.0341797 10.0291 0.418615 10.4135 0.891114 10.4135ZM13.5056 9.47799H7.70536V1.10199H13.5056V9.47799ZM0.969635 1.10199H6.76984V9.47799H0.969635V1.10199Z" fill="black"/>
<path d="M16.9028 10.4135H23.7709C24.0292 10.4135 24.2387 10.2041 24.2387 9.94573C24.2387 9.68741 24.0292 9.47798 23.7709 9.47798H16.9814V8.27428H29.5797V9.47798H25.6419C25.3836 9.47798 25.1742 9.68741 25.1742 9.94573C25.1742 10.2041 25.3836 10.4135 25.6419 10.4135H29.6583C30.1308 10.4135 30.5152 10.0291 30.5152 9.55656V8.19576C30.5152 7.73929 30.1562 7.36608 29.7058 7.34119L27.3897 2.91177L27.2878 0.448425C27.2774 0.197831 27.0712 0 26.8204 0H19.8269C19.7015 0 19.5813 0.0503932 19.4935 0.139766C19.4055 0.229202 19.3571 0.350133 19.3593 0.475555L19.4001 2.92443L17.0918 7.3387H16.9028C16.4303 7.3387 16.0459 7.72313 16.0459 8.19569V9.5565C16.0459 10.0291 16.4303 10.4135 16.9028 10.4135ZM26.3716 0.935517L26.4391 2.56793H20.3298L20.3026 0.935517H26.3716ZM20.1531 3.50345H26.6434L28.6489 7.33876H18.1475L20.1531 3.50345Z" fill="black"/>
<path d="M14.6758 22.8012C14.9341 22.8012 15.1435 22.5918 15.1435 22.3335V21.2408C15.1435 20.9825 14.9341 20.773 14.6758 20.773C14.4174 20.773 14.208 20.9825 14.208 21.2408V22.3335C14.208 22.5918 14.4174 22.8012 14.6758 22.8012Z" fill="black"/>
<path d="M29.5957 20.7731C29.3374 20.7731 29.1279 20.9825 29.1279 21.2409V22.3335C29.1279 22.5919 29.3374 22.8013 29.5957 22.8013C29.854 22.8013 30.0634 22.5919 30.0634 22.3335V21.2409C30.0634 20.9825 29.854 20.7731 29.5957 20.7731Z" fill="black"/>
<path d="M6.84862 20.7731C6.59029 20.7731 6.38086 20.9825 6.38086 21.2409V22.3335C6.38086 22.5919 6.59029 22.8013 6.84862 22.8013C7.10695 22.8013 7.31638 22.5919 7.31638 22.3335V21.2409C7.31638 20.9825 7.10695 20.7731 6.84862 20.7731Z" fill="black"/>
<path d="M5.39452 6.24606C5.13619 6.24606 4.92676 6.45549 4.92676 6.71382V7.80644C4.92676 8.06477 5.13619 8.2742 5.39452 8.2742C5.65284 8.2742 5.86228 8.06477 5.86228 7.80644V6.71382C5.86228 6.45549 5.65284 6.24606 5.39452 6.24606Z" fill="black"/>
<path d="M9.02928 8.27426C9.28761 8.27426 9.49704 8.06483 9.49704 7.8065V6.71388C9.49704 6.45556 9.28761 6.24612 9.02928 6.24612C8.77095 6.24612 8.56152 6.45556 8.56152 6.71388V7.8065C8.56152 8.06483 8.77095 8.27426 9.02928 8.27426Z" fill="black"/>
</g>
<defs>
<clipPath id="clip0_14_8974">
<rect width="32" height="32" fill="white"/>
</clipPath>
</defs>
</svg>
