<svg width="32" height="32" viewBox="0 0 32 32" fill="none" xmlns="http://www.w3.org/2000/svg">
<path d="M27.7 19.5125C27.445 19.3632 27.1185 19.4485 26.9702 19.703L20.8547 30.1333C20.4129 30.8978 19.433 31.1614 18.6919 30.7335L17.5006 29.9615C17.2531 29.8009 16.9228 29.8714 16.7628 30.1189C16.6022 30.3659 16.6731 30.6967 16.9201 30.8567L18.1349 31.6431C18.5537 31.8853 19.012 32 19.4643 32C20.3867 32 21.2841 31.5225 21.7765 30.67L27.8897 20.2423C28.0387 19.9884 27.954 19.6613 27.7 19.5125Z" fill="black"/>
<path d="M29.3137 0H20.7779C19.1272 0 17.8976 0.525471 16.6662 1.75678C16.4577 1.9654 16.4577 2.30257 16.6662 2.51113C16.8749 2.71976 17.212 2.71976 17.4206 2.51113C18.4599 1.47188 19.4014 1.06695 20.7779 1.06695H29.3137C30.1961 1.06695 30.9142 1.78504 30.9142 2.66743V11.2034C30.9142 12.5803 30.5093 13.5214 29.4695 14.5606L13.6258 30.4268C13.0208 31.0307 11.9666 31.0312 11.3628 30.4268L1.55445 20.6185C1.25199 20.316 1.0855 19.9142 1.0855 19.4864C1.0855 19.059 1.25193 18.6573 1.55389 18.3553L15.8739 4.05559C16.0943 4.11161 16.3151 4.16763 16.544 4.22896C18.7143 4.81045 20.4268 5.41119 21.7035 5.94735C21.4522 6.41255 21.3113 6.93377 21.3113 7.46887C21.3113 9.23422 22.747 10.6698 24.5123 10.6698C26.2776 10.6698 27.7133 9.23422 27.7133 7.46887C27.7133 5.70353 26.2776 4.26791 24.5123 4.26791C24.2173 4.26791 23.9788 4.50692 23.9788 4.80138C23.9788 5.09585 24.2173 5.33485 24.5123 5.33485C25.6892 5.33485 26.6462 6.29195 26.6462 7.46881C26.6462 8.64573 25.6891 9.60276 24.5123 9.60276C23.3354 9.60276 22.3783 8.64566 22.3783 7.46881C22.3783 7.08469 22.4834 6.70964 22.6771 6.38317C23.6011 6.82543 24.1789 7.19835 24.4073 7.4363C24.3096 7.46406 24.1586 7.495 23.9309 7.5147C23.6375 7.54083 23.4203 7.7996 23.4465 8.093C23.471 8.37039 23.7036 8.58008 23.9773 8.58008C23.9928 8.58008 24.0088 8.57902 24.0248 8.57796C24.3529 8.54863 25.351 8.46061 25.5431 7.74514C26.0686 5.78243 18.3687 3.61321 16.8199 3.19815C14.4506 2.56327 12.1753 2.12902 10.4121 1.97541C8.24559 1.78604 7.19034 2.03249 6.9919 2.77402C6.89694 3.12988 6.64355 4.07466 10.9691 5.78024C11.2428 5.88852 11.5533 5.75411 11.6611 5.4799C11.7688 5.20569 11.6344 4.89572 11.3602 4.78794C9.27046 3.96369 8.40458 3.35976 8.12718 3.07543C8.785 2.8823 11.0347 2.93832 14.6577 3.76201L0.800102 17.6005C0.295951 18.1046 0.0185547 18.7741 0.0185547 19.4864C0.0185547 20.1991 0.295951 20.8692 0.800102 21.3728L10.6084 31.1811C11.1115 31.6847 11.7815 31.9621 12.4937 31.9621C13.2065 31.9621 13.876 31.6847 14.3802 31.1806L30.2244 15.315C31.4562 14.0837 31.9812 12.854 31.9812 11.2034V2.66749C31.9812 1.19661 30.7846 0 29.3137 0Z" fill="black"/>
</svg>
