<svg width="16" height="17" viewBox="0 0 16 17" fill="none" xmlns="http://www.w3.org/2000/svg">
<g clip-path="url(#clip0_3_808)">
<path d="M8 11.8033C10.3518 11.8033 12.2583 9.8968 12.2583 7.545C12.2583 5.1932 10.3518 3.28668 8 3.28668C5.6482 3.28668 3.74168 5.1932 3.74168 7.545C3.74168 9.8968 5.6482 11.8033 8 11.8033Z" fill="#C16565"/>
<path d="M13.0037 2.57258C11.6672 1.23606 9.89016 0.5 8 0.5C6.10984 0.5 4.3328 1.23606 2.99629 2.57258C1.65974 3.90916 0.923676 5.68616 0.923676 7.57632C0.923676 10.9109 3.25492 13.7898 6.49352 14.4914L8 16.5L9.5065 14.4913C12.7451 13.7898 15.0763 10.9109 15.0763 7.57632C15.0763 5.68616 14.3403 3.90916 13.0037 2.57258ZM8 2.34736C10.866 2.34736 13.1976 4.67904 13.1976 7.54501C13.1976 10.411 10.866 12.7427 8 12.7427C5.13399 12.7427 2.80234 10.411 2.80234 7.54501C2.80234 4.67904 5.13399 2.34736 8 2.34736Z" fill="#C16565"/>
</g>
<defs>
<clipPath id="clip0_3_808">
<rect width="16" height="16" fill="white" transform="translate(0 0.5)"/>
</clipPath>
</defs>
</svg>
