<svg width="32" height="26" viewBox="0 0 32 26" fill="none" xmlns="http://www.w3.org/2000/svg">
<path d="M31.224 11.5525L28.6185 10.25L31.224 8.94999C31.3072 8.90852 31.3772 8.84468 31.4261 8.76563C31.475 8.68658 31.5009 8.59546 31.5009 8.50249C31.5009 8.40953 31.475 8.3184 31.4261 8.23935C31.3772 8.1603 31.3072 8.09646 31.224 8.05499L16.224 0.554991C16.1546 0.520312 16.078 0.502258 16.0005 0.502258C15.9229 0.502258 15.8464 0.520312 15.777 0.554991L0.776967 8.05499C0.693763 8.09646 0.623768 8.1603 0.574843 8.23935C0.525918 8.3184 0.5 8.40953 0.5 8.50249C0.5 8.59546 0.525918 8.68658 0.574843 8.76563C0.623768 8.84468 0.693763 8.90852 0.776967 8.94999L3.38247 10.25L0.776967 11.5525C0.693851 11.594 0.623951 11.6579 0.575112 11.7369C0.526272 11.816 0.500424 11.9071 0.500467 12V14C0.499957 14.0933 0.525586 14.185 0.574452 14.2645C0.623317 14.344 0.693469 14.4083 0.776967 14.45L3.38247 15.75L0.776967 17.05C0.693763 17.0915 0.623768 17.1553 0.574843 17.2344C0.525918 17.3134 0.5 17.4045 0.5 17.4975C0.5 17.5905 0.525918 17.6816 0.574843 17.7606C0.623768 17.8397 0.693763 17.9035 0.776967 17.945L15.777 25.445C15.8464 25.4797 15.9229 25.4977 16.0005 25.4977C16.078 25.4977 16.1546 25.4797 16.224 25.445L31.224 17.945C31.3072 17.9035 31.3772 17.8397 31.4261 17.7606C31.475 17.6816 31.5009 17.5905 31.5009 17.4975C31.5009 17.4045 31.475 17.3134 31.4261 17.2344C31.3772 17.1553 31.3072 17.0915 31.224 17.05L28.6185 15.75L31.224 14.45C31.3075 14.4083 31.3776 14.344 31.4265 14.2645C31.4753 14.185 31.501 14.0933 31.5005 14V12C31.5005 11.9071 31.4747 11.816 31.4258 11.7369C31.377 11.6579 31.3071 11.594 31.224 11.5525ZM16.0005 1.55899L29.8825 8.49999L16.0005 15.441L2.11847 8.49999L16.0005 1.55899ZM15.777 16.45C15.8464 16.4847 15.9229 16.5027 16.0005 16.5027C16.078 16.5027 16.1546 16.4847 16.224 16.45L27.5005 10.809L29.8825 12L16.0005 18.941L2.11847 12L4.50047 10.809L15.777 16.45ZM1.50047 12.809L15.5005 19.809V20.691L1.50047 13.691V12.809ZM29.8825 17.5L16.0005 24.441L2.11847 17.5L4.50047 16.309L15.777 21.95C15.8464 21.9847 15.9229 22.0027 16.0005 22.0027C16.078 22.0027 16.1546 21.9847 16.224 21.95L27.5005 16.309L29.8825 17.5ZM16.5005 20.691V19.809L30.5005 12.809V13.691L16.5005 20.691Z" fill="black"/>
</svg>
