<svg width="32" height="32" viewBox="0 0 32 32" fill="none" xmlns="http://www.w3.org/2000/svg">
<path d="M3.20046 8.53336H7.46712C7.75002 8.53336 8.02133 8.42098 8.22137 8.22094C8.42141 8.0209 8.53379 7.74959 8.53379 7.4667V3.20003C8.53379 2.91713 8.42141 2.64582 8.22137 2.44578C8.02133 2.24574 7.75002 2.13336 7.46712 2.13336H3.20046C2.91756 2.13336 2.64625 2.24574 2.44621 2.44578C2.24617 2.64582 2.13379 2.91713 2.13379 3.20003V7.4667C2.13379 7.74959 2.24617 8.0209 2.44621 8.22094C2.64625 8.42098 2.91756 8.53336 3.20046 8.53336ZM3.20046 3.20003H7.46712V7.4667H3.20046V3.20003Z" fill="black"/>
<path d="M3.20046 16H7.46712C7.75002 16 8.02133 15.8876 8.22137 15.6876C8.42141 15.4875 8.53379 15.2162 8.53379 14.9333V10.6666C8.53379 10.3837 8.42141 10.1124 8.22137 9.9124C8.02133 9.71236 7.75002 9.59998 7.46712 9.59998H3.20046C2.91756 9.59998 2.64625 9.71236 2.44621 9.9124C2.24617 10.1124 2.13379 10.3837 2.13379 10.6666V14.9333C2.13379 15.2162 2.24617 15.4875 2.44621 15.6876C2.64625 15.8876 2.91756 16 3.20046 16ZM3.20046 10.6666H7.46712V14.9333H3.20046V10.6666Z" fill="black"/>
<path d="M8.53379 18.1333C8.53379 17.8504 8.42141 17.5791 8.22137 17.3791C8.02133 17.179 7.75002 17.0667 7.46712 17.0667H3.20046C2.91756 17.0667 2.64625 17.179 2.44621 17.3791C2.24617 17.5791 2.13379 17.8504 2.13379 18.1333V22.4C2.13379 22.6829 2.24617 22.9542 2.44621 23.1542C2.64625 23.3543 2.91756 23.4667 3.20046 23.4667H7.46712C7.75002 23.4667 8.02133 23.3543 8.22137 23.1542C8.42141 22.9542 8.53379 22.6829 8.53379 22.4V18.1333ZM3.20046 22.4V18.1333H7.46712V22.4H3.20046Z" fill="black"/>
<path d="M30.4 21.3333H18.2091L27.2645 12.2779C27.4131 12.1293 27.531 11.9529 27.6114 11.7588C27.6919 11.5646 27.7333 11.3565 27.7333 11.1464C27.7333 10.9363 27.6919 10.7282 27.6114 10.534C27.531 10.3399 27.4131 10.1635 27.2645 10.0149L21.9845 4.73493C21.836 4.58633 21.6596 4.46845 21.4654 4.38803C21.2713 4.3076 21.0632 4.26621 20.8531 4.26621C20.6429 4.26621 20.4349 4.3076 20.2407 4.38803C20.0466 4.46845 19.8702 4.58633 19.7216 4.73493L10.6667 13.7909V1.6C10.6667 1.17565 10.4981 0.768687 10.198 0.468629C9.89798 0.168571 9.49101 0 9.06667 0L1.6 0C1.17565 0 0.768687 0.168571 0.468629 0.468629C0.168571 0.768687 0 1.17565 0 1.6L0 26.6667C0.00155285 28.0807 0.563955 29.4363 1.56381 30.4362C2.56367 31.436 3.91932 31.9984 5.33333 32H30.4C30.8243 32 31.2313 31.8314 31.5314 31.5314C31.8314 31.2313 32 30.8243 32 30.4V22.9333C32 22.509 31.8314 22.102 31.5314 21.802C31.2313 21.5019 30.8243 21.3333 30.4 21.3333ZM20.4768 5.4896C20.5768 5.38962 20.7124 5.33345 20.8539 5.33345C20.9953 5.33345 21.1309 5.38962 21.2309 5.4896L26.5109 10.7696C26.6108 10.8696 26.6668 11.0051 26.6668 11.1464C26.6668 11.2877 26.6108 11.4232 26.5109 11.5232L10.6059 27.4277C10.6443 27.1758 10.6646 26.9215 10.6667 26.6667V25.7163C10.8099 25.6651 10.9403 25.5831 11.0485 25.4763L14.0683 22.4624C14.2682 22.2617 14.3804 21.9899 14.3804 21.7067C14.3804 21.4234 14.2682 21.1516 14.0683 20.9509L11.0501 17.9328C10.9407 17.8281 10.8099 17.7484 10.6667 17.6992V15.2992L20.4768 5.4896ZM10.6667 19.0587L13.3141 21.7067L10.6667 24.3509V19.0587ZM13.8667 25.6757V28.8H10.7424L13.8667 25.6757ZM1.06667 26.6667V1.6C1.06667 1.45855 1.12286 1.3229 1.22288 1.22288C1.3229 1.12286 1.45855 1.06667 1.6 1.06667H9.06667C9.20812 1.06667 9.34377 1.12286 9.44379 1.22288C9.54381 1.3229 9.6 1.45855 9.6 1.6V26.6667C9.6 27.7983 9.15048 28.8835 8.35032 29.6837C7.55017 30.4838 6.46492 30.9333 5.33333 30.9333C4.20174 30.9333 3.1165 30.4838 2.31634 29.6837C1.51619 28.8835 1.06667 27.7983 1.06667 26.6667ZM30.9333 30.4C30.9333 30.5415 30.8771 30.6771 30.7771 30.7771C30.6771 30.8771 30.5415 30.9333 30.4 30.9333H8.51947C8.71711 30.7875 8.9044 30.6282 9.08 30.4565H9.08267L9.67573 29.8667H13.8667C14.1496 29.8667 14.4209 29.7543 14.6209 29.5542C14.821 29.3542 14.9333 29.0829 14.9333 28.8V24.6091L17.1424 22.4H30.4C30.5415 22.4 30.6771 22.4562 30.7771 22.5562C30.8771 22.6562 30.9333 22.7919 30.9333 22.9333V30.4Z" fill="black"/>
<path d="M28.8001 23.4667H24.5335C24.2506 23.4667 23.9793 23.5791 23.7792 23.7791C23.5792 23.9791 23.4668 24.2504 23.4668 24.5333V28.8C23.4668 29.0829 23.5792 29.3542 23.7792 29.5543C23.9793 29.7543 24.2506 29.8667 24.5335 29.8667H28.8001C29.083 29.8667 29.3543 29.7543 29.5544 29.5543C29.7544 29.3542 29.8668 29.0829 29.8668 28.8V24.5333C29.8668 24.2504 29.7544 23.9791 29.5544 23.7791C29.3543 23.5791 29.083 23.4667 28.8001 23.4667ZM28.8001 28.8H24.5335V24.5333H28.8001V28.8Z" fill="black"/>
<path d="M21.3333 23.4667H17.0667C16.7838 23.4667 16.5125 23.5791 16.3124 23.7791C16.1124 23.9791 16 24.2504 16 24.5333V28.8C16 29.0829 16.1124 29.3542 16.3124 29.5543C16.5125 29.7543 16.7838 29.8667 17.0667 29.8667H21.3333C21.6162 29.8667 21.8875 29.7543 22.0876 29.5543C22.2876 29.3542 22.4 29.0829 22.4 28.8V24.5333C22.4 24.2504 22.2876 23.9791 22.0876 23.7791C21.8875 23.5791 21.6162 23.4667 21.3333 23.4667ZM21.3333 28.8H17.0667V24.5333H21.3333V28.8Z" fill="black"/>
<path d="M5.33353 24.5333C4.9116 24.5333 4.49914 24.6584 4.14831 24.8929C3.79749 25.1273 3.52405 25.4605 3.36259 25.8503C3.20112 26.2401 3.15887 26.669 3.24119 27.0829C3.3235 27.4967 3.52668 27.8768 3.82503 28.1752C4.12339 28.4735 4.50351 28.6767 4.91734 28.759C5.33116 28.8413 5.76011 28.7991 6.14992 28.6376C6.53974 28.4761 6.87292 28.2027 7.10733 27.8519C7.34175 27.5011 7.46686 27.0886 7.46686 26.6667C7.46686 26.1009 7.2421 25.5582 6.84202 25.1582C6.44195 24.7581 5.89932 24.5333 5.33353 24.5333ZM5.33353 27.7333C5.12256 27.7333 4.91633 27.6708 4.74092 27.5536C4.56551 27.4364 4.42879 27.2698 4.34806 27.0749C4.26732 26.8799 4.2462 26.6655 4.28736 26.4586C4.32852 26.2516 4.43011 26.0616 4.57928 25.9124C4.72846 25.7632 4.91852 25.6616 5.12543 25.6205C5.33235 25.5793 5.54682 25.6005 5.74173 25.6812C5.93663 25.7619 6.10322 25.8986 6.22043 26.074C6.33764 26.2495 6.4002 26.4557 6.4002 26.6667C6.4002 26.9496 6.28782 27.2209 6.08778 27.4209C5.88774 27.6209 5.61643 27.7333 5.33353 27.7333Z" fill="black"/>
<path d="M20.0994 14.9179C20.2995 15.1178 20.5707 15.2302 20.8536 15.2302C21.1364 15.2302 21.4077 15.1178 21.6077 14.9179L24.6248 11.9008C24.7239 11.8018 24.8025 11.6841 24.8561 11.5547C24.9097 11.4253 24.9373 11.2865 24.9373 11.1464C24.9373 11.0063 24.9097 10.8676 24.8561 10.7381C24.8025 10.6087 24.7239 10.4911 24.6248 10.392L21.6077 7.37548C21.4077 7.17551 21.1364 7.06317 20.8536 7.06317C20.5707 7.06317 20.2995 7.17551 20.0994 7.37548L17.0818 10.392C16.8819 10.592 16.7695 10.8633 16.7695 11.1461C16.7695 11.429 16.8819 11.7002 17.0818 11.9003L20.0994 14.9179ZM20.853 8.12961L23.8706 11.1467L20.853 14.1637L17.836 11.1467L20.853 8.12961Z" fill="black"/>
<path d="M14.8196 20.1974C15.0196 20.3973 15.2909 20.5097 15.5737 20.5097C15.8566 20.5097 16.1278 20.3973 16.3279 20.1974L19.3455 17.1798C19.5453 16.9798 19.6575 16.7086 19.6575 16.4259C19.6575 16.1432 19.5453 15.872 19.3455 15.672L16.3284 12.655C16.1284 12.455 15.8571 12.3427 15.5743 12.3427C15.2914 12.3427 15.0202 12.455 14.8201 12.655L11.8025 15.672C11.6026 15.8721 11.4902 16.1433 11.4902 16.4262C11.4902 16.709 11.6026 16.9803 11.8025 17.1803L14.8196 20.1974ZM15.5732 13.4091L18.5908 16.4267L15.5732 19.4438L12.5567 16.4267L15.5732 13.4091Z" fill="black"/>
</svg>
