<svg width="32" height="32" viewBox="0 0 32 32" fill="none" xmlns="http://www.w3.org/2000/svg">
<g clip-path="url(#clip0_435_915)">
<path d="M10.3554 6.41538C10.6143 6.41538 10.8242 6.20557 10.8242 5.94663V4.77057H11.9892C12.2482 4.77057 12.458 4.56076 12.458 4.30182C12.458 4.04288 12.2482 3.83307 11.9892 3.83307H10.7066C10.2545 3.83307 9.88672 4.20088 9.88672 4.65301V5.94657C9.88666 6.20551 10.0965 6.41538 10.3554 6.41538Z" fill="black"/>
<path d="M26.7236 4.77057H27.8671V5.94657C27.8671 6.20551 28.0769 6.41532 28.3359 6.41532C28.5948 6.41532 28.8046 6.20551 28.8046 5.94657V4.65301C28.8046 4.20088 28.4368 3.83307 27.9847 3.83307H26.7236C26.4647 3.83307 26.2549 4.04288 26.2549 4.30182C26.2549 4.56076 26.4648 4.77057 26.7236 4.77057Z" fill="black"/>
<path d="M26.7236 22.7511H27.9847C28.4368 22.7511 28.8046 22.3833 28.8046 21.9312V20.681C28.8046 20.4221 28.5948 20.2122 28.3359 20.2122C28.0769 20.2122 27.8671 20.4221 27.8671 20.681V21.8136H26.7236C26.4647 21.8136 26.2549 22.0234 26.2549 22.2824C26.2549 22.5413 26.4648 22.7511 26.7236 22.7511Z" fill="black"/>
<path d="M10.7067 22.7511H11.9893C12.2482 22.7511 12.458 22.5413 12.458 22.2824C12.458 22.0234 12.2482 21.8136 11.9893 21.8136H10.8242V20.681C10.8242 20.4221 10.6144 20.2122 10.3555 20.2122C10.0965 20.2122 9.88672 20.4221 9.88672 20.681V21.9312C9.88678 22.3833 10.2545 22.7511 10.7067 22.7511Z" fill="black"/>
<path d="M30.7257 25.3693H6.96744C6.78175 25.3693 6.63069 25.2183 6.63069 25.0326V1.27425C6.63069 0.571625 6.059 0 5.35638 0H1.27425C0.571625 0 0 0.571625 0 1.27425V8.89906C0 9.158 0.209812 9.36781 0.46875 9.36781C0.727687 9.36781 0.9375 9.158 0.9375 8.89906V1.27425C0.9375 1.08856 1.08856 0.9375 1.27425 0.9375H5.35638C5.54213 0.9375 5.69319 1.08856 5.69319 1.27425V3.55206H4.10419C3.84525 3.55206 3.63544 3.76187 3.63544 4.02081C3.63544 4.27975 3.84525 4.48956 4.10419 4.48956H5.69319V6.53906H4.71875C4.45981 6.53906 4.25 6.74888 4.25 7.00781C4.25 7.26675 4.45981 7.47656 4.71875 7.47656H5.69319V9.526H4.10419C3.84525 9.526 3.63544 9.73581 3.63544 9.99475C3.63544 10.2537 3.84525 10.4635 4.10419 10.4635H5.69319V12.513H4.71875C4.45981 12.513 4.25 12.7228 4.25 12.9817C4.25 13.2407 4.45981 13.4505 4.71875 13.4505H5.69319V15.4999H4.10419C3.84525 15.4999 3.63544 15.7097 3.63544 15.9687C3.63544 16.2276 3.84525 16.4374 4.10419 16.4374H5.69319V18.4869H4.71875C4.45981 18.4869 4.25 18.6967 4.25 18.9557C4.25 19.2146 4.45981 19.4244 4.71875 19.4244H5.69319V21.4739H4.10419C3.84525 21.4739 3.63544 21.6838 3.63544 21.9427C3.63544 22.2016 3.84525 22.4114 4.10419 22.4114H5.69319V25.0326C5.69319 25.2124 5.73062 25.3836 5.79812 25.5389L0.9375 30.3996V11.0904C0.9375 10.8315 0.727687 10.6217 0.46875 10.6217C0.209812 10.6217 0 10.8315 0 11.0904V30.7257C0 31.4281 0.57125 32 1.27425 32H30.7258C31.4284 32 32.0001 31.4284 32.0001 30.7257V26.6436C32 25.941 31.4284 25.3693 30.7257 25.3693ZM31.0625 30.7257C31.0625 30.9114 30.9114 31.0625 30.7257 31.0625H1.60044L6.46106 26.2019C6.61631 26.2694 6.78756 26.3068 6.96737 26.3068H9.29094V27.8967C9.29094 28.1557 9.50075 28.3655 9.75969 28.3655C10.0186 28.3655 10.2284 28.1557 10.2284 27.8967V26.3068H12.2779V27.2822C12.2779 27.5411 12.4878 27.7509 12.7467 27.7509C13.0056 27.7509 13.2154 27.5411 13.2154 27.2822V26.3068H15.2649V27.8967C15.2649 28.1557 15.4747 28.3655 15.7336 28.3655C15.9926 28.3655 16.2024 28.1557 16.2024 27.8967V26.3068H18.2519V27.2822C18.2519 27.5411 18.4617 27.7509 18.7206 27.7509C18.9796 27.7509 19.1894 27.5411 19.1894 27.2822V26.3068H21.2388V27.8967C21.2388 28.1557 21.4486 28.3655 21.7076 28.3655C21.9665 28.3655 22.1763 28.1557 22.1763 27.8967V26.3068H24.2258V27.2822C24.2258 27.5411 24.4356 27.7509 24.6946 27.7509C24.9535 27.7509 25.1633 27.5411 25.1633 27.2822V26.3068H27.2127V27.8967C27.2127 28.1557 27.4226 28.3655 27.6815 28.3655C27.9404 28.3655 28.1502 28.1557 28.1502 27.8967V26.3068H30.7257C30.9114 26.3068 31.0625 26.4579 31.0625 26.6436V30.7257Z" fill="black"/>
<path d="M13.2754 17.6109L18.6406 20.7086C19.0756 20.9597 19.6159 20.9598 20.0508 20.7086L25.416 17.6109C25.8509 17.3599 26.1211 16.8919 26.1211 16.3897V10.1944C26.1211 9.69294 25.8514 9.2245 25.4161 8.97319L20.0509 5.87563C19.6159 5.62451 19.0756 5.62451 18.6406 5.87563L13.2755 8.97326C12.8409 9.22407 12.5703 9.692 12.5703 10.1945V16.3898C12.5703 16.8919 12.8405 17.3599 13.2754 17.6109ZM13.7441 16.7991C13.5984 16.7149 13.5078 16.5581 13.5078 16.3897V10.4628L18.877 13.5627V19.7625L13.7441 16.7991ZM19.1094 6.68751C19.2551 6.60332 19.4363 6.60319 19.5821 6.68751L24.7149 9.65094L22.9471 10.6716C22.7229 10.801 22.6461 11.0877 22.7755 11.3119C22.9055 11.5372 23.1927 11.6123 23.4158 11.4834L25.1836 10.4628V16.3897C25.1836 16.558 25.0931 16.7149 24.9473 16.7991L19.8145 19.7624V13.5627L21.4855 12.5979C21.7097 12.4685 21.7865 12.1818 21.6571 11.9576C21.5277 11.7334 21.2408 11.6567 21.0167 11.7861L19.3457 12.7508L13.9766 9.65094L19.1094 6.68751Z" fill="black"/>
</g>
<defs>
<clipPath id="clip0_435_915">
<rect width="32" height="32" fill="white"/>
</clipPath>
</defs>
</svg>
