<svg width="22" height="22" viewBox="0 0 22 22" fill="none" xmlns="http://www.w3.org/2000/svg">
<path d="M10.1928 1.10402C10.5923 0.557659 11.4077 0.557658 11.8072 1.10401L15.1833 5.72133C15.3067 5.89013 15.48 6.01599 15.6787 6.08121L21.1132 7.86523C21.7563 8.07633 22.0083 8.85191 21.6121 9.40068L18.2641 14.0384C18.1417 14.2079 18.0755 14.4116 18.0749 14.6207L18.0576 20.3406C18.0555 21.0174 17.3958 21.4967 16.7514 21.2895L11.3061 19.5384C11.1071 19.4744 10.8929 19.4744 10.6939 19.5384L5.24857 21.2895C4.60424 21.4967 3.94449 21.0174 3.94244 20.3406L3.92511 14.6207C3.92448 14.4116 3.85831 14.2079 3.73591 14.0384L0.387854 9.40068C-0.00831413 8.85191 0.243688 8.07633 0.886752 7.86523L6.32134 6.08121C6.52002 6.01599 6.69326 5.89013 6.81668 5.72133L10.1928 1.10402Z" fill="#D9D9D9"/>
</svg>
