<svg width="16" height="16" viewBox="0 0 16 16" fill="none" xmlns="http://www.w3.org/2000/svg">
<g clip-path="url(#clip0_5_684)">
<path d="M15.4367 9.262C15.9141 5.244 15.2074 2.70733 13.9327 1.56L13.9334 1.55933C11.8761 -0.399999 4.92805 -0.689999 2.46672 1.64733C1.36139 2.79067 0.972053 4.46867 0.929386 6.546C0.88672 8.624 0.836053 12.5167 4.46339 13.5727H4.46672L4.46339 15.1853C4.46339 15.1853 4.43872 15.8387 4.85605 15.97C5.33339 16.1247 5.54939 15.8213 7.03405 14.048C9.51672 14.2633 11.4234 13.77 11.6401 13.698C12.1414 13.53 14.9781 13.1547 15.4367 9.262ZM7.27872 12.9133C7.27872 12.9133 5.70739 14.8727 5.21872 15.3813C5.05872 15.5467 4.88339 15.5313 4.88605 15.2033C4.88605 14.988 4.89805 12.526 4.89805 12.526C1.82272 11.6447 2.00405 8.33 2.03739 6.596C2.07072 4.86133 2.38805 3.44067 3.32405 2.484C5.48339 0.459335 11.5747 0.912001 13.1267 2.37067C15.0241 4.05267 14.3487 8.80467 14.3527 8.96667C13.9627 12.216 11.6641 12.422 11.2414 12.5627C11.0607 12.6227 9.38405 13.054 7.27872 12.9133Z" fill="black"/>
<path d="M8.14794 2.86467C7.89128 2.86467 7.89128 3.26467 8.14794 3.268C10.1393 3.28334 11.7793 4.67134 11.7973 7.21734C11.7973 7.486 12.1906 7.48267 12.1873 7.214H12.1866C12.1653 4.47067 10.3746 2.88 8.14794 2.86467Z" fill="black"/>
<path d="M10.7673 6.79533C10.7613 7.06066 11.154 7.07333 11.1573 6.80466C11.19 5.29199 10.2573 4.04599 8.50467 3.91466C8.248 3.89599 8.22133 4.29933 8.47733 4.31799C9.99733 4.43333 10.798 5.47066 10.7673 6.79533Z" fill="black"/>
<path d="M10.3473 8.516C10.018 8.32533 9.68265 8.444 9.54398 8.63133L9.25398 9.00667C9.10665 9.19733 8.83131 9.172 8.83131 9.172C6.82198 8.64067 6.28465 6.538 6.28465 6.538C6.28465 6.538 6.25998 6.25333 6.44398 6.10067L6.80665 5.80067C6.98798 5.65667 7.10265 5.31 6.91798 4.96933C6.42465 4.078 6.09331 3.77066 5.92465 3.53466C5.74731 3.31266 5.48065 3.26266 5.20331 3.41266H5.19731C4.62065 3.75 3.98931 4.38133 4.19131 5.03133C4.53598 5.71666 5.16931 7.90133 7.18798 9.552C8.13665 10.3327 9.63798 11.1327 10.2753 11.3173L10.2813 11.3267C10.9093 11.536 11.52 10.88 11.846 10.286V10.2813C11.9906 9.994 11.9426 9.722 11.7313 9.544C11.3566 9.17867 10.7913 8.77533 10.3473 8.516Z" fill="black"/>
<path d="M8.77928 5.40266C9.41994 5.43999 9.73061 5.77466 9.76394 6.46199C9.77594 6.73066 10.1659 6.71199 10.1539 6.44333C10.1113 5.54599 9.64328 5.04599 8.80061 4.99933C8.54394 4.98399 8.51994 5.38733 8.77928 5.40266Z" fill="black"/>
</g>
<defs>
<clipPath id="clip0_5_684">
<rect width="16" height="16" fill="white"/>
</clipPath>
</defs>
</svg>
