<svg width="16" height="16" viewBox="0 0 16 16" fill="none" xmlns="http://www.w3.org/2000/svg">
<g clip-path="url(#clip0_7_3260)">
<path d="M15.4367 9.26202C15.9141 5.24402 15.2074 2.70735 13.9327 1.56002L13.9334 1.55935C11.8761 -0.399984 4.92805 -0.689984 2.46672 1.64735C1.36139 2.79068 0.972053 4.46868 0.929386 6.54602C0.88672 8.62402 0.836053 12.5167 4.46339 13.5727H4.46672L4.46339 15.1854C4.46339 15.1854 4.43872 15.8387 4.85605 15.97C5.33339 16.1247 5.54939 15.8214 7.03405 14.048C9.51672 14.2634 11.4234 13.77 11.6401 13.698C12.1414 13.53 14.9781 13.1547 15.4367 9.26202ZM7.27872 12.9134C7.27872 12.9134 5.70739 14.8727 5.21872 15.3814C5.05872 15.5467 4.88339 15.5314 4.88605 15.2034C4.88605 14.988 4.89805 12.526 4.89805 12.526C1.82272 11.6447 2.00405 8.33002 2.03739 6.59602C2.07072 4.86135 2.38805 3.44068 3.32405 2.48402C5.48339 0.45935 11.5747 0.912016 13.1267 2.37068C15.0241 4.05268 14.3487 8.80468 14.3527 8.96668C13.9627 12.216 11.6641 12.422 11.2414 12.5627C11.0607 12.6227 9.38405 13.054 7.27872 12.9134Z" fill="white"/>
<path d="M8.14794 2.86426C7.89128 2.86426 7.89128 3.26426 8.14794 3.26759C10.1393 3.28292 11.7793 4.67092 11.7973 7.21692C11.7973 7.48559 12.1906 7.48226 12.1873 7.21359H12.1866C12.1653 4.47026 10.3746 2.87959 8.14794 2.86426Z" fill="white"/>
<path d="M10.7673 6.79536C10.7613 7.06069 11.154 7.07336 11.1573 6.80469C11.19 5.29202 10.2573 4.04602 8.50467 3.91469C8.248 3.89602 8.22133 4.29936 8.47733 4.31802C9.99733 4.43336 10.798 5.47069 10.7673 6.79536Z" fill="white"/>
<path d="M10.3473 8.5164C10.018 8.32573 9.68265 8.4444 9.54398 8.63173L9.25398 9.00706C9.10665 9.19773 8.83131 9.1724 8.83131 9.1724C6.82198 8.64106 6.28465 6.5384 6.28465 6.5384C6.28465 6.5384 6.25998 6.25373 6.44398 6.10106L6.80665 5.80106C6.98798 5.65706 7.10265 5.31039 6.91798 4.96973C6.42465 4.07839 6.09331 3.77106 5.92465 3.53506C5.74731 3.31306 5.48065 3.26306 5.20331 3.41306H5.19731C4.62065 3.75039 3.98931 4.38173 4.19131 5.03173C4.53598 5.71706 5.16931 7.90173 7.18798 9.5524C8.13665 10.3331 9.63798 11.1331 10.2753 11.3177L10.2813 11.3271C10.9093 11.5364 11.52 10.8804 11.846 10.2864V10.2817C11.9906 9.9944 11.9426 9.7224 11.7313 9.5444C11.3566 9.17906 10.7913 8.77573 10.3473 8.5164Z" fill="white"/>
<path d="M8.77928 5.40278C9.41994 5.44012 9.73061 5.77478 9.76394 6.46212C9.77594 6.73078 10.1659 6.71212 10.1539 6.44345C10.1113 5.54612 9.64328 5.04612 8.80061 4.99945C8.54394 4.98412 8.51994 5.38745 8.77928 5.40278Z" fill="white"/>
</g>
<defs>
<clipPath id="clip0_7_3260">
<rect width="16" height="16" fill="white"/>
</clipPath>
</defs>
</svg>
