<svg width="10" height="10" viewBox="0 0 10 10" fill="none" xmlns="http://www.w3.org/2000/svg">
<g clip-path="url(#clip0_7_3296)">
<path d="M9.91077 7.23664C9.88389 7.19164 9.71763 6.83036 8.91757 6.08781C8.08001 5.31025 8.19252 5.43651 9.20134 4.09203C9.81576 3.27322 10.0614 2.77319 9.98453 2.55942C9.9114 2.35565 9.45949 2.40941 9.45949 2.40941L7.95688 2.41816C7.95688 2.41816 7.84562 2.40316 7.76249 2.45254C7.68186 2.50129 7.62998 2.6138 7.62998 2.6138C7.62998 2.6138 7.39184 3.2476 7.07431 3.78639C6.40489 4.92335 6.13675 4.98335 6.02736 4.91272C5.77297 4.74833 5.83672 4.25142 5.83672 3.89889C5.83672 2.79694 6.00361 2.33753 5.51108 2.21877C5.34731 2.17939 5.2273 2.15314 4.80915 2.14876C4.27286 2.14314 3.81845 2.15064 3.56156 2.27627C3.3903 2.36003 3.25841 2.54692 3.33904 2.55754C3.43842 2.57067 3.66344 2.61817 3.78282 2.78069C3.93721 2.99008 3.93158 3.46136 3.93158 3.46136C3.93158 3.46136 4.02034 4.75833 3.72469 4.9196C3.52155 5.03023 3.24341 4.80459 2.64649 3.77263C2.34084 3.24447 2.10958 2.66005 2.10958 2.66005C2.10958 2.66005 2.0652 2.55129 1.98582 2.49316C1.88956 2.42253 1.75455 2.40003 1.75455 2.40003L0.325697 2.40878C0.325697 2.40878 0.111306 2.41503 0.0325504 2.50817C-0.0374548 2.5913 0.0269249 2.76256 0.0269249 2.76256C0.0269249 2.76256 1.14576 5.37963 2.4121 6.6991C3.57406 7.90857 4.8929 7.82919 4.8929 7.82919H5.49045C5.49045 7.82919 5.67109 7.80919 5.76297 7.7098C5.84797 7.61855 5.84485 7.44728 5.84485 7.44728C5.84485 7.44728 5.83297 6.64535 6.2055 6.52721C6.5724 6.41096 7.04369 7.30227 7.5431 7.64542C7.92063 7.90482 8.20752 7.84794 8.20752 7.84794L9.54324 7.82919C9.54324 7.82919 10.242 7.78606 9.91077 7.23664Z" fill="#CAD0D7"/>
</g>
<defs>
<clipPath id="clip0_7_3296">
<rect width="10" height="10" fill="white"/>
</clipPath>
</defs>
</svg>
