<svg width="16" height="16" viewBox="0 0 16 16" fill="none" xmlns="http://www.w3.org/2000/svg">
<g clip-path="url(#clip0_5_681)">
<path d="M11.6713 9.538L11.6653 9.588C10.1993 8.85733 10.046 8.76 9.85664 9.044C9.7253 9.24066 9.34264 9.68666 9.2273 9.81866C9.11064 9.94866 8.99464 9.95866 8.79664 9.86866C8.59664 9.76866 7.95464 9.55866 7.19464 8.87866C6.60264 8.34866 6.2053 7.69866 6.08797 7.49866C5.89264 7.16133 6.3013 7.11333 6.6733 6.40933C6.73997 6.26933 6.70597 6.15933 6.65664 6.06C6.60664 5.96 6.20864 4.98 6.04197 4.58933C5.88197 4.2 5.7173 4.24933 5.59397 4.24933C5.20997 4.216 4.9293 4.22133 4.68197 4.47866C3.60597 5.66133 3.8773 6.88133 4.79797 8.17866C6.6073 10.5467 7.5713 10.9827 9.33397 11.588C9.80997 11.7393 10.244 11.718 10.5873 11.6687C10.97 11.608 11.7653 11.188 11.9313 10.718C12.1013 10.248 12.1013 9.858 12.0513 9.768C12.002 9.678 11.8713 9.628 11.6713 9.538Z" fill="black"/>
<path d="M13.68 2.29933C8.554 -2.656 0.0706667 0.937998 0.0673333 7.92867C0.0673333 9.326 0.433333 10.6887 1.13067 11.892L0 16L4.22333 14.8987C9.49333 17.7453 15.9973 13.9653 16 7.93267C16 5.81533 15.1733 3.82267 13.67 2.32533L13.68 2.29933ZM14.668 7.91067C14.664 12.9993 9.078 16.1773 4.66 13.58L4.42 13.4373L1.92 14.0873L2.59 11.6573L2.43067 11.4073C-0.318667 7.03067 2.84 1.31067 8.048 1.31067C9.81733 1.31067 11.478 2.00067 12.7287 3.25067C13.9787 4.49 14.668 6.15067 14.668 7.91067Z" fill="black"/>
</g>
<defs>
<clipPath id="clip0_5_681">
<rect width="16" height="16" fill="white"/>
</clipPath>
</defs>
</svg>
